<?xml version="1.0" standalone="no"?>
<!DOCTYPE svg PUBLIC "-//W3C//DTD SVG 1.1//EN" "http://www.w3.org/Graphics/SVG/1.1/DTD/svg11.dtd" >
<svg xmlns="http://www.w3.org/2000/svg" xmlns:xlink="http://www.w3.org/1999/xlink" version="1.1">
<metadata></metadata>
<defs>
<font id="amsipro-ultraitaluploadedfile" horiz-adv-x="1253" >
<font-face units-per-em="2048" ascent="1751" descent="-297" />
<missing-glyph horiz-adv-x="573" />
<glyph unicode="&#xfb01;" horiz-adv-x="1400" d="M88 61l123 697h-64q-72 0 -59 69l27 160q14 70 78 70h69l17 86q29 164 127 245.5t284 81.5q113 0 174 -14q76 -18 68 -72l-23 -118q-10 -63 -65 -64q-14 0 -38 2t-36 2q-63 0 -76 -78l-14 -71h639q75 0 61 -70l-161 -917q-12 -70 -78 -70h-287q-74 0 -61 70l122 688h-286 l-123 -697q-12 -61 -80 -61h-274q-37 0 -53.5 15.5t-10.5 45.5zM1006 1272l18 108q12 70 78 70h287q73 0 61 -70l-18 -108q-12 -70 -80 -70h-287q-72 0 -59 70z" />
<glyph unicode="&#xfb02;" horiz-adv-x="1396" d="M88 61l123 697h-64q-72 0 -59 69l27 160q14 70 78 70h69l4 20q39 223 182.5 308t475.5 85q117 0 257 -16t208 -37q35 -12 48 -28.5t7 -49.5l-225 -1269q-12 -70 -78 -70h-287q-74 0 -61 70l196 1106q-49 8 -121 8q-92 0 -133 -21.5t-49 -79.5l-6 -26h70q76 0 61 -70 l-27 -160q-12 -70 -79 -69h-76l-123 -697q-12 -61 -80 -61h-274q-37 0 -53.5 15.5t-10.5 45.5z" />
<glyph unicode="&#xfb03;" horiz-adv-x="2105" d="M88 61l123 697h-66q-70 0 -57 69l27 160q14 70 78 70h69l17 86q29 166 124 246.5t279 80.5q121 0 182 -14q76 -18 68 -72l-23 -118q-10 -63 -65 -64q-14 0 -38 2t-36 2q-63 0 -76 -78l-14 -71h287l16 86q29 166 124 246.5t279 80.5q121 0 183 -14q76 -18 67 -72l-22 -118 q-10 -63 -66 -64q-14 0 -37.5 2t-35.5 2q-63 0 -76 -78l-15 -71h639q76 0 62 -70l-162 -917q-12 -70 -78 -70h-286q-74 0 -62 70l123 688h-287l-123 -697q-12 -61 -80 -61h-274q-37 0 -53.5 15.5t-9.5 45.5l122 697h-286l-123 -697q-12 -61 -80 -61h-274q-37 0 -53.5 15.5 t-10.5 45.5zM1710 1272l19 108q12 70 77 70h287q73 0 61 -70l-18 -108q-12 -70 -80 -70h-287q-72 0 -59 70z" />
<glyph unicode="&#xfb04;" horiz-adv-x="2101" d="M88 61l123 697h-64q-72 0 -59 69l27 160q14 70 78 70h69l17 86q29 166 124 246.5t279 80.5q121 0 182 -14q76 -18 68 -72l-23 -118q-10 -63 -65 -64q-14 0 -38 2t-36 2q-63 0 -76 -78l-14 -71h287l4 20q39 223 183 308t476 85q115 0 255 -16t208 -37q35 -12 48 -28.5 t7 -49.5l-225 -1269q-12 -70 -78 -70h-286q-74 0 -62 70l197 1106q-49 8 -121 8q-92 0 -133 -21.5t-49 -79.5l-7 -26h70q76 0 62 -70l-27 -160q-12 -70 -80 -69h-76l-123 -697q-12 -61 -80 -61h-274q-37 0 -53.5 15.5t-9.5 45.5l122 697h-286l-123 -697q-12 -61 -80 -61 h-274q-37 0 -53.5 15.5t-10.5 45.5z" />
<glyph horiz-adv-x="0" />
<glyph unicode="&#xd;" horiz-adv-x="681" />
<glyph unicode=" "  horiz-adv-x="573" />
<glyph unicode="&#x09;" horiz-adv-x="573" />
<glyph unicode="&#xa0;" horiz-adv-x="573" />
<glyph unicode="!" horiz-adv-x="692" d="M63 70l46 252q12 68 84 67h270q80 0 67 -67l-45 -252q-12 -70 -77 -70h-283q-74 0 -62 70zM188 551l68 825q6 74 80 74h356q82 0 64 -74l-224 -825q-17 -64 -83 -64h-197q-70 0 -64 64z" />
<glyph unicode="&#x22;" horiz-adv-x="897" d="M240 1272q0 92 4 114q23 125 184 125q90 0 121 -31.5t18 -93.5q-6 -34 -37 -114l-151 -398h-127zM649 1272q0 92 4 114q23 125 185 125q90 0 120.5 -31.5t18.5 -93.5q-6 -34 -37 -114l-152 -398h-126z" />
<glyph unicode="#" horiz-adv-x="1331" d="M16 424l17 90q12 70 82 70h153l123 282h-94q-70 0 -57 70l16 90q12 70 82 70h156l137 313q31 68 94 49l94 -24q66 -18 37 -86l-111 -252h256l138 313q31 68 94 49l94 -24q66 -18 37 -86l-111 -252h95q70 0 57 -70l-16 -90q-12 -70 -82 -70h-156l-123 -282h96q70 0 58 -70 l-17 -90q-12 -70 -82 -70h-155l-137 -313q-31 -68 -95 -49l-94 24q-68 18 -37 86l111 252h-256l-137 -313q-31 -68 -95 -49l-94 24q-68 18 -37 86l111 252h-94q-70 0 -58 70zM520 584h256l123 282h-256z" />
<glyph unicode="$" horiz-adv-x="1286" d="M8 119.5q-6 17.5 15 56.5l104 191q35 74 102 43q145 -66 299 -66q248 0 248 90q0 57 -209 123q-393 125 -393 420q0 225 142.5 340t396.5 149l20 119q12 70 78 70h115q73 0 61 -72l-20 -117q209 -25 317 -90q55 -33 23 -92l-101 -180q-37 -68 -102 -43q-129 45 -281 45 q-199 0 -198 -78q0 -59 204 -131q92 -33 152.5 -63.5t123 -76.5t93.5 -111.5t31 -149.5q0 -207 -141.5 -335t-372.5 -169l-23 -127q-12 -70 -80 -70h-114q-72 0 -60 70l21 117q-260 14 -414 102q-31 18 -37 35.5z" />
<glyph unicode="%" horiz-adv-x="2048" d="M152 942q0 49 8 96q35 203 154.5 315.5t299.5 112.5q160 0 254.5 -93t94.5 -253q0 -51 -9 -98q-35 -205 -151.5 -316.5t-300.5 -111.5q-160 0 -255 94t-95 254zM428 70l989 1310q51 70 111 70h151q80 0 29 -70l-989 -1310q-51 -70 -111 -70h-151q-80 0 -29 70zM457 924 q0 -94 65 -95q47 0 76 47.5t47 153.5q12 63 12 107q0 94 -65 94q-47 0 -76 -47t-47 -154q-12 -66 -12 -106zM1178 332q0 49 8 96q35 203 154.5 315.5t299.5 112.5q160 0 254.5 -93t94.5 -253q0 -51 -9 -98q-35 -205 -151.5 -316.5t-300.5 -111.5q-160 0 -255 94t-95 254z M1483 313q0 -94 65 -94q47 0 76 47.5t47 153.5q12 63 12 106q0 94 -65 95q-47 0 -76 -47.5t-47 -153.5q-12 -66 -12 -107z" />
<glyph unicode="&#x26;" horiz-adv-x="1536" d="M63 367q0 172 108 294.5t290 186.5l-21 33q-68 109 -67 237q0 190 144.5 273.5t367.5 83.5q201 0 321 -56q63 -29 39 -94l-55 -143q-27 -70 -103 -54q-121 27 -176 27q-49 0 -79.5 -4t-59.5 -23.5t-29 -58.5q0 -16 8.5 -36.5t14.5 -31t24.5 -38t22.5 -31.5l262 -385 q53 98 53 231q0 70 74 70h213q49 0 49 -94q0 -240 -204 -480l139 -202q16 -23 3 -47.5t-40 -24.5h-246q-80 0 -106 37l-33 43q-158 -100 -385 -100t-378 100t-151 287zM508 453q0 -125 209 -125q49 0 86 12l-187 281q-109 -63 -108 -168z" />
<glyph unicode="'" horiz-adv-x="487" d="M240 1272q0 92 4 114q23 125 184 125q90 0 121 -31.5t18 -93.5q-6 -34 -37 -114l-151 -398h-127z" />
<glyph unicode="(" horiz-adv-x="802" d="M121 406q0 283 130 558t355 474q37 33 80 32h195q35 0 40 -26.5t-20 -52.5q-180 -211 -280.5 -486.5t-100.5 -562.5q0 -291 109 -504q12 -29 -1.5 -54.5t-47.5 -25.5h-195q-47 0 -68 33q-196 250 -196 615z" />
<glyph unicode=")" horiz-adv-x="802" d="M-68 -215q-6 27 21 53q178 213 278.5 488.5t100.5 562.5q0 285 -107 502q-14 27 0.5 53t48.5 26h195q47 0 68 -32q194 -253 194 -613q0 -285 -129 -559t-354 -475q-37 -33 -80 -33h-195q-35 0 -41 27z" />
<glyph unicode="*" horiz-adv-x="954" d="M162 897q0 57 76 98q35 18 113.5 32.5t103.5 25.5q-20 10 -94 25.5t-103 33.5q-49 33 -49 70q0 33 39 84q55 70 104 69q31 0 60 -20q31 -20 68.5 -79.5t54.5 -74.5q2 27 -10.5 99.5t-6.5 109.5q10 55 40 80t95.5 25t87 -25t11.5 -80q-6 -39 -44 -111.5t-46 -97.5 q25 16 86 74.5t96 77.5q39 20 67 20q47 0 74 -67q14 -31 14 -60q0 -53 -75 -96q-35 -18 -114 -32.5t-103 -24.5q20 -10 93.5 -25.5t102.5 -34.5q47 -31 47 -69q0 -35 -37 -84q-53 -70 -102 -70q-31 0 -59 21q-31 20 -71 79.5t-54 73.5q-2 -27 11 -99.5t7 -109.5 q-10 -55 -41 -79.5t-96.5 -24.5t-87 24.5t-10.5 79.5q6 39 44 112t46 97q-23 -14 -83.5 -73.5t-97.5 -77.5q-39 -20 -69 -21q-49 0 -76 68q-12 33 -12 57z" />
<glyph unicode="+" d="M129 618l33 193q12 70 78 70h268l49 272q12 70 78 70h242q74 0 61 -70l-49 -272h260q74 0 61 -70l-32 -193q-12 -69 -80 -69h-267l-49 -273q-12 -70 -80 -69h-241q-72 0 -60 69l50 273h-263q-72 0 -59 69z" />
<glyph unicode="," horiz-adv-x="569" d="M-5 -274.5q-7 18.5 9 45.5l143 229h-75q-74 0 -62 70l45 252q12 68 84 67h254q80 0 68 -67l-39 -222q-8 -53 -35 -88l-209 -270q-25 -35 -59 -35h-90q-27 0 -34 18.5z" />
<glyph unicode="-" horiz-adv-x="835" d="M82 496l35 192q12 70 78 70h540q74 0 62 -68l-35 -194q-12 -70 -80 -70h-541q-72 0 -59 70z" />
<glyph unicode="." horiz-adv-x="569" d="M10 70l45 252q12 68 84 67h254q80 0 68 -67l-45 -252q-12 -70 -78 -70h-266q-74 0 -62 70z" />
<glyph unicode="/" horiz-adv-x="983" d="M-52.5 24.5q-11.5 24.5 11.5 61.5l766 1303q37 61 98 61h246q43 0 55.5 -24.5t-10.5 -61.5l-766 -1303q-37 -61 -100 -61h-246q-43 0 -54.5 24.5z" />
<glyph unicode="0" horiz-adv-x="1404" d="M106 520q0 84 21 207q66 375 256 561.5t475 186.5q244 0 386 -138.5t142 -408.5q0 -92 -18 -207q-66 -373 -257 -559.5t-476 -186.5q-244 0 -386.5 138.5t-142.5 406.5zM553 541q0 -193 131 -193q90 0 147.5 89t92.5 288q18 109 18 180q0 197 -133 197q-90 0 -146.5 -89 t-91.5 -288q-18 -106 -18 -184z" />
<glyph unicode="1" horiz-adv-x="1056" d="M162 1104q-27 51 24 82l383 231q51 33 113 33h293q78 0 65 -74l-229 -1302q-14 -74 -84 -74h-291q-77 0 -63 74l166 940l-199 -92q-63 -29 -88 14z" />
<glyph unicode="2" horiz-adv-x="1306" d="M12 74l29 168q8 51 74 84q748 369 747 688q0 113 -125 112q-84 0 -124 -52t-40 -134q0 -84 -67 -84h-270q-63 0 -64 92q0 250 175 388.5t441 138.5q260 0 390.5 -110t130.5 -273q0 -418 -639 -744h450q78 0 66 -74l-35 -200q-12 -74 -84 -74h-991q-78 0 -64 74z" />
<glyph unicode="3" horiz-adv-x="1245" d="M-10 180l98 172q41 72 105 41q143 -68 309 -67q236 0 235 153q0 100 -157 101h-174q-74 0 -60 73l31 172q12 74 86 74h160q184 0 184 131q0 100 -160 100t-317 -61q-78 -29 -92 41l-39 166q-14 68 59 98q233 98 494 99q131 0 238.5 -31t184 -109t76.5 -192 q0 -131 -70.5 -224.5t-193.5 -144.5q80 -25 130 -100.5t50 -177.5q0 -137 -54 -240.5t-148.5 -162t-206 -86.5t-240.5 -28q-303 0 -504 105q-63 31 -24 98z" />
<glyph unicode="4" horiz-adv-x="1404" d="M31 344l35 193q8 55 45 92l776 784q35 37 86 37h299q78 0 65 -74l-135 -762h117q78 0 65 -73l-34 -197q-12 -74 -86 -74h-121l-35 -196q-14 -74 -82 -74h-289q-78 0 -63 74l35 196h-617q-74 0 -61 74zM424 614h344l74 418z" />
<glyph unicode="5" horiz-adv-x="1282" d="M10 180l99 172q41 72 104 41q143 -68 317 -67q111 0 180.5 45t69.5 139q0 123 -166 123q-74 0 -146.5 -19.5t-92.5 -19.5q-14 0 -39 10l-150 43q-45 12 -30 66q31 111 88 348t67 305q14 84 88 84h820q78 0 65 -74l-35 -200q-12 -74 -88 -74h-545q-20 -98 -53 -199 q94 25 201 25q229 0 341 -99.5t112 -261.5q0 -303 -196 -446.5t-505 -143.5q-287 0 -481 105q-61 33 -25 98z" />
<glyph unicode="6" horiz-adv-x="1355" d="M98 481q0 78 17 176q74 420 257 619t550 199q188 0 319 -52q66 -27 39 -90l-68 -168q-28 -69 -108 -53q-98 23 -189 23q-162 0 -238.5 -57.5t-101.5 -178.5q131 78 291 78q203 0 315.5 -108.5t112.5 -284.5q0 -264 -191.5 -436.5t-455.5 -172.5q-276 0 -412.5 135.5 t-136.5 370.5zM506 471q0 -147 180 -147q94 0 158.5 65.5t64.5 155.5q0 63 -45 102t-127 39q-106 0 -168.5 -60.5t-62.5 -154.5z" />
<glyph unicode="7" horiz-adv-x="1228" d="M160 70q74 252 266 550t385 482h-565q-74 0 -60 74l35 200q12 74 82 74h954q78 0 66 -74l-29 -166q-4 -20 -14 -40.5t-19.5 -30l-24.5 -24.5l-19 -19q-186 -203 -360.5 -483.5t-250.5 -542.5q-12 -41 -27.5 -55.5t-56.5 -14.5h-297q-83 0 -65 70z" />
<glyph unicode="8" horiz-adv-x="1368" d="M53 338q0 154 94.5 260.5t247.5 151.5q-86 31 -135 110.5t-49 173.5q0 125 57.5 216t155.5 137.5t200.5 67t219.5 20.5q240 0 384 -90.5t144 -251.5q0 -137 -84 -237.5t-217 -145.5q96 -31 156.5 -110t60.5 -189q0 -135 -61.5 -232.5t-165 -148t-214 -73t-235.5 -22.5 q-268 0 -413.5 98.5t-145.5 264.5zM494 408q0 -55 44 -86t121 -31q88 0 144.5 43t56.5 121q1 123 -149 172q-217 -74 -217 -219zM635 1016q0 -106 119 -148q182 59 182 209q0 99 -133 99q-80 0 -124 -43t-44 -117z" />
<glyph unicode="9" horiz-adv-x="1355" d="M152 858q0 272 184 444.5t469 172.5q272 0 407.5 -135.5t135.5 -372.5q0 -76 -17 -174q-74 -422 -253 -620t-552 -198q-190 0 -321 52q-37 14 -45 33.5t6 56.5l67 168q29 69 109 53q98 -23 188 -23q162 0 239 57.5t101 178.5q-131 -78 -286 -78q-203 0 -317.5 106.5 t-114.5 278.5zM537 909q0 -66 46 -105.5t128 -39.5q109 0 168 59.5t59 155.5q0 66 -45 106.5t-137 40.5q-94 0 -156.5 -63.5t-62.5 -153.5z" />
<glyph unicode=":" horiz-adv-x="667" d="M59 70l45 252q12 68 84 67h254q80 0 68 -67l-45 -252q-12 -70 -78 -70h-266q-74 0 -62 70zM186 786l45 252q12 68 84 68h254q80 0 68 -68l-45 -252q-12 -70 -80 -69h-266q-72 -1 -60 69z" />
<glyph unicode=";" horiz-adv-x="667" d="M44 -274.5q-7 18.5 9 45.5l144 229h-76q-74 0 -62 70l45 252q12 68 84 67h254q80 0 68 -67l-39 -222q-8 -53 -35 -88l-209 -270q-25 -35 -59 -35h-90q-27 0 -34 18.5zM186 786l45 252q12 68 84 68h254q80 0 68 -68l-45 -252q-12 -70 -80 -69h-266q-72 -1 -60 69z" />
<glyph unicode="&#x3c;" d="M152 709q4 41 41 65l811 572q63 45 96 -11l108 -168q33 -55 -26 -98l-520 -362l391 -361q45 -43 -6 -98l-168 -168q-53 -53 -101 -10l-608 573q-26 27 -18 66z" />
<glyph unicode="=" d="M119 377l31 172q12 70 77 69h844q74 0 62 -69l-31 -172q-12 -70 -80 -70h-844q-72 0 -59 70zM207 881l31 172q12 70 77 69h844q74 0 62 -69l-31 -172q-12 -70 -80 -70h-844q-72 0 -59 70z" />
<glyph unicode="&#x3e;" d="M129 248q-33 53 27 98l518 361l-389 362q-47 43 6 98l166 168q57 53 100 11l610 -572q27 -24 23 -63q-8 -41 -45 -68l-813 -573q-59 -45 -96 10z" />
<glyph unicode="?" horiz-adv-x="1163" d="M217 1284q-14 70 59 98q215 90 449 91q223 0 351 -83t128 -243q0 -100 -42 -185t-103.5 -138.5t-121.5 -97.5t-106.5 -84t-50.5 -75l-2 -16q-8 -61 -84 -64h-243q-37 0 -53.5 18.5t-8.5 49.5l4 14q18 63 80 126t124 107t112.5 109.5t50.5 132.5q0 41 -31 59.5t-104 18.5 q-139 0 -277 -53q-78 -29 -92 41zM276 70l46 252q12 68 84 67h270q80 0 67 -67l-45 -252q-12 -70 -77 -70h-283q-74 0 -62 70z" />
<glyph unicode="@" horiz-adv-x="1925" d="M92 311q0 418 300 687.5t747 269.5q344 0 532.5 -145.5t188.5 -397.5q0 -166 -65.5 -315.5t-198 -249t-304.5 -99.5h-118q-66 0 -82 52l-23 67q-96 -117 -272 -117q-133 0 -224.5 77t-91.5 206q0 266 171 438t454 172q231 0 369 -75q47 -25 28 -76l-196 -578h28 q160 0 250 159t90 339t-137 277.5t-412 97.5q-231 0 -421.5 -90t-307 -270.5t-116.5 -420.5q0 -215 150.5 -309t455.5 -94q204 0 413 41q43 10 43 -35l3 -65q2 -39 -41 -50q-244 -55 -428 -55q-371 0 -578 140.5t-207 418.5zM825 418q0 -98 84 -99q115 0 166 152l76 225 q-41 12 -92 13q-102 0 -168 -89.5t-66 -201.5z" />
<glyph unicode="A" horiz-adv-x="1445" d="M-48 24q-5 10 -5 22q0 18 12 42l653 1296q32 66 95 66h368q70 0 82 -66l195 -1296q1 -10 1 -19q1 -27 -13 -45q-18 -24 -56 -24h-305q-76 0 -82 68l-16 157h-392l-71 -157q-31 -68 -99 -68h-317q-37 0 -50 24zM623 590h247l-41 422h-6z" />
<glyph unicode="B" horiz-adv-x="1384" d="M37 74l229 1302q8 41 25.5 57.5t56.5 16.5h516q530 0 531 -320q0 -121 -61.5 -215t-178.5 -143q74 -27 120 -97.5t46 -174.5q0 -176 -92 -292t-233.5 -162t-329.5 -46h-566q-65 0 -65 52q0 10 2 22zM520 328h166q193 0 193 157q0 102 -154 103h-160zM618 887h150 q182 0 182 149q0 45 -31.5 65.5t-105.5 20.5h-154z" />
<glyph unicode="C" horiz-adv-x="1300" d="M96 530q0 90 19 195q133 750 800 750q135 0 248 -32t174 -77q31 -23 36 -42t-15 -56l-117 -183q-23 -37 -47 -44q-7 -2 -15 -2q-21 0 -49 14q-82 37 -190 37q-168 0 -253 -82t-120 -283q-14 -90 -14 -133q0 -125 64.5 -178.5t203.5 -53.5q100 0 209 41q31 11 51 11 q9 0 15 -2q22 -7 32 -41l54 -185q10 -33 -2.5 -54t-51.5 -44q-186 -111 -426 -111q-281 0 -443.5 139.5t-162.5 415.5z" />
<glyph unicode="D" horiz-adv-x="1417" d="M37 74l229 1302q12 74 82 74h440q311 0 466 -128t155 -400q0 -100 -16 -197q-61 -381 -258 -553t-564 -172h-471q-65 0 -65 52q0 10 2 22zM539 385h63q150 0 227.5 72.5t112.5 267.5q14 90 14 133q0 115 -56 161t-179 46h-64z" />
<glyph unicode="E" horiz-adv-x="1191" d="M37 74l229 1302q12 74 82 74h856q68 0 68 -56q0 -9 -2 -18l-39 -221q-12 -74 -84 -74h-494l-30 -170h456q66 0 66 -54q0 -9 -2 -19l-37 -207q-12 -72 -82 -72h-463l-35 -190h500q68 0 68 -56q0 -9 -2 -18l-39 -221q-14 -74 -84 -74h-869q-65 0 -65 52q0 10 2 22z" />
<glyph unicode="F" horiz-adv-x="1163" d="M37 74l229 1302q12 74 82 74h848q68 0 68 -56q0 -9 -2 -18l-39 -221q-12 -74 -84 -74h-482l-39 -211h449q65 0 65 -53q0 -9 -2 -20l-36 -215q-12 -72 -84 -72h-455l-76 -436q-14 -74 -84 -74h-295q-65 0 -65 52q0 10 2 22z" />
<glyph unicode="G" horiz-adv-x="1433" d="M94 528q0 82 21 205q68 391 284.5 566.5t569.5 175.5q301 0 450 -113q29 -23 33 -42.5t-14 -55.5l-107 -185q-24 -41 -65 -41q-19 0 -43 9q-113 43 -232 43q-197 0 -292 -80t-132 -285q-12 -74 -12 -129q0 -127 66.5 -181.5t205.5 -54.5q66 0 107 13l35 200h-113 q-63 0 -63 52q0 9 2 20l30 176q12 74 82 74h432q64 0 64 -55q0 -9 -2 -19l-117 -661q-8 -47 -63 -78q-199 -106 -506 -107q-291 0 -456 135.5t-165 417.5z" />
<glyph unicode="H" horiz-adv-x="1433" d="M37 74l229 1302q12 74 82 74h299q68 0 68 -56q0 -9 -2 -18l-78 -444h328l77 444q12 74 82 74h299q68 0 68 -56q0 -9 -2 -18l-230 -1302q-14 -74 -83 -74h-300q-65 0 -65 53q0 10 2 21l82 465h-328l-82 -465q-14 -74 -84 -74h-299q-65 0 -65 52q0 10 2 22z" />
<glyph unicode="I" horiz-adv-x="675" d="M45 74l229 1302q12 74 82 74h299q68 0 68 -56q0 -9 -2 -18l-229 -1302q-14 -74 -84 -74h-299q-66 0 -66 53q0 10 2 21z" />
<glyph unicode="J" horiz-adv-x="1064" d="M-20 166l106 194q27 53 65 53q17 0 35 -10q68 -34 153 -34h5q158 0 191 178l145 829q12 74 82 74h299q67 0 67 -54q0 -9 -2 -20l-153 -866q-49 -276 -196.5 -403t-407.5 -127q-113 0 -215.5 26.5t-155.5 63.5q-32 21 -32 52q0 20 14 44z" />
<glyph unicode="K" horiz-adv-x="1363" d="M37 74l229 1302q12 74 82 74h299q68 0 68 -56q0 -9 -2 -18l-72 -403l360 409q57 68 115 68h334q37 0 45 -28q2 -6 2 -13q0 -24 -24 -51l-523 -586l310 -680q8 -18 8 -34t-8 -30q-16 -28 -52 -28h-307q-68 0 -96 68l-232 520l-90 -514q-12 -74 -84 -74h-299q-65 0 -65 52 q0 10 2 22z" />
<glyph unicode="L" horiz-adv-x="1146" d="M37 74l229 1302q12 74 82 74h299q68 0 68 -56q0 -9 -2 -18l-174 -983h446q68 0 68 -56q0 -9 -2 -18l-43 -245q-14 -74 -84 -74h-824q-65 0 -65 52q0 10 2 22z" />
<glyph unicode="M" horiz-adv-x="1703" d="M37 74l229 1302q12 74 82 74h266q63 0 82 -41l219 -543l412 543q31 41 86 41h279q67 0 67 -54q0 -9 -2 -20l-229 -1302q-14 -74 -84 -74h-283q-65 0 -65 52q0 10 2 22l116 665l-340 -440q-22 -31 -57 -31t-49 31l-184 440l-117 -665q-14 -74 -84 -74h-283q-65 0 -65 52 q0 10 2 22z" />
<glyph unicode="N" horiz-adv-x="1449" d="M37 74l229 1302q12 74 82 74h285q68 0 84 -45l246 -655l110 626q12 74 82 74h283q67 0 67 -55q0 -9 -2 -19l-229 -1302q-14 -74 -84 -74h-285q-63 0 -84 45l-243 655l-111 -626q-14 -74 -84 -74h-283q-65 0 -65 52q0 10 2 22z" />
<glyph unicode="O" horiz-adv-x="1474" d="M94 518q0 102 21 211q133 746 778 746q270 0 423.5 -134.5t153.5 -410.5q0 -100 -20 -209q-133 -745 -780 -746q-270 0 -423 134.5t-153 408.5zM551 563q0 -207 166 -207q109 0 177.5 86t102.5 283q16 102 17 162q0 207 -166 207q-109 0 -177.5 -86t-103.5 -283 q-16 -102 -16 -162z" />
<glyph unicode="P" horiz-adv-x="1376" d="M37 74l229 1302q12 74 82 74h498q270 0 411.5 -96.5t141.5 -311.5q0 -49 -10 -124q-45 -285 -214 -409t-475 -124h-165l-56 -311q-8 -41 -25.5 -57.5t-56.5 -16.5h-295q-67 0 -67 54q0 9 2 20zM598 754h139q94 0 142.5 37.5t62.5 126.5q6 31 6 55q0 57 -35.5 82.5 t-115.5 25.5h-140z" />
<glyph unicode="Q" horiz-adv-x="1474" d="M98 539q0 92 19 198q129 737 776 738q270 0 423.5 -133.5t153.5 -407.5q0 -94 -18 -205q-80 -440 -430 -639q45 -4 78 -4q25 0 60.5 7t47.5 7q43 0 43 -37q0 -7 -2 -16l-32 -182q-8 -43 -29 -60.5t-68 -17.5q-152 0 -296 56.5t-246 152.5q-217 10 -348.5 148.5 t-131.5 394.5zM553 580q0 -207 172 -207q109 0 174.5 83t99.5 277q14 80 15 150q0 211 -170 211q-109 0 -175.5 -85t-99.5 -276q-16 -94 -16 -153z" />
<glyph unicode="R" horiz-adv-x="1388" d="M37 74l229 1302q12 74 82 74h506q563 0 563 -397q0 -57 -12 -129q-53 -303 -340 -426l174 -406q9 -21 9 -38q0 -16 -7 -28q-14 -26 -53 -26h-283q-74 0 -96 59l-145 371h-121l-64 -356q-14 -74 -82 -74h-295q-67 0 -67 52q0 10 2 22zM604 778h148q96 0 144 36t62 114 q4 18 5 49q0 59 -37 81.5t-121 22.5h-148z" />
<glyph unicode="S" horiz-adv-x="1241" d="M20 172l107 190q28 51 69 51q15 0 31 -7q141 -61 281 -62q223 0 223 94q0 57 -184 123q-80 29 -138.5 59.5t-114.5 77.5t-87 116t-31 157q0 256 171 379t456 123q139 0 260 -29t182 -66q35 -21 35 -52q0 -18 -12 -40l-101 -180q-27 -49 -70 -49q-15 0 -32 6 q-123 43 -262 43q-174 0 -174 -82q0 -35 42 -64.5t138 -66.5q90 -35 144.5 -63.5t114.5 -73.5t89 -108.5t29 -145.5q0 -254 -181.5 -389.5t-459.5 -135.5q-324 0 -502 103q-35 20 -35 51q0 19 12 41z" />
<glyph unicode="T" horiz-adv-x="1208" d="M162 1130l43 246q12 74 82 74h970q68 0 68 -56q0 -9 -2 -18l-43 -246q-14 -73 -84 -73h-2h-264l-172 -983q-14 -74 -84 -74h-299q-66 0 -66 53q0 10 2 21l172 983h-260h-2q-61 0 -61 52q0 9 2 21z" />
<glyph unicode="U" horiz-adv-x="1413" d="M100 406q0 66 13 139l147 831q12 74 82 74h299q68 0 68 -56q0 -9 -2 -18l-140 -788q-8 -43 -8 -88q0 -68 31 -98.5t98 -30.5q86 0 132 51t67 164l139 790q12 74 82 74h299q68 0 68 -56q0 -9 -2 -18l-148 -831q-51 -291 -216 -429.5t-464 -138.5q-545 0 -545 429z" />
<glyph unicode="V" horiz-adv-x="1425" d="M188 1362q-2 10 -2 20q0 26 14 44q18 24 54 24h309q78 0 84 -68l43 -594l10 -327h9l125 327l256 594q25 68 96 68h321q37 0 51 -24q6 -10 5 -23q0 -18 -11 -41l-641 -1296q-18 -35 -38.5 -50.5t-57.5 -15.5h-364q-70 0 -80 66z" />
<glyph unicode="W" horiz-adv-x="2113" d="M197 1362v14q0 74 63 74h301q80 0 86 -68l12 -489l7 -334h8l123 334l198 491q27 66 95 66h253q84 0 87 -66l22 -491l8 -334h8l121 334l189 489q25 68 94 68h313q37 0 51 -24q6 -10 7 -23q0 -18 -11 -41l-573 -1296q-31 -66 -96 -66h-314q-74 0 -80 66l-39 475l-12 258h-8 l-102 -258l-207 -475q-31 -66 -96 -66h-314q-74 0 -80 66z" />
<glyph unicode="X" horiz-adv-x="1433" d="M-38 28q-2 7 -2 14q0 23 22 50l540 643l-301 623q-8 18 -8 34q-1 16 7 30q16 28 52 28h320q66 0 98 -68l135 -311l248 311q29 37 51.5 52.5t59.5 15.5h313q37 0 46 -28q2 -7 2 -15q0 -23 -21 -49l-518 -619l311 -647q8 -18 8 -34t-7 -30q-15 -28 -52 -28h-320 q-66 0 -96 68l-148 331l-268 -331q-51 -68 -112 -68h-314q-37 0 -46 28z" />
<glyph unicode="Y" horiz-adv-x="1425" d="M195 1358q-5 14 -5 27q0 19 11 37q18 28 55 28h309q72 0 92 -68l86 -325l35 -178h8l97 178l204 325q41 68 105 68h313q37 0 49 -28q5 -10 5 -20q0 -21 -17 -44l-594 -823l-82 -461q-14 -74 -84 -74h-299q-65 0 -65 52q0 10 2 22l82 461z" />
<glyph unicode="Z" horiz-adv-x="1294" d="M16 74l41 233q10 55 68 113l641 637h-481q-64 0 -64 52q0 10 2 21l43 246q12 74 82 74h934q68 0 68 -56q0 -9 -2 -18l-41 -233q-10 -55 -68 -113l-641 -637h514q68 0 68 -56q0 -9 -2 -18l-43 -245q-14 -74 -84 -74h-971q-66 0 -66 53q0 10 2 21z" />
<glyph unicode="[" horiz-adv-x="802" d="M57 -156l271 1536q12 70 78 70h434q74 0 61 -70l-24 -147q-12 -70 -80 -70h-133l-195 -1102h127q73 1 61 -69l-26 -148q-12 -70 -80 -69h-434q-72 0 -60 69z" />
<glyph unicode="\" horiz-adv-x="983" d="M201 1364q-20 86 65 86h213q72 0 86 -61l307 -1303q20 -86 -67 -86h-213q-70 0 -84 61z" />
<glyph unicode="]" horiz-adv-x="802" d="M-49 -156l26 148q12 70 78 69h135l195 1102h-127q-74 0 -61 70l24 147q12 70 78 70h434q74 0 62 -70l-271 -1536q-12 -70 -78 -69h-434q-73 -1 -61 69z" />
<glyph unicode="^" d="M138.5 725q-11.5 27 17.5 68l422 604q35 53 98 53h237q72 0 91 -53l208 -604q14 -41 -5 -68t-60 -27h-211q-68 0 -86 56l-111 333l-229 -333q-37 -55 -98 -56h-219q-43 0 -54.5 27z" />
<glyph unicode="_" horiz-adv-x="1126" d="M-88 -201l10 70q12 70 78 70h930q74 0 61 -70l-12 -70q-12 -69 -80 -69h-930q-70 0 -57 69z" />
<glyph unicode="`" horiz-adv-x="778" d="M254 1472q8 27 41 27h280q58 0 68 -47l41 -178q10 -53 -49 -53h-141q-55 0 -82 32l-150 172q-16 20 -8 47z" />
<glyph unicode="a" horiz-adv-x="1230" d="M18 252q0 86 25 152.5t59.5 110.5t99 76t118 48t141.5 26.5t144.5 13.5t152.5 5l6 31q2 10 2 20q0 37 -31 57q-39 26 -129 27q-135 0 -287 -53q-19 -7 -33 -7q-39 0 -46 50l-23 152q-1 7 -1 13q0 51 60 75q212 81 430 81h5q475 0 475 -323q0 -49 -8 -92l-115 -645 q-12 -70 -76 -70h-237q-59 0 -68 53l-8 60q-117 -129 -328 -129q-154 0 -241 69.5t-87 198.5zM432 328q0 -84 96 -84h2q152 0 179 151l14 84q-291 -6 -291 -151z" />
<glyph unicode="b" horiz-adv-x="1318" d="M31 70l231 1310q12 70 78 70h287q63 0 63 -51q0 -9 -2 -19l-65 -372q51 57 132 89.5t160 32.5q178 0 273.5 -102t95.5 -301q0 -90 -16 -178q-51 -291 -178 -432.5t-338 -141.5q-86 0 -179.5 39.5t-126.5 98.5l-26 -60q-23 -53 -78 -53h-250q-63 0 -63 51q0 9 2 19z M526 442q0 -143 117 -143q76 0 122 58.5t71 195.5q12 68 12 115q0 139 -115 139q-76 0 -122.5 -58.5t-71.5 -193.5q-12 -63 -13 -113z" />
<glyph unicode="c" horiz-adv-x="1089" d="M63 428q1 63 13 133q49 285 224 427t450 142q98 0 201.5 -23.5t150.5 -55.5q32 -22 32 -52q0 -21 -16 -47l-96 -155q-26 -41 -68 -41q-19 0 -41 8q-78 29 -153 29q-209 0 -252 -240q-8 -53 -8 -74q0 -166 178 -166q90 0 170 33q25 10 45 10q39 0 51 -43l43 -153 q3 -11 3 -22q0 -45 -54 -79q-137 -84 -346 -84q-244 0 -385.5 116t-141.5 337z" />
<glyph unicode="d" horiz-adv-x="1318" d="M61 369q0 82 19 184q100 577 515 577h1q84 0 172 -33.5t117 -88.5l65 372q12 70 78 70h287q63 0 63 -51q0 -9 -2 -19l-231 -1310q-12 -70 -78 -70h-250q-59 0 -65 53l-7 60q-55 -61 -143 -99.5t-170 -38.5q-180 0 -275.5 99.5t-95.5 294.5zM500 438q0 -139 114 -139 q76 0 123 59.5t72 194.5q12 66 12 113q0 141 -116 141q-76 0 -122 -58.5t-71 -195.5q-12 -68 -12 -115z" />
<glyph unicode="e" horiz-adv-x="1228" d="M63 428q0 61 13 129q49 276 219 424.5t432 148.5q221 0 346 -115.5t125 -314.5q0 -63 -10 -114l-19 -99q-12 -69 -80 -69h-2h-610v-17q10 -139 217 -139q135 0 279 60q19 8 34 8q38 0 46 -51l20 -127q1 -6 1 -11q0 -46 -60 -78q-172 -88 -391 -88q-266 0 -413 117 t-147 336zM498 639h329l2 14q6 35 7 60q0 131 -129 131q-80 0 -130.5 -49.5t-78.5 -155.5z" />
<glyph unicode="f" horiz-adv-x="835" d="M88 61l123 697h-64q-61 0 -61 50q0 8 2 19l27 160q14 70 78 70h69l12 67q33 186 136.5 266t302.5 80q127 0 192 -16q35 -8 48.5 -23.5t7.5 -48.5l-27 -143q-12 -72 -70 -72q-16 0 -39.5 2t-31.5 2q-53 0 -76 -18t-31 -63l-6 -33h147q64 0 64 -50q0 -9 -2 -20l-27 -160 q-12 -69 -78 -69h-2h-153l-123 -697q-12 -61 -80 -61h-274q-37 0 -53.5 15.5t-10.5 45.5z" />
<glyph unicode="g" horiz-adv-x="1261" d="M35 -96l67 151q24 50 65 50q15 0 32 -7q129 -49 264 -49q129 0 187.5 47t78.5 148l10 47q-106 -123 -278 -123q-168 0 -270.5 86t-102.5 264q0 59 12 129q86 479 471 479q94 0 173 -35.5t112 -97.5l27 60q25 53 75 53h242q66 0 66 -52q0 -8 -2 -18l-144 -809 q-84 -477 -647 -477q-109 0 -233.5 19.5t-176.5 46.5q-37 19 -37 52q0 17 9 36zM512 567q0 -125 106 -125q125 0 162 201q6 41 6 72q0 125 -106 125q-127 0 -160 -197q-8 -57 -8 -76z" />
<glyph unicode="h" horiz-adv-x="1288" d="M31 70l231 1310q12 70 78 70h287q63 0 63 -51q0 -9 -2 -19l-67 -383q121 133 317 133q156 0 229.5 -74.5t73.5 -230.5q0 -68 -16 -170l-105 -585q-12 -70 -78 -70h-286q-64 0 -64 52q0 8 2 18l99 555q6 39 6 69q0 88 -86 88q-129 0 -160 -168l-96 -544q-12 -70 -78 -70 h-287q-63 0 -63 51q0 9 2 19z" />
<glyph unicode="i" horiz-adv-x="647" d="M39 70l172 966q12 70 78 70h286q64 0 64 -52q0 -8 -2 -18l-172 -966q-12 -70 -78 -70h-287q-63 0 -63 51q0 9 2 19zM248 1272l18 108q12 70 78 70h295q63 0 63 -52q0 -8 -2 -18l-18 -108q-12 -70 -80 -70h-295q-61 0 -61 50q0 9 2 20z" />
<glyph unicode="j" horiz-adv-x="696" d="M-129 -156l31 168q8 59 65 60q10 0 27.5 -3t34.5 -3h1q58 0 72 79l158 891q12 70 78 70h287q63 0 63 -51q0 -9 -2 -19l-164 -930q-33 -188 -132 -270t-290 -82q-102 0 -176 19q-54 14 -54 57q0 6 1 14zM297 1272l18 108q12 70 78 70h295q64 0 64 -52q0 -8 -2 -18 l-19 -108q-12 -70 -80 -70h-295q-61 0 -61 50q0 9 2 20z" />
<glyph unicode="k" horiz-adv-x="1241" d="M31 70l231 1310q12 70 78 70h287q63 0 63 -51q0 -9 -2 -19l-104 -589l250 258q53 57 114 57h305q39 0 47 -28q2 -6 2 -11q0 -23 -26 -49l-424 -420l283 -510q11 -21 11 -39q0 -13 -5 -23q-12 -26 -47 -26h-283q-72 0 -104 57l-187 365l-63 -352q-12 -70 -76 -70h-287 q-65 0 -65 51q0 9 2 19z" />
<glyph unicode="l" horiz-adv-x="638" d="M35 70l231 1310q12 70 78 70h287q63 0 63 -52q0 -8 -2 -18l-231 -1310q-12 -70 -76 -70h-287q-65 0 -65 51q0 9 2 19z" />
<glyph unicode="m" horiz-adv-x="1890" d="M27 70l172 966q12 70 77 70h254q61 0 66 -53l10 -72q144 149 320 149h2q223 0 272 -157q149 157 358 157h3q286 0 286 -290q0 -68 -16 -162l-109 -608q-12 -70 -75 -70h-283q-66 0 -66 52q0 8 2 18l101 563q6 37 6 65q0 88 -78 88h-1q-117 0 -146 -163l-99 -553 q-12 -70 -75 -70h-279q-65 0 -65 51q0 9 2 19l100 563q8 53 8 69q0 84 -76 84q-61 0 -100 -45t-51 -118l-98 -553q-12 -70 -76 -70h-283q-65 0 -65 51q0 9 2 19z" />
<glyph unicode="n" horiz-adv-x="1284" d="M27 70l172 966q12 70 77 70h254q61 0 66 -53l10 -72q132 149 325 149h3q305 0 305 -303q0 -67 -16 -161l-107 -596q-12 -70 -78 -70h-286q-64 0 -64 52q0 8 2 18l98 555q6 39 7 69q0 88 -86 88q-129 0 -160 -168l-96 -544q-12 -70 -78 -70h-287q-63 0 -63 51q0 9 2 19z " />
<glyph unicode="o" horiz-adv-x="1269" d="M63 424q0 61 13 135q49 285 219 428t436 143q233 0 368.5 -115.5t135.5 -332.5q0 -61 -12 -135q-49 -285 -219.5 -428.5t-436.5 -143.5q-233 0 -368.5 116t-135.5 333zM496 431q0 -136 108 -136q74 0 118 60.5t69 197.5q12 70 12 119q0 139 -109 139q-74 0 -118 -60.5 t-68 -197.5q-12 -71 -12 -122z" />
<glyph unicode="p" horiz-adv-x="1314" d="M-12 -156l211 1192q12 70 77 70h250q62 0 66 -53l6 -60q55 61 143 99t170 38q178 0 273.5 -102t95.5 -301q0 -90 -16 -178q-51 -291 -178.5 -432.5t-337.5 -141.5q-84 0 -172.5 34t-116.5 89l-45 -254q-12 -69 -78 -69h-2h-287q-61 0 -61 50q0 8 2 19zM522 440 q0 -141 117 -141q76 0 122 58.5t70 195.5q12 68 13 115q0 139 -115 139q-76 0 -122.5 -59.5t-71.5 -194.5q-12 -66 -13 -113z" />
<glyph unicode="q" horiz-adv-x="1314" d="M63 381q0 90 17 178q51 291 178 431t338 140q192 0 305 -137l27 60q23 53 78 53h249q64 0 64 -52q0 -8 -2 -18l-211 -1192q-12 -69 -78 -69h-2h-287q-61 0 -61 50q0 8 2 19l45 254q-51 -57 -132 -90t-161 -33q-176 0 -272.5 103.5t-96.5 302.5zM500 438q0 -139 114 -139 q76 0 123 59.5t72 194.5q12 66 12 113q0 141 -116 141q-76 0 -122 -58.5t-71 -195.5q-12 -68 -12 -115z" />
<glyph unicode="r" horiz-adv-x="917" d="M27 70l172 966q11 70 77 70h254q59 0 64 -59l4 -107q53 74 142 128t188 54q58 0 58 -44q0 -9 -3 -21l-47 -279q-12 -55 -70 -55q-14 0 -41.5 3t-48.5 3q-100 0 -161.5 -51t-77.5 -141l-84 -467q-12 -70 -76 -70h-287q-65 0 -65 51q0 9 2 19z" />
<glyph unicode="s" horiz-adv-x="1024" d="M-2 125l63 135q24 50 67 50q14 0 30 -5q102 -33 202 -33q168 0 168 64q0 45 -131 88q-59 20 -101 39.5t-89 55.5t-72.5 90.5t-25.5 123.5q0 106 39.5 185t112.5 124t164 66.5t204 21.5q225 0 350 -55q38 -18 38 -52q0 -16 -9 -36l-62 -135q-24 -49 -69 -49q-13 0 -27 4 q-92 27 -191 27q-129 0 -129 -64q0 -49 138 -102q135 -51 207.5 -123t72.5 -189q0 -381 -545 -381q-229 0 -374 62q-40 17 -40 51q0 17 9 37z" />
<glyph unicode="t" horiz-adv-x="851" d="M76 827l26 160q14 70 78 70h74l43 241q12 61 80 62h266q37 0 53.5 -15.5t10.5 -46.5l-43 -241h159q64 0 64 -50q0 -9 -2 -20l-27 -160q-12 -69 -80 -69h-162l-67 -377q-2 -15 -2 -28q1 -29 13 -43q18 -20 71 -19q8 0 33.5 3t42.5 3q48 0 48 -49q0 -7 -1 -15l-31 -163 q-6 -33 -24.5 -48.5t-55.5 -23.5q-82 -18 -180 -18q-174 0 -260 60t-86 204q0 61 10 112l72 402h-64q-61 0 -61 50q0 8 2 19z" />
<glyph unicode="u" horiz-adv-x="1273" d="M68 262q0 49 14 139l113 635q12 70 77 70h287q64 0 64 -52q0 -8 -2 -18l-103 -575q-6 -37 -6 -64q0 -82 82 -82q129 0 158 164l98 557q12 70 78 70h286q64 0 64 -52q0 -8 -2 -18l-172 -966q-12 -70 -78 -70h-254q-57 0 -65 53l-11 72q-39 -63 -121.5 -106.5t-185.5 -43.5 q-160 0 -240.5 67t-80.5 220z" />
<glyph unicode="v" horiz-adv-x="1220" d="M121 1024q-6 37 10 59.5t53 22.5h285q74 0 76 -64l30 -374l13 -262h8l106 262l162 374q29 63 92 64h297q37 0 49.5 -23.5t-6.5 -58.5l-516 -969q-28 -55 -94 -55h-311q-70 0 -82 55z" />
<glyph unicode="w" horiz-adv-x="1818" d="M133 1024q-1 10 -1 18q0 64 65 64h288q76 0 76 -64l10 -397l-2 -219h6l82 219l177 404q24 57 81 57h193q66 0 70 -57l32 -404l4 -219h7l75 219l150 397q25 63 92 64h301q37 0 48 -23.5t-5 -58.5l-450 -956q-29 -68 -97 -68h-266q-78 0 -86 70l-31 329l-12 226h-8 l-90 -226l-150 -329q-31 -70 -102 -70h-266q-70 0 -80 68z" />
<glyph unicode="x" horiz-adv-x="1216" d="M-48 26q-1 5 -1 11q0 23 24 51l428 471l-253 459q-10 20 -10 37q0 13 6 25q14 26 49 26h282q80 0 105 -57l92 -211l166 211q43 57 116 57h283q37 0 44 -26q1 -5 1 -11q0 -23 -24 -51l-414 -459l260 -471q10 -20 10 -37q0 -13 -6 -25q-14 -26 -49 -26h-287q-80 0 -104 57 l-95 224l-180 -224q-43 -57 -116 -57h-283q-37 0 -44 26z" />
<glyph unicode="y" horiz-adv-x="1212" d="M4 -152l31 164q8 59 67 60q14 0 56.5 -5.5t77.5 -5.5q91 0 91 63q0 12 -3 26l-197 874q-8 37 7.5 59.5t51.5 22.5h289q72 0 78 -64l41 -395l16 -272h8l93 272l147 395q25 63 90 64h293q37 0 50 -23.5t-3 -58.5l-442 -901q-55 -115 -92 -173.5t-95.5 -109.5t-134 -68.5 t-194.5 -17.5q-188 0 -271 23q-35 8 -48 23.5t-7 47.5z" />
<glyph unicode="z" horiz-adv-x="1126" d="M-2 70l27 143q8 47 47 86l534 479h-389q-63 0 -63 51q0 9 2 19l34 188q12 70 78 70h815q64 0 64 -52q0 -8 -2 -18l-27 -143q-10 -51 -57 -96l-522 -469h422q61 0 61 -50q0 -9 -2 -20l-35 -188q-12 -70 -76 -70h-848q-65 0 -65 51q0 9 2 19z" />
<glyph unicode="{" horiz-adv-x="802" d="M41 522l33 180q12 70 82 70h26q49 0 83 56.5t59 201.5q45 256 132 338t298 82h114q70 0 58 -70l-25 -147q-12 -70 -82 -70h-28q-43 0 -63.5 -41t-39.5 -145q-59 -322 -260 -365q143 -31 143 -229q0 -63 -12 -137q-14 -90 -14 -119q0 -66 51 -66h29q70 0 57 -69l-27 -148 q-12 -70 -82 -69h-114q-168 0 -235.5 47t-67.5 180q0 82 20 193q16 84 17 151q0 106 -68 107h-27q-69 -1 -57 69z" />
<glyph unicode="|" horiz-adv-x="720" d="M184 -156v1577q0 70 70 70h213q70 0 70 -70v-1577q0 -70 -70 -69h-213q-70 0 -70 69z" />
<glyph unicode="}" horiz-adv-x="802" d="M-74 -156l27 148q12 70 82 69h28q43 0 63.5 40t37.5 143q59 326 260 368q-143 33 -143 228q0 68 14 139q14 90 14 119q0 66 -51 65h-29q-70 0 -57 70l25 147q12 70 82 70h114q168 0 235.5 -47t67.5 -180q0 -82 -20 -193q-16 -102 -17 -151q0 -106 68 -107h27q69 0 57 -70 l-33 -180q-12 -70 -82 -69h-26q-49 0 -82 -56.5t-60 -201.5q-45 -256 -132 -338t-298 -82h-114q-70 0 -58 69z" />
<glyph unicode="~" d="M127 690q31 135 110.5 218t200.5 83q113 0 213 -55l94 -51q53 -31 103 -31q72 0 104 64l17 28q14 29 42.5 36t57.5 -9l117 -68q29 -16 39 -38.5t-2 -73.5q-29 -127 -109 -208t-201 -81q-113 0 -213 55l-94 51q-55 31 -104 31q-68 0 -105 -63l-14 -29q-14 -29 -43 -36 t-59 9l-117 68q-51 31 -37 100z" />
<glyph unicode="&#xa1;" horiz-adv-x="692" d="M-35 -270l223 825q19 63 82 63h197q37 0 53.5 -15t11.5 -48l-67 -825q-6 -74 -82 -74h-356q-80 0 -62 74zM190 784l46 252q12 70 77 70h283q73 0 61 -70l-45 -252q-12 -68 -86 -67h-270q-78 0 -66 67z" />
<glyph unicode="&#xa2;" horiz-adv-x="1146" d="M68 432q0 59 12 127q45 254 200.5 400.5t389.5 162.5l20 119q12 70 78 70h115q74 0 61 -70l-20 -119q152 -23 223 -71q55 -37 16 -99l-100 -155q-37 -59 -109 -33q-78 29 -166 29q-233 0 -276 -240q-6 -37 -6 -70q0 -170 201 -170q102 0 182 33q78 31 96 -33l47 -153 q16 -59 -51 -101q-94 -55 -258 -75l-21 -119q-12 -70 -79 -70h-115q-72 0 -59 70l20 121q-184 25 -292.5 139.5t-108.5 306.5z" />
<glyph unicode="&#xa3;" horiz-adv-x="1355" d="M51 211q-31 59 31 94q121 68 181 147.5t42 190.5h-162q-53 0 -43 49l15 76q8 49 53 49h76q-20 61 -21 129q0 258 182.5 393.5t444.5 135.5q248 0 374 -97.5t126 -269.5q0 -45 -5.5 -74.5t-26 -54.5t-56.5 -25h-263q-51 0 -51 33q0 16 6.5 41t6.5 37q0 70 -130 70 q-188 0 -188 -230q0 -31 8 -88h307q55 0 46 -49l-15 -76q-10 -49 -55 -49h-256q6 -115 -34 -180.5t-142 -130.5q66 16 125 16q39 0 101.5 -12t92.5 -12q102 0 129 100q16 59 88 59h189q82 0 67 -86q-37 -211 -116.5 -312t-259.5 -101q-88 0 -221.5 31.5t-204.5 31.5 q-131 0 -232 -39q-86 -35 -104 2z" />
<glyph unicode="&#xa4;" d="M188 581.5q0 139.5 72 245.5l-67 68q-35 35 0 70l49 47q37 33 69 0l66 -68q111 72 250 72t250 -72l65 68q33 33 70 0l49 -47q35 -35 0 -70l-68 -68q72 -106 72 -245.5t-72 -245.5l68 -68q35 -35 0 -69l-49 -47q-37 -33 -70 0l-65 67q-111 -72 -250.5 -72t-249.5 72 l-66 -67q-33 -33 -69 0l-49 47q-35 34 0 69l67 68q-72 106 -72 245.5zM457 582q0 -80 46 -131.5t124 -51.5t124 51.5t46 131.5t-46 131t-124 51t-124 -51t-46 -131z" />
<glyph unicode="&#xa5;" horiz-adv-x="1355" d="M113 365l12 75q10 49 55 49h279l4 25l-35 104h-219q-53 0 -43 50l14 75q6 49 56 50h137l-187 565q-12 35 6.5 63.5t55.5 28.5h311q76 0 92 -68l94 -508h9l274 508q37 68 105 68h311q37 0 49 -28.5t-12 -63.5l-383 -565h133q49 0 43 -50l-14 -75q-10 -49 -56 -50h-225 l-70 -104l-4 -25h271q53 0 43 -49l-13 -75q-10 -49 -55 -50h-277l-43 -241q-14 -74 -83 -74h-299q-78 0 -64 74l43 241h-272q-53 0 -43 50z" />
<glyph unicode="&#xa6;" horiz-adv-x="720" d="M184 -156v553q0 70 70 70h213q70 0 70 -70v-553q0 -70 -70 -69h-213q-70 0 -70 69zM184 868v553q0 70 70 70h213q70 0 70 -70v-553q0 -70 -70 -69h-213q-70 0 -70 69z" />
<glyph unicode="&#xa7;" horiz-adv-x="1331" d="M18 -92l66 143q31 66 96 43q106 -37 307 -37q236 0 236 74q0 23 -12.5 40t-49 34.5t-54 25t-79.5 27.5q-92 33 -147 54.5t-117.5 54t-95.5 64.5t-55.5 76t-22.5 97q0 100 59.5 178t161.5 113q-68 80 -67 190q0 389 571 390q287 0 434 -66q57 -27 29 -88l-66 -143 q-29 -61 -96 -43q-113 33 -272 32q-186 0 -187 -80q0 -23 12.5 -39t49.5 -33.5t55.5 -23.5t77.5 -26q211 -74 317.5 -156t106.5 -209q0 -96 -55.5 -156.5t-161.5 -119.5q80 -70 80 -191q0 -113 -60.5 -192.5t-163 -118.5t-205 -55.5t-218.5 -16.5q-287 0 -445 70 q-57 27 -29 88zM512 651q0 -49 69.5 -88t229.5 -92q43 37 43 98q0 49 -69.5 88.5t-229.5 92.5q-43 -37 -43 -99z" />
<glyph unicode="&#xa8;" horiz-adv-x="778" d="M133 1290l19 109q12 70 77 69h205q74 1 62 -69l-19 -109q-12 -70 -80 -69h-204q-72 0 -60 69zM592 1290l18 109q12 70 78 69h205q73 1 61 -69l-18 -109q-12 -70 -80 -69h-205q-72 0 -59 69z" />
<glyph unicode="&#xa9;" horiz-adv-x="1814" d="M123 725q0 207 87 374t268 271.5t429 104.5t429.5 -104.5t268.5 -271.5t87 -374t-87 -374t-268.5 -271.5t-429.5 -104.5t-429 104.5t-268 271.5t-87 374zM317 725q0 -254 150.5 -412.5t439.5 -158.5q287 0 438.5 158.5t151.5 410.5q0 254 -150.5 413.5t-439.5 159.5 t-439.5 -158.5t-150.5 -412.5zM487 735q0 215 119 324.5t330 109.5q164 0 264 -59q45 -27 25 -74l-54 -125q-20 -43 -77 -24q-61 20 -119 20q-147 0 -148 -172q0 -170 150 -170q61 0 123 25q57 23 78 -25l53 -125q10 -31 5 -44t-30 -29q-90 -63 -268 -64q-211 0 -331 109.5 t-120 322.5z" />
<glyph unicode="&#xaa;" horiz-adv-x="999" d="M182 1219q0 68 19.5 120t47 86.5t80 58t92.5 36t112.5 19.5t113.5 8t121 3l4 25q6 39 -17.5 59.5t-86.5 20.5q-90 0 -236 -47q-68 -20 -76 39l-18 118q-8 51 55 76q166 66 342 66q383 0 383 -267q0 -33 -6 -69l-88 -502q-12 -61 -74 -61h-182q-51 0 -59 45l-7 28 q-102 -88 -260 -88q-109 0 -184.5 61.5t-75.5 164.5zM524 1276q0 -68 76 -68q109 0 129 117l10 59q-135 -4 -178 -32q-37 -27 -37 -76z" />
<glyph unicode="&#xab;" horiz-adv-x="1200" d="M80 616q0 10 14 31l217 291q35 47 88 47h240q35 0 44 -20.5t-13 -49.5l-228 -301l121 -301q12 -29 -2 -49t-47 -20h-240q-57 0 -75 47l-115 291q-8 18 -4 34zM598 612q4 18 16 35l217 291q35 47 89 47h239q35 0 44 -20.5t-13 -49.5l-227 -301l120 -301q12 -29 -2 -49 t-47 -20h-239q-57 0 -76 47l-115 291q-6 14 -6 30z" />
<glyph unicode="&#xac;" horiz-adv-x="1331" d="M129 621l35 200q12 70 78 70h954q73 0 61 -70l-98 -555q-12 -72 -80 -71h-286q-72 0 -60 69l51 287h-596q-72 0 -59 70z" />
<glyph unicode="&#xad;" horiz-adv-x="835" d="M82 496l35 192q12 70 78 70h540q74 0 62 -68l-35 -194q-12 -70 -80 -70h-541q-72 0 -59 70z" />
<glyph unicode="&#xae;" horiz-adv-x="983" d="M106 1112q0 154 102.5 258.5t283 104.5t283 -104.5t102.5 -258.5t-102.5 -258t-283 -104t-283 104t-102.5 258zM201 1112q0 -123 73.5 -199.5t217 -76.5t217 76.5t73.5 199.5t-73.5 200t-217 77t-217 -77t-73.5 -200zM334 944v346q0 29 28 29h142q184 0 184 -145 q0 -82 -76 -119l70 -109q6 -12 2 -21.5t-16 -9.5h-84q-25 0 -37 21l-53 98h-25v-90q0 -29 -29 -29h-78q-28 0 -28 29zM469 1133h33q51 0 51 41q0 43 -51 43h-33v-84z" />
<glyph unicode="&#xaf;" horiz-adv-x="778" d="M145 1294l17 97q12 66 74 65h647q70 0 57 -65l-16 -97q-13 -65 -76 -65h-647q-68 0 -56 65z" />
<glyph unicode="&#xb0;" horiz-adv-x="811" d="M176 1100q0 154 116 260t281 106q129 0 215 -76.5t86 -193.5q0 -154 -115.5 -261.5t-281.5 -107.5q-129 0 -215 77t-86 196zM373 1124q0 -53 38 -88t93 -35q68 0 120 48.5t52 119.5q0 53 -37 88t-92 35q-66 0 -120 -48t-54 -120z" />
<glyph unicode="&#xb1;" d="M31 70l20 110q12 70 78 70h909q74 0 62 -70l-21 -110q-12 -70 -78 -70h-909q-74 0 -61 70zM154 762l34 192q12 70 78 70h269l40 231q12 70 78 70h242q74 0 61 -70l-41 -231h261q74 0 61 -70l-35 -192q-12 -70 -80 -70h-266l-41 -231q-12 -70 -80 -70h-241q-72 0 -60 70 l41 231h-262q-72 0 -59 70z" />
<glyph unicode="&#xb2;" horiz-adv-x="897" d="M180 1071l17 94q6 31 55 58q438 225 438 401q0 55 -63 55q-88 0 -88 -104q0 -47 -56 -47h-155q-55 0 -56 51q0 160 112 244t275 84q170 0 255 -66.5t85 -183.5q0 -125 -110.5 -233.5t-257.5 -186.5h254q31 0 46 -17.5t11 -45.5l-18 -103q-12 -63 -74 -63h-617 q-66 0 -53 63z" />
<glyph unicode="&#xb3;" horiz-adv-x="897" d="M199 1128l57 101q33 57 90 31q82 -39 193 -39q47 0 76.5 22.5t29.5 65.5q0 47 -72 47h-108q-66 0 -53 63l12 72q10 63 70 63h106q90 0 90 76q0 53 -88 53q-94 0 -186 -38q-63 -27 -76 28l-23 105q-8 49 43 69q137 59 308 60q143 0 237 -53.5t94 -157.5q0 -76 -42 -139.5 t-109 -92.5q100 -49 100 -153q0 -158 -113.5 -238t-273.5 -80q-221 0 -340 64q-49 25 -22 71z" />
<glyph unicode="&#xb4;" horiz-adv-x="778" d="M375 1236q-10 15 0 38l98 178q23 47 72 47h293q20 0 30.5 -13t6 -30.5t-20.5 -30.5l-199 -172q-39 -33 -84 -32h-157q-29 0 -39 15z" />
<glyph unicode="&#xb5;" horiz-adv-x="1273" d="M-12 -156l211 1192q12 70 77 70h287q74 0 62 -70l-99 -557q-29 -164 101 -164q59 0 84.5 35t40.5 111l102 575q12 70 78 70h287q73 0 61 -70l-117 -661q-39 -217 -134 -308.5t-279 -91.5q-106 0 -185.5 43t-109.5 107l-43 -285q-12 -66 -80 -65h-285q-72 0 -59 69z" />
<glyph unicode="&#xb6;" horiz-adv-x="1191" d="M170 899q2 238 158.5 394.5t406.5 156.5h494q74 0 61 -70l-10 -57q-12 -70 -78 -70h-69q-55 0 -80 -23.5t-35 -80.5l-197 -1108q-27 -152 -84 -215.5t-211 -63.5q-125 0 -176 33q-31 20 -24 53l14 78q6 39 51 39q12 0 41 -3t45 -3q74 0 94 111l80 446h-39 q-193 0 -318.5 100.5t-123.5 282.5z" />
<glyph unicode="&#xb7;" horiz-adv-x="569" d="M78 463l45 252q12 68 84 67h254q80 0 67 -67l-45 -252q-12 -70 -77 -70h-267q-73 0 -61 70z" />
<glyph unicode="&#xb8;" horiz-adv-x="778" d="M113 -328l16 88q6 39 49 39h68q39 0 69.5 19.5t30.5 54.5q0 88 -143 147h119q94 -18 163.5 -78.5t69.5 -136.5q0 -100 -78 -146t-192 -46q-94 0 -142 16q-37 10 -30 43z" />
<glyph unicode="&#xb9;" horiz-adv-x="897" d="M326 1665q-20 39 20 64l242 141q33 23 82 22h176q68 0 55 -63l-133 -758q-12 -63 -74 -63h-176q-66 0 -53 63l94 531l-115 -48q-55 -23 -73 13z" />
<glyph unicode="&#xba;" horiz-adv-x="1024" d="M215 1348q0 41 10 106q82 453 525 453q188 0 295.5 -89t107.5 -262q0 -45 -10 -110q-39 -227 -174 -340t-348 -113q-188 0 -297 90.5t-109 264.5zM565 1364q0 -109 86 -109q57 0 91 45.5t53 149.5q8 47 8 88q0 107 -84 107q-57 0 -92 -46.5t-54 -148.5q-8 -43 -8 -86z " />
<glyph unicode="&#xbb;" horiz-adv-x="1200" d="M46 264.5q-9 20.5 13 48.5l228 301l-121 301q-10 31 2 50.5t45 19.5h240q61 0 79 -47l115 -291q8 -19 4 -33q0 -12 -14 -32l-217 -291q-35 -47 -92 -47h-240q-33 0 -42 20.5zM566 264.5q-9 20.5 14 48.5l227 301l-121 301q-10 31 2 50.5t45 19.5h240q61 0 80 -47 l114 -291q8 -19 4 -33q0 -12 -14 -32l-217 -291q-35 -47 -92 -47h-240q-33 0 -42 20.5z" />
<glyph unicode="&#xbc;" horiz-adv-x="2088" d="M248 1223q-20 39 20 63l242 141q35 23 82 23h176q68 0 55 -64l-133 -757q-12 -63 -74 -64h-176q-66 0 -53 64l94 530l-114 -47q-55 -23 -74 12zM479 70l987 1310q51 70 111 70h152q79 0 28 -70l-987 -1310q-51 -70 -113 -70h-151q-78 0 -27 70zM1184 217l20 121 q4 31 33 63l461 451q35 31 71 31h179q68 0 55 -64l-76 -426h49q70 0 58 -63l-19 -103q-10 -63 -71 -63h-56l-18 -103q-12 -63 -74 -63h-172q-66 0 -53 63l18 103h-350q-33 0 -46 13t-9 40zM1450 393h178l37 209z" />
<glyph unicode="&#xbd;" horiz-adv-x="2088" d="M248 1225q-20 39 20 63l242 142q35 23 82 22h176q68 0 55 -63l-133 -758q-12 -63 -74 -64h-176q-66 0 -53 64l94 530l-114 -47q-55 -23 -74 12zM418 70l987 1310q51 70 111 70h151q80 0 29 -70l-987 -1310q-51 -70 -113 -70h-152q-78 0 -26 70zM1214 61q-12 -63 54 -63 h616q61 0 74 63l18 103q4 29 -11 46t-46 17h-254q147 78 258 186.5t111 233.5q0 117 -85 183.5t-255 66.5q-164 0 -275.5 -84t-111.5 -244q0 -51 55 -51h156q55 0 55 47q0 104 88 105q63 0 63 -56q0 -176 -438 -401q-49 -27 -55 -57z" />
<glyph unicode="&#xbe;" horiz-adv-x="2088" d="M121 686l57 100q33 57 90 31q82 -39 193 -39q47 0 76.5 22.5t29.5 65.5q1 47 -71 47h-109q-66 0 -53 64l12 72q10 63 70 63h106q90 0 90 76q0 53 -88 53q-94 0 -186 -39q-63 -27 -76 29l-22 104q-8 49 43 70q137 59 307 59q143 0 237.5 -53t94.5 -158q0 -76 -42 -139 t-110 -92q100 -49 100 -154q0 -158 -113.5 -237.5t-273.5 -79.5q-221 0 -340 63q-49 25 -22 72zM506 70l987 1310q51 70 111 70h151q80 0 29 -70l-987 -1310q-51 -70 -113 -70h-152q-78 0 -26 70zM1184 217l20 121q4 31 33 63l461 451q35 31 71 31h179q68 0 55 -64l-76 -426 h49q70 0 58 -63l-19 -103q-10 -63 -71 -63h-56l-18 -103q-12 -63 -74 -63h-172q-66 0 -53 63l18 103h-350q-33 0 -46 13t-9 40zM1450 393h178l37 209z" />
<glyph unicode="&#xbf;" horiz-adv-x="1085" d="M-25 -61q0 -145 129 -225.5t351 -80.5q231 0 450 91q72 31 58 98l-39 174q-14 72 -90 41q-139 -53 -279 -53q-135 0 -135 75q0 68 55 136.5t122 117.5t126 109.5t65 112.5l3 16q8 68 -64 67h-244q-72 1 -82 -67l-2 -16q-4 -35 -50 -76t-106.5 -87t-122 -102.5 t-103.5 -143.5t-42 -187zM436 784l45 252q12 70 78 70h283q73 0 61 -70l-45 -254q-12 -66 -86 -65h-270q-78 0 -66 67z" />
<glyph unicode="&#xc0;" horiz-adv-x="1445" d="M-48 24.5q-13 24.5 7 63.5l653 1296q32 66 95 66h368q70 0 82 -66l195 -1296q6 -41 -12.5 -64.5t-55.5 -23.5h-305q-76 0 -82 68l-16 157h-392l-71 -157q-31 -68 -99 -68h-317q-37 0 -50 24.5zM617 1807q8 28 40 28h295q60 0 70 -49l35 -180q6 -53 -51 -54h-158 q-55 0 -82 33l-139 174q-18 20 -10 48zM623 590h247l-41 422h-6z" />
<glyph unicode="&#xc1;" horiz-adv-x="1445" d="M-48 24.5q-13 24.5 7 63.5l653 1296q32 66 95 66h368q70 0 82 -66l195 -1296q6 -41 -12.5 -64.5t-55.5 -23.5h-305q-76 0 -82 68l-16 157h-392l-71 -157q-31 -68 -99 -68h-317q-37 0 -50 24.5zM623 590h247l-41 422h-6zM787.5 1567.5q-8.5 15.5 3.5 38.5l96 180 q29 49 78 49h295q33 0 35.5 -27.5t-21.5 -48.5l-201 -174q-39 -33 -90 -33h-158q-29 0 -37.5 15.5z" />
<glyph unicode="&#xc2;" horiz-adv-x="1445" d="M-48 24.5q-13 24.5 7 63.5l653 1296q32 66 95 66h368q70 0 82 -66l195 -1296q6 -41 -12.5 -64.5t-55.5 -23.5h-305q-76 0 -82 68l-16 157h-392l-71 -157q-31 -68 -99 -68h-317q-37 0 -50 24.5zM551 1573.5q-6 21.5 16 42.5l226 217q27 27 45 35t55 8h147q63 0 93 -43 l151 -217q14 -20 1 -42t-42 -22h-110q-33 0 -68 31l-123 111l-160 -111q-43 -31 -75 -31h-119q-31 0 -37 21.5zM623 590h247l-41 422h-6z" />
<glyph unicode="&#xc3;" horiz-adv-x="1445" d="M-48 24.5q-13 24.5 7 63.5l653 1296q32 66 95 66h368q70 0 82 -66l195 -1296q6 -41 -12.5 -64.5t-55.5 -23.5h-305q-76 0 -82 68l-16 157h-392l-71 -157q-31 -68 -99 -68h-317q-37 0 -50 24.5zM516 1634q16 98 77.5 154.5t154.5 56.5q84 0 155 -28l103 -43q47 -20 88 -21 q49 0 59 31l4 12q16 43 68 43h86q63 0 49 -94q-37 -199 -223 -199q-90 0 -162 29l-103 43q-47 20 -90 20q-49 0 -57 -30l-4 -13q-16 -43 -68 -43h-86q-35 0 -47 17.5t-4 64.5zM623 590h247l-41 422h-6z" />
<glyph unicode="&#xc4;" horiz-adv-x="1445" d="M-48 24.5q-13 24.5 7 63.5l653 1296q32 66 95 66h368q70 0 82 -66l195 -1296q6 -41 -12.5 -64.5t-55.5 -23.5h-305q-76 0 -82 68l-16 157h-392l-71 -157q-31 -68 -99 -68h-317q-37 0 -50 24.5zM520 1622l19 109q14 70 77 69h209q76 1 62 -69l-19 -109q-12 -70 -80 -70 h-208q-72 0 -60 70zM623 590h247l-41 422h-6zM983 1622l18 109q14 70 78 69h209q76 1 62 -69l-19 -109q-12 -70 -80 -70h-209q-72 0 -59 70z" />
<glyph unicode="&#xc5;" horiz-adv-x="1445" d="M-48 24.5q-13 24.5 7 63.5l653 1296q23 43 43 56q-14 31 -14 78q0 121 87 202.5t214 81.5q102 0 173 -60.5t71 -150.5t-51 -159q16 -16 22 -48l195 -1296q6 -41 -12.5 -64.5t-55.5 -23.5h-305q-76 0 -82 68l-16 157h-392l-71 -157q-31 -68 -99 -68h-317q-37 0 -50 24.5z M623 590h247l-41 422h-6zM803 1540q0 -37 25.5 -61.5t62.5 -28.5h16q47 4 82 37t35 82q0 39 -27.5 64.5t-68.5 25.5q-49 0 -87 -34t-38 -85z" />
<glyph unicode="&#xc6;" horiz-adv-x="1875" d="M-67.5 24.5q-12.5 24.5 8.5 63.5l696 1296q18 35 38.5 50.5t57.5 15.5h1155q74 0 62 -74l-35 -221q-12 -74 -84 -74h-453l-30 -170h415q76 0 64 -73l-37 -207q-12 -72 -82 -72h-422l-35 -190h459q78 0 66 -74l-39 -221q-14 -74 -84 -74h-828q-78 0 -63 74l26 151h-311 l-76 -157q-33 -68 -100 -68h-319q-37 0 -49.5 24.5zM623 590h229l88 491h-66z" />
<glyph unicode="&#xc7;" horiz-adv-x="1300" d="M96 530q0 90 19 195q133 750 800 750q135 0 248 -32t174 -77q31 -23 36 -42t-15 -56l-117 -183q-23 -37 -47.5 -44t-63.5 12q-82 37 -190 37q-168 0 -253 -82t-120 -283q-14 -90 -14 -133q0 -125 64.5 -178.5t203.5 -53.5q100 0 209 41q45 16 66.5 9t31.5 -41l54 -185 q10 -33 -2.5 -54t-51.5 -44q-186 -111 -426 -111h-8q117 -68 117 -165q0 -106 -82 -161t-201 -55q-100 0 -149 17q-35 12 -31 45l17 92q6 41 51 41h71q104 0 105 80q0 76 -109 131q-387 100 -387 530z" />
<glyph unicode="&#xc8;" horiz-adv-x="1191" d="M37 74l229 1302q12 74 82 74h856q78 0 66 -74l-39 -221q-12 -74 -84 -74h-494l-30 -170h456q76 0 64 -73l-37 -207q-12 -72 -82 -72h-463l-35 -190h500q78 0 66 -74l-39 -221q-14 -74 -84 -74h-869q-78 0 -63 74zM531 1807q8 28 40 28h295q60 0 70 -49l35 -180 q6 -53 -51 -54h-158q-55 0 -82 33l-139 174q-18 20 -10 48z" />
<glyph unicode="&#xc9;" horiz-adv-x="1191" d="M37 74l229 1302q12 74 82 74h856q78 0 66 -74l-39 -221q-12 -74 -84 -74h-494l-30 -170h456q76 0 64 -73l-37 -207q-12 -72 -82 -72h-463l-35 -190h500q78 0 66 -74l-39 -221q-14 -74 -84 -74h-869q-78 0 -63 74zM660.5 1567.5q-8.5 15.5 3.5 38.5l96 180q29 49 78 49 h295q33 0 35.5 -27.5t-21.5 -48.5l-201 -174q-39 -33 -90 -33h-158q-29 0 -37.5 15.5z" />
<glyph unicode="&#xca;" horiz-adv-x="1191" d="M37 74l229 1302q12 74 82 74h856q78 0 66 -74l-39 -221q-12 -74 -84 -74h-494l-30 -170h456q76 0 64 -73l-37 -207q-12 -72 -82 -72h-463l-35 -190h500q78 0 66 -74l-39 -221q-14 -74 -84 -74h-869q-78 0 -63 74zM444 1573.5q-6 21.5 17 42.5l225 217q27 27 45.5 35 t54.5 8h148q63 0 92 -43l152 -217q14 -20 0.5 -42t-41.5 -22h-111q-33 0 -68 31l-122 111l-160 -111q-43 -31 -76 -31h-119q-31 0 -37 21.5z" />
<glyph unicode="&#xcb;" horiz-adv-x="1191" d="M37 74l229 1302q12 74 82 74h856q78 0 66 -74l-39 -221q-12 -74 -84 -74h-494l-30 -170h456q76 0 64 -73l-37 -207q-12 -72 -82 -72h-463l-35 -190h500q78 0 66 -74l-39 -221q-14 -74 -84 -74h-869q-78 0 -63 74zM414 1622l18 109q14 70 78 69h209q75 1 61 -69l-18 -109 q-12 -70 -80 -70h-209q-72 0 -59 70zM877 1622l18 109q14 70 78 69h209q75 1 61 -69l-18 -109q-12 -70 -80 -70h-209q-72 0 -59 70z" />
<glyph unicode="&#xcc;" horiz-adv-x="675" d="M45 74l229 1302q12 74 82 74h299q78 0 66 -74l-229 -1302q-14 -74 -84 -74h-299q-78 0 -64 74zM252 1807q8 28 41 28h295q59 0 69 -49l35 -180q6 -53 -51 -54h-158q-55 0 -82 33l-139 174q-18 20 -10 48z" />
<glyph unicode="&#xcd;" horiz-adv-x="675" d="M45 74l229 1302q12 74 82 74h299q78 0 66 -74l-229 -1302q-14 -74 -84 -74h-299q-78 0 -64 74zM402.5 1567.5q-8.5 15.5 3.5 38.5l96 180q29 49 78 49h294q33 0 36 -27.5t-21 -48.5l-201 -174q-39 -33 -90 -33h-158q-29 0 -37.5 15.5z" />
<glyph unicode="&#xce;" horiz-adv-x="675" d="M45 74l229 1302q12 74 82 74h299q78 0 66 -74l-229 -1302q-14 -74 -84 -74h-299q-78 0 -64 74zM166 1573.5q-6 21.5 16 42.5l226 217q27 27 45 35t55 8h147q63 0 93 -43l151 -217q14 -20 1 -42t-42 -22h-110q-33 0 -68 31l-123 111l-160 -111q-43 -31 -75 -31h-119 q-31 0 -37 21.5z" />
<glyph unicode="&#xcf;" horiz-adv-x="675" d="M45 74l229 1302q12 74 82 74h299q78 0 66 -74l-229 -1302q-14 -74 -84 -74h-299q-78 0 -64 74zM135 1622l19 109q14 70 77 69h209q76 1 62 -69l-19 -109q-12 -70 -80 -70h-208q-72 0 -60 70zM598 1622l18 109q14 70 78 69h209q76 1 62 -69l-19 -109q-12 -70 -80 -70h-209 q-72 0 -59 70z" />
<glyph unicode="&#xd0;" horiz-adv-x="1421" d="M39 672l20 108q10 49 58 49h57l96 547q12 74 82 74h441q311 0 465.5 -128t154.5 -400q0 -100 -16 -197q-61 -381 -258 -553t-564 -172h-471q-78 0 -63 74l96 549h-57q-51 0 -41 49zM543 385h63q150 0 227.5 72.5t112.5 267.5q14 90 15 133q0 115 -56.5 161t-179.5 46h-63 l-41 -236h159q51 0 41 -49l-20 -108q-10 -49 -58 -49h-159z" />
<glyph unicode="&#xd1;" horiz-adv-x="1449" d="M37 74l229 1302q12 74 82 74h285q68 0 84 -45l246 -655l110 626q12 74 82 74h283q77 0 65 -74l-229 -1302q-14 -74 -84 -74h-285q-63 0 -84 45l-243 655l-111 -626q-14 -74 -84 -74h-283q-78 0 -63 74zM518 1634q16 98 77.5 154.5t154.5 56.5q84 0 155 -28l103 -43 q47 -20 88 -21q51 0 59 31l4 12q16 43 68 43h86q63 0 49 -94q-37 -199 -223 -199q-90 0 -162 29l-103 43q-47 20 -90 20q-49 0 -57 -30l-4 -13q-16 -43 -68 -43h-86q-35 0 -47 17.5t-4 64.5z" />
<glyph unicode="&#xd2;" horiz-adv-x="1474" d="M94 518q0 102 21 211q133 746 778 746q270 0 423.5 -134.5t153.5 -410.5q0 -100 -20 -209q-133 -745 -780 -746q-270 0 -423 134.5t-153 408.5zM551 563q0 -207 166 -207q109 0 177.5 86t102.5 283q16 102 17 162q0 207 -166 207q-109 0 -177.5 -86t-103.5 -283 q-16 -102 -16 -162zM631 1807q8 28 41 28h295q59 0 69 -49l35 -180q6 -53 -51 -54h-158q-55 0 -82 33l-139 174q-18 20 -10 48z" />
<glyph unicode="&#xd3;" horiz-adv-x="1474" d="M94 518q0 102 21 211q133 746 778 746q270 0 423.5 -134.5t153.5 -410.5q0 -100 -20 -209q-133 -745 -780 -746q-270 0 -423 134.5t-153 408.5zM551 563q0 -207 166 -207q109 0 177.5 86t102.5 283q16 102 17 162q0 207 -166 207q-109 0 -177.5 -86t-103.5 -283 q-16 -102 -16 -162zM802 1567.5q-9 15.5 3 38.5l96 180q29 49 78 49h295q33 0 36 -27.5t-22 -48.5l-201 -174q-39 -33 -90 -33h-157q-29 0 -38 15.5z" />
<glyph unicode="&#xd4;" horiz-adv-x="1474" d="M94 518q0 102 21 211q133 746 778 746q270 0 423.5 -134.5t153.5 -410.5q0 -100 -20 -209q-133 -745 -780 -746q-270 0 -423 134.5t-153 408.5zM551 563q0 -207 166 -207q109 0 177.5 86t102.5 283q16 102 17 162q0 207 -166 207q-109 0 -177.5 -86t-103.5 -283 q-16 -102 -16 -162zM565 1573.5q-6 21.5 17 42.5l225 217q27 27 45 35t55 8h148q63 0 92 -43l151 -217q14 -20 1 -42t-42 -22h-110q-33 0 -68 31l-123 111l-159 -111q-43 -31 -76 -31h-119q-31 0 -37 21.5z" />
<glyph unicode="&#xd5;" horiz-adv-x="1474" d="M94 518q0 102 21 211q133 746 778 746q270 0 423.5 -134.5t153.5 -410.5q0 -100 -20 -209q-133 -745 -780 -746q-270 0 -423 134.5t-153 408.5zM530 1634q16 98 78 154.5t154 56.5q84 0 156 -28l102 -43q47 -20 88 -21q51 0 59 31l4 12q16 43 68 43h86q63 0 49 -94 q-37 -199 -223 -199q-90 0 -162 29l-102 43q-47 20 -90 20q-49 0 -58 -30l-4 -13q-16 -43 -67 -43h-86q-35 0 -47.5 17.5t-4.5 64.5zM551 563q0 -207 166 -207q109 0 177.5 86t102.5 283q16 102 17 162q0 207 -166 207q-109 0 -177.5 -86t-103.5 -283q-16 -102 -16 -162z " />
<glyph unicode="&#xd6;" horiz-adv-x="1474" d="M94 518q0 102 21 211q133 746 778 746q270 0 423.5 -134.5t153.5 -410.5q0 -100 -20 -209q-133 -745 -780 -746q-270 0 -423 134.5t-153 408.5zM535 1622l18 109q14 70 78 69h209q75 1 61 -69l-18 -109q-12 -70 -80 -70h-209q-72 0 -59 70zM551 563q0 -207 166 -207 q109 0 177.5 86t102.5 283q16 102 17 162q0 207 -166 207q-109 0 -177.5 -86t-103.5 -283q-16 -102 -16 -162zM997 1622l19 109q14 70 78 69h209q75 1 61 -69l-18 -109q-12 -70 -80 -70h-209q-72 0 -60 70z" />
<glyph unicode="&#xd7;" d="M131 391q-41 49 19 98l264 226l-187 225q-39 49 19 98l184 158q57 49 98 0l187 -225l264 225q57 49 98 0l131 -158q41 -49 -18 -98l-264 -225l186 -226q41 -49 -18 -98l-185 -158q-57 -49 -98 0l-186 226l-265 -226q-57 -49 -98 0z" />
<glyph unicode="&#xd8;" horiz-adv-x="1482" d="M94 518q0 102 21 211q133 746 778 746q219 0 358 -86l47 53q51 53 101 14l63 -49q51 -39 -4 -96l-63 -70q76 -123 75 -311q0 -100 -20 -209q-133 -745 -780 -746q-215 0 -355 82l-45 -49q-51 -53 -100 -14l-64 49q-51 39 3 96l59 66q-74 129 -74 313zM553 612l405 445 q-41 37 -110 37q-109 0 -177.5 -86t-103.5 -283q-10 -57 -14 -113zM608 389q39 -33 109 -33q109 0 177.5 86t102.5 283l15 109z" />
<glyph unicode="&#xd9;" horiz-adv-x="1413" d="M100 406q0 66 13 139l147 831q12 74 82 74h299q78 0 66 -74l-140 -788q-8 -43 -8 -88q0 -68 31 -98.5t98 -30.5q86 0 132 51t67 164l139 790q12 74 82 74h299q78 0 66 -74l-148 -831q-51 -291 -216 -429.5t-464 -138.5q-545 0 -545 429zM621 1807q8 28 41 28h294 q60 0 70 -49l35 -180q6 -53 -51 -54h-158q-55 0 -82 33l-139 174q-18 20 -10 48z" />
<glyph unicode="&#xda;" horiz-adv-x="1413" d="M100 406q0 66 13 139l147 831q12 74 82 74h299q78 0 66 -74l-140 -788q-8 -43 -8 -88q0 -68 31 -98.5t98 -30.5q86 0 132 51t67 164l139 790q12 74 82 74h299q78 0 66 -74l-148 -831q-51 -291 -216 -429.5t-464 -138.5q-545 0 -545 429zM750.5 1567.5q-8.5 15.5 3.5 38.5 l96 180q29 49 78 49h295q33 0 36 -27.5t-22 -48.5l-201 -174q-39 -33 -90 -33h-158q-29 0 -37.5 15.5z" />
<glyph unicode="&#xdb;" horiz-adv-x="1413" d="M100 406q0 66 13 139l147 831q12 74 82 74h299q78 0 66 -74l-140 -788q-8 -43 -8 -88q0 -68 31 -98.5t98 -30.5q86 0 132 51t67 164l139 790q12 74 82 74h299q78 0 66 -74l-148 -831q-51 -291 -216 -429.5t-464 -138.5q-545 0 -545 429zM534 1573.5q-6 21.5 17 42.5 l225 217q27 27 45.5 35t55.5 8h147q63 0 92 -43l152 -217q14 -20 0.5 -42t-41.5 -22h-111q-32 0 -67 31l-123 111l-160 -111q-43 -31 -76 -31h-119q-31 0 -37 21.5z" />
<glyph unicode="&#xdc;" horiz-adv-x="1413" d="M100 406q0 66 13 139l147 831q12 74 82 74h299q78 0 66 -74l-140 -788q-8 -43 -8 -88q0 -68 31 -98.5t98 -30.5q86 0 132 51t67 164l139 790q12 74 82 74h299q78 0 66 -74l-148 -831q-51 -291 -216 -429.5t-464 -138.5q-545 0 -545 429zM504 1622l18 109q14 70 78 69h209 q75 1 61 -69l-18 -109q-12 -70 -80 -70h-209q-72 0 -59 70zM967 1622l18 109q14 70 78 69h209q75 1 61 -69l-18 -109q-12 -70 -80 -70h-209q-72 0 -59 70z" />
<glyph unicode="&#xdd;" horiz-adv-x="1425" d="M195 1358q-12 35 6 63.5t55 28.5h309q72 0 92 -68l86 -325l35 -178h8l97 178l204 325q41 68 105 68h313q37 0 49.5 -28.5t-12.5 -63.5l-594 -823l-82 -461q-14 -74 -84 -74h-299q-78 0 -63 74l82 461zM777 1567.5q-9 15.5 3 38.5l97 180q29 49 77 49h295q33 0 36 -27.5 t-21 -48.5l-201 -174q-39 -33 -90 -33h-158q-29 0 -38 15.5z" />
<glyph unicode="&#xde;" horiz-adv-x="1380" d="M37 74l229 1302q12 74 82 74h295q78 0 66 -74l-17 -94h133q270 0 409.5 -92t139.5 -301q0 -61 -12 -131q-47 -283 -211 -399.5t-469 -116.5h-174l-29 -168q-12 -74 -84 -74h-295q-78 0 -63 74zM571 602h148q94 0 142 36t63 124q4 18 4 49q0 59 -36 85t-116 26h-147z" />
<glyph unicode="&#xdf;" horiz-adv-x="1392" d="M31 61l166 938q43 248 197.5 362t428.5 114q240 0 385.5 -84t145.5 -230q0 -74 -39 -144.5t-85 -112.5t-86 -82t-40 -62q0 -20 31.5 -50t69.5 -61t71 -94t33 -145q0 -211 -123 -323t-348 -112q-295 0 -279 80l29 156q6 35 23.5 49t54.5 12q102 -4 167.5 35t65.5 129 q0 41 -31.5 84t-69.5 76t-70 78t-32 88q0 47 35 88t77 66.5t77 68.5t35 92q-1 99 -134 99q-98 0 -137 -52.5t-57 -156.5l-160 -906q-12 -61 -80 -61h-258q-37 0 -53 15.5t-10 45.5z" />
<glyph unicode="&#xe0;" horiz-adv-x="1230" d="M18 252q0 86 25 152.5t59.5 110.5t99 76t118 48t141.5 26.5t144.5 13.5t152.5 5l6 31q10 51 -29 77.5t-129 26.5q-135 0 -287 -53q-70 -25 -79 43l-23 152q-8 61 59 88q215 82 435 81q475 0 475 -323q0 -49 -8 -92l-115 -645q-12 -70 -76 -70h-237q-59 0 -68 53l-8 60 q-117 -129 -328 -129q-154 0 -241 69.5t-87 198.5zM432 328q0 -84 96 -84q154 -1 181 151l14 84q-291 -6 -291 -151zM477 1472q8 27 41 27h281q57 0 67 -47l41 -178q10 -53 -49 -53h-141q-55 0 -82 32l-150 172q-16 20 -8 47z" />
<glyph unicode="&#xe1;" horiz-adv-x="1230" d="M18 252q0 86 25 152.5t59.5 110.5t99 76t118 48t141.5 26.5t144.5 13.5t152.5 5l6 31q10 51 -29 77.5t-129 26.5q-135 0 -287 -53q-70 -25 -79 43l-23 152q-8 61 59 88q215 82 435 81q475 0 475 -323q0 -49 -8 -92l-115 -645q-12 -70 -76 -70h-237q-59 0 -68 53l-8 60 q-117 -129 -328 -129q-154 0 -241 69.5t-87 198.5zM432 328q0 -84 96 -84q154 -1 181 151l14 84q-291 -6 -291 -151zM604 1236q-10 15 0 38l98 178q23 47 72 47h293q20 0 30.5 -13t6.5 -30.5t-21 -30.5l-198 -172q-39 -33 -84 -32h-158q-29 0 -39 15z" />
<glyph unicode="&#xe2;" horiz-adv-x="1230" d="M18 252q0 86 25 152.5t59.5 110.5t99 76t118 48t141.5 26.5t144.5 13.5t152.5 5l6 31q10 51 -29 77.5t-129 26.5q-135 0 -287 -53q-70 -25 -79 43l-23 152q-8 61 59 88q215 82 435 81q475 0 475 -323q0 -49 -8 -92l-115 -645q-12 -70 -76 -70h-237q-59 0 -68 53l-8 60 q-117 -129 -328 -129q-154 0 -241 69.5t-87 198.5zM393 1242.5q-6 21.5 15 41.5l219 217q23 25 42 34t56 9h147q66 0 95 -43l141 -217q14 -20 3 -41.5t-42 -21.5h-111q-38 -1 -69 30l-113 111l-153 -111q-39 -31 -74 -30h-119q-31 0 -37 21.5zM432 328q0 -84 96 -84 q154 -1 181 151l14 84q-291 -6 -291 -151z" />
<glyph unicode="&#xe3;" horiz-adv-x="1230" d="M18 252q0 86 25 152.5t59.5 110.5t99 76t118 48t141.5 26.5t144.5 13.5t152.5 5l6 31q10 51 -29 77.5t-129 26.5q-135 0 -287 -53q-70 -25 -79 43l-23 152q-8 61 59 88q215 82 435 81q475 0 475 -323q0 -49 -8 -92l-115 -645q-12 -70 -76 -70h-237q-59 0 -68 53l-8 60 q-117 -129 -328 -129q-154 0 -241 69.5t-87 198.5zM356 1300q18 100 77 154.5t149 54.5q82 0 153 -28l103 -41q55 -20 88 -21q45 0 53 31l4 12q16 41 68 41h84q63 0 49 -92q-33 -197 -217 -197q-90 0 -158 29l-104 41q-47 20 -87 21q-45 0 -55 -31l-4 -12q-16 -41 -65 -41 h-84q-35 0 -48.5 17t-5.5 62zM432 328q0 -84 96 -84q154 -1 181 151l14 84q-291 -6 -291 -151z" />
<glyph unicode="&#xe4;" horiz-adv-x="1230" d="M18 252q0 86 25 152.5t59.5 110.5t99 76t118 48t141.5 26.5t144.5 13.5t152.5 5l6 31q10 51 -29 77.5t-129 26.5q-135 0 -287 -53q-70 -25 -79 43l-23 152q-8 61 59 88q215 82 435 81q475 0 475 -323q0 -49 -8 -92l-115 -645q-12 -70 -76 -70h-237q-59 0 -68 53l-8 60 q-117 -129 -328 -129q-154 0 -241 69.5t-87 198.5zM358 1290l19 109q12 70 78 69h204q74 1 62 -69l-19 -109q-12 -70 -79 -69h-205q-72 0 -60 69zM432 328q0 -84 96 -84q154 -1 181 151l14 84q-291 -6 -291 -151zM817 1290l19 109q12 70 77 69h205q74 1 62 -69l-19 -109 q-12 -70 -80 -69h-204q-72 0 -60 69z" />
<glyph unicode="&#xe5;" horiz-adv-x="1230" d="M18 252q0 86 25 152.5t59.5 110.5t99 76t118 48t141.5 26.5t144.5 13.5t152.5 5l6 31q10 51 -29 77.5t-129 26.5q-135 0 -287 -53q-70 -25 -79 43l-23 152q-8 61 59 88q215 82 435 81q475 0 475 -323q0 -49 -8 -92l-115 -645q-12 -70 -76 -70h-237q-59 0 -68 53l-8 60 q-117 -129 -328 -129q-154 0 -241 69.5t-87 198.5zM432 328q0 -84 96 -84q154 -1 181 151l14 84q-291 -6 -291 -151zM543 1419q0 117 84 193t207 76q98 0 167.5 -61.5t69.5 -149.5q0 -117 -82 -193t-207 -76q-100 0 -169.5 60.5t-69.5 150.5zM700 1434q0 -37 28 -61.5 t67 -24.5q47 0 82.5 31.5t35.5 80.5q0 37 -25.5 62.5t-66.5 25.5q-47 0 -84 -32.5t-37 -81.5z" />
<glyph unicode="&#xe6;" horiz-adv-x="1855" d="M20 264q0 80 24 143.5t59.5 104.5t97 70.5t117 45t137.5 23.5t141 10.5t147 4.5h13l8 49q18 104 -158 104q-123 0 -287 -53q-70 -25 -79 43l-23 152q-8 61 59 88q215 82 420 81q252 0 320 -135q139 135 373 135q203 0 321.5 -108.5t118.5 -300.5q0 -66 -10 -117l-19 -98 q-12 -70 -82 -70h-581v-18q2 -72 52 -114t146 -42q121 0 264 60q70 27 80 -46l21 -124q8 -55 -60 -89q-188 -88 -376 -88q-313 0 -390 177q-186 -168 -454 -168q-195 0 -297.5 71.5t-102.5 208.5zM432 328q0 -84 96 -84q152 0 183 172l8 45h-43q-43 0 -56.5 -2t-51.5 -6 t-54 -12.5t-39.5 -23t-33 -37t-9.5 -52.5zM1153 657h303l2 15q6 33 6 59q1 113 -116 113q-78 0 -122 -41t-73 -146z" />
<glyph unicode="&#xe7;" horiz-adv-x="1089" d="M63 428q1 63 13 133q49 285 224 427t450 142q98 0 201.5 -23.5t150.5 -55.5q55 -37 16 -99l-96 -155q-37 -59 -109 -33q-78 29 -153 29q-209 0 -252 -240q-8 -53 -8 -74q0 -166 178 -166q90 0 170 33q78 31 96 -33l43 -153q16 -59 -51 -101q-129 -80 -336 -84 q115 -72 115 -170q0 -100 -78 -146t-193 -46q-94 0 -141 16q-37 10 -31 43l17 88q6 39 49 39h68q39 0 69.5 19.5t30.5 54.5q0 66 -88 121q-168 35 -261.5 145.5t-93.5 288.5z" />
<glyph unicode="&#xe8;" horiz-adv-x="1228" d="M63 428q0 61 13 129q49 276 219 424.5t432 148.5q221 0 346 -115.5t125 -314.5q0 -63 -10 -114l-19 -99q-12 -70 -82 -69h-610v-17q10 -139 217 -139q135 0 279 60q70 27 80 -43l20 -127q8 -53 -59 -89q-172 -88 -391 -88q-266 0 -413 117t-147 336zM475 1472q8 27 41 27 h281q57 0 67 -47l41 -178q10 -53 -49 -53h-141q-55 0 -82 32l-150 172q-16 20 -8 47zM498 639h329l2 14q6 35 7 60q0 131 -129 131q-80 0 -130.5 -49.5t-78.5 -155.5z" />
<glyph unicode="&#xe9;" horiz-adv-x="1228" d="M63 428q0 61 13 129q49 276 219 424.5t432 148.5q221 0 346 -115.5t125 -314.5q0 -63 -10 -114l-19 -99q-12 -70 -82 -69h-610v-17q10 -139 217 -139q135 0 279 60q70 27 80 -43l20 -127q8 -53 -59 -89q-172 -88 -391 -88q-266 0 -413 117t-147 336zM498 639h329l2 14 q6 35 7 60q0 131 -129 131q-80 0 -130.5 -49.5t-78.5 -155.5zM602 1236q-10 15 0 38l98 178q25 47 72 47h293q20 0 30.5 -13t6.5 -30.5t-21 -30.5l-198 -172q-39 -33 -84 -32h-158q-29 0 -39 15z" />
<glyph unicode="&#xea;" horiz-adv-x="1228" d="M63 428q0 61 13 129q49 276 219 424.5t432 148.5q221 0 346 -115.5t125 -314.5q0 -63 -10 -114l-19 -99q-12 -70 -82 -69h-610v-17q10 -139 217 -139q135 0 279 60q70 27 80 -43l20 -127q8 -53 -59 -89q-172 -88 -391 -88q-266 0 -413 117t-147 336zM401 1242.5 q-6 21.5 15 41.5l219 217q23 25 42 34t56 9h148q66 0 94 -43l141 -217q14 -20 3 -41.5t-42 -21.5h-110q-39 -1 -70 30l-113 111l-153 -111q-39 -31 -74 -30h-119q-31 0 -37 21.5zM498 639h329l2 14q6 35 7 60q0 131 -129 131q-80 0 -130.5 -49.5t-78.5 -155.5z" />
<glyph unicode="&#xeb;" horiz-adv-x="1228" d="M63 428q0 61 13 129q49 276 219 424.5t432 148.5q221 0 346 -115.5t125 -314.5q0 -63 -10 -114l-19 -99q-12 -70 -82 -69h-610v-17q10 -139 217 -139q135 0 279 60q70 27 80 -43l20 -127q8 -53 -59 -89q-172 -88 -391 -88q-266 0 -413 117t-147 336zM367 1290l18 109 q12 70 78 69h205q73 1 61 -69l-18 -109q-12 -70 -80 -69h-205q-72 0 -59 69zM498 639h329l2 14q6 35 7 60q0 131 -129 131q-80 0 -130.5 -49.5t-78.5 -155.5zM825 1290l19 109q12 70 78 69h204q74 1 62 -69l-19 -109q-12 -70 -79 -69h-205q-72 0 -60 69z" />
<glyph unicode="&#xec;" horiz-adv-x="655" d="M43 70l172 966q12 70 78 70h287q73 0 61 -70l-172 -966q-12 -70 -78 -70h-287q-74 0 -61 70zM168 1472q8 27 41 27h280q58 0 68 -47l41 -178q10 -53 -49 -53h-141q-55 0 -82 32l-150 172q-16 20 -8 47z" />
<glyph unicode="&#xed;" horiz-adv-x="655" d="M43 70l172 966q12 70 78 70h287q73 0 61 -70l-172 -966q-12 -70 -78 -70h-287q-74 0 -61 70zM338 1236q-10 15 0 38l98 178q23 47 72 47h293q20 0 30.5 -13t6.5 -30.5t-21 -30.5l-199 -172q-39 -33 -83 -32h-158q-29 0 -39 15z" />
<glyph unicode="&#xee;" horiz-adv-x="655" d="M43 70l172 966q12 70 78 70h287q73 0 61 -70l-172 -966q-12 -70 -78 -70h-287q-74 0 -61 70zM106 1242.5q-6 21.5 15 41.5l219 217q23 25 42 34t56 9h148q66 0 94 -43l141 -217q14 -20 3 -41.5t-42 -21.5h-110q-39 -1 -70 30l-113 111l-153 -111q-39 -31 -74 -30h-119 q-31 0 -37 21.5z" />
<glyph unicode="&#xef;" horiz-adv-x="655" d="M43 70l172 966q12 70 78 70h287q73 0 61 -70l-172 -966q-12 -70 -78 -70h-287q-74 0 -61 70zM72 1290l18 109q12 70 78 69h205q73 1 61 -69l-18 -109q-12 -70 -80 -69h-205q-72 0 -59 69zM530 1290l19 109q12 70 78 69h204q74 1 62 -69l-19 -109q-12 -70 -79 -69h-205 q-72 0 -60 69z" />
<glyph unicode="&#xf0;" horiz-adv-x="1273" d="M61 416q0 59 13 127q47 270 219 413.5t399 143.5q125 0 176 -33q-16 45 -51 102h-258q-55 0 -45 50l12 67q10 49 54 49h122l-69 64q-18 16 -8 39.5t34 23.5h265q51 0 75 -35q12 -14 62 -92h213q53 0 45 -49l-12 -67q-9 -50 -54 -50h-106q94 -174 94 -411q0 -104 -16 -193 q-53 -299 -222 -444.5t-436 -145.5q-233 0 -369.5 114t-136.5 327zM494 432q0 -14 1 -27.5t2 -22.5t3 -16.5t4 -12.5t4 -8t4 -5l4 -4l2 -2q0 -18 1 -26.5t8.5 -12.5t13.5 -3t26.5 2t36.5 1q66 0 88.5 5t31.5 9t16.5 41t19.5 68q29 68 35 106.5t6 137.5q0 150 -107 149 q-72 0 -120 -71.5t-64 -152.5t-16 -155z" />
<glyph unicode="&#xf1;" horiz-adv-x="1284" d="M27 70l172 966q12 70 77 70h254q61 0 66 -53l10 -72q133 150 328 149q305 0 305 -303q0 -67 -16 -161l-107 -596q-12 -70 -78 -70h-286q-74 0 -62 70l98 555q6 39 7 69q0 88 -86 88q-129 0 -160 -168l-96 -544q-12 -70 -78 -70h-287q-74 0 -61 70zM383 1300 q18 100 76.5 154.5t148.5 54.5q82 0 154 -28l102 -41q55 -20 88 -21q43 0 54 31l4 12q16 41 67 41h84q63 0 49 -92q-35 -197 -217 -197q-90 0 -157 29l-105 41q-47 20 -86 21q-45 0 -55 -31l-4 -12q-16 -41 -66 -41h-84q-35 0 -48 17t-5 62z" />
<glyph unicode="&#xf2;" horiz-adv-x="1269" d="M63 424q0 -217 135.5 -333t368.5 -116q266 0 436.5 143.5t219.5 428.5q12 74 12 135q0 217 -135 332.5t-369 115.5q-266 0 -436 -143t-219 -428q-12 -74 -13 -135zM475 1472q8 27 41 27h281q57 0 67 -47l41 -178q10 -53 -49 -53h-141q-55 0 -82 32l-150 172q-16 20 -8 47 zM496 434q0 47 12 119q25 137 69 197.5t117 60.5q109 0 109 -139q0 -49 -12 -119q-25 -137 -69 -197.5t-118 -60.5q-109 0 -108 139z" />
<glyph unicode="&#xf3;" horiz-adv-x="1269" d="M63 424q0 -217 135.5 -333t368.5 -116q266 0 436.5 143.5t219.5 428.5q12 74 12 135q0 217 -135 332.5t-369 115.5q-266 0 -436 -143t-219 -428q-12 -74 -13 -135zM496 434q0 47 12 119q25 137 69 197.5t117 60.5q109 0 109 -139q0 -49 -12 -119q-25 -137 -69 -197.5 t-118 -60.5q-109 0 -108 139zM643 1236q-10 15 0 38l98 178q25 47 72 47h293q20 0 30.5 -13t6.5 -30.5t-21 -30.5l-198 -172q-39 -33 -84 -32h-158q-29 0 -39 15z" />
<glyph unicode="&#xf4;" horiz-adv-x="1269" d="M63 424q0 -217 135.5 -333t368.5 -116q266 0 436.5 143.5t219.5 428.5q12 74 12 135q0 217 -135 332.5t-369 115.5q-266 0 -436 -143t-219 -428q-12 -74 -13 -135zM414 1242.5q-6 21.5 14 41.5l219 217q23 25 42.5 34t55.5 9h148q66 0 94 -43l141 -217q14 -20 3 -41.5 t-41 -21.5h-111q-39 -1 -70 30l-112 111l-154 -111q-39 -31 -74 -30h-118q-31 0 -37 21.5zM496 434q0 47 12 119q25 137 69 197.5t117 60.5q109 0 109 -139q0 -49 -12 -119q-25 -137 -69 -197.5t-118 -60.5q-109 0 -108 139z" />
<glyph unicode="&#xf5;" horiz-adv-x="1269" d="M63 424q0 61 13 135q49 285 219 428t436 143q233 0 368.5 -115.5t135.5 -332.5q0 -61 -12 -135q-49 -285 -219.5 -428.5t-436.5 -143.5q-233 0 -368.5 116t-135.5 333zM377 1300q18 100 76.5 154.5t148.5 54.5q82 0 154 -28l102 -41q55 -20 88 -21q45 0 53 31l5 12 q16 41 67 41h84q63 0 49 -92q-33 -197 -217 -197q-90 0 -158 29l-104 41q-47 20 -86 21q-45 0 -55 -31l-4 -12q-16 -41 -66 -41h-84q-35 0 -48 17t-5 62zM496 434q-1 -139 108 -139q74 0 118 60.5t69 197.5q12 70 12 119q0 139 -109 139q-74 0 -118 -60.5t-68 -197.5 q-12 -70 -12 -119z" />
<glyph unicode="&#xf6;" horiz-adv-x="1269" d="M63 424q0 -217 135.5 -333t368.5 -116q266 0 436.5 143.5t219.5 428.5q12 74 12 135q0 217 -135 332.5t-369 115.5q-266 0 -436 -143t-219 -428q-12 -74 -13 -135zM379 1290l18 109q12 70 78 69h205q73 1 61 -69l-18 -109q-12 -70 -80 -69h-205q-72 0 -59 69zM496 434 q0 47 12 119q25 137 69 197.5t117 60.5q109 0 109 -139q0 -49 -12 -119q-25 -137 -69 -197.5t-118 -60.5q-109 0 -108 139zM838 1290l18 109q12 70 78 69h205q73 1 61 -69l-18 -109q-12 -70 -80 -69h-205q-72 0 -59 69z" />
<glyph unicode="&#xf7;" d="M133 639l27 152q12 70 78 69h909q74 0 61 -69l-26 -152q-14 -70 -80 -70h-909q-74 0 -60 70zM381 170l39 223q12 68 84 68h233q80 0 68 -68l-39 -223q-12 -70 -80 -70h-246q-71 0 -59 70zM535 1038l38 224q12 68 84 67h234q80 0 67 -67l-38 -224q-12 -70 -82 -69h-244 q-71 -1 -59 69z" />
<glyph unicode="&#xf8;" horiz-adv-x="1277" d="M53 45q-41 45 10 90l60 53q-55 98 -55 236q0 61 12 135q49 285 219 428t436 143q195 0 324 -81l59 55q53 51 92 6l43 -47q35 -37 -10 -90l-61 -55q57 -102 57 -236q0 -61 -12 -135q-49 -285 -219.5 -428.5t-436.5 -143.5q-199 0 -323 82l-58 -53q-53 -49 -94 -6zM508 530 l270 248q-27 33 -80 33q-74 0 -117.5 -60.5t-68.5 -197.5q-4 -16 -4 -23zM526 326q27 -31 82 -31q74 0 118 60.5t69 197.5q0 6 4 22z" />
<glyph unicode="&#xf9;" horiz-adv-x="1273" d="M68 262q0 49 14 139l113 635q12 70 77 70h287q74 0 62 -70l-103 -575q-6 -37 -6 -64q0 -82 82 -82q129 0 158 164l98 557q12 70 78 70h286q74 0 62 -70l-172 -966q-12 -70 -78 -70h-254q-57 0 -65 53l-11 72q-39 -63 -121.5 -106.5t-185.5 -43.5q-160 0 -240.5 67 t-80.5 220zM477 1472q8 27 41 27h281q57 0 67 -47l41 -178q10 -53 -49 -53h-141q-55 0 -82 32l-150 172q-16 20 -8 47z" />
<glyph unicode="&#xfa;" horiz-adv-x="1273" d="M68 262q0 49 14 139l113 635q12 70 77 70h287q74 0 62 -70l-103 -575q-6 -37 -6 -64q0 -82 82 -82q129 0 158 164l98 557q12 70 78 70h286q74 0 62 -70l-172 -966q-12 -70 -78 -70h-254q-57 0 -65 53l-11 72q-39 -63 -121.5 -106.5t-185.5 -43.5q-160 0 -240.5 67 t-80.5 220zM645 1236q-10 15 0 38l98 178q23 47 72 47h293q20 0 30.5 -13t6.5 -30.5t-21 -30.5l-198 -172q-39 -33 -84 -32h-158q-29 0 -39 15z" />
<glyph unicode="&#xfb;" horiz-adv-x="1273" d="M68 262q0 49 14 139l113 635q12 70 77 70h287q74 0 62 -70l-103 -575q-6 -37 -6 -64q0 -82 82 -82q129 0 158 164l98 557q12 70 78 70h286q74 0 62 -70l-172 -966q-12 -70 -78 -70h-254q-57 0 -65 53l-11 72q-39 -63 -121.5 -106.5t-185.5 -43.5q-160 0 -240.5 67 t-80.5 220zM416 1242.5q-6 21.5 14 41.5l219 217q23 25 42.5 34t56.5 9h147q66 0 94 -43l141 -217q14 -20 3 -41.5t-41 -21.5h-111q-39 -1 -70 30l-112 111l-154 -111q-39 -31 -74 -30h-118q-31 0 -37 21.5z" />
<glyph unicode="&#xfc;" horiz-adv-x="1273" d="M68 262q0 49 14 139l113 635q12 70 77 70h287q74 0 62 -70l-103 -575q-6 -37 -6 -64q0 -82 82 -82q129 0 158 164l98 557q12 70 78 70h286q74 0 62 -70l-172 -966q-12 -70 -78 -70h-254q-57 0 -65 53l-11 72q-39 -63 -121.5 -106.5t-185.5 -43.5q-160 0 -240.5 67 t-80.5 220zM381 1290l18 109q12 70 78 69h205q73 1 61 -69l-18 -109q-12 -70 -80 -69h-205q-72 0 -59 69zM840 1290l18 109q12 70 78 69h205q73 1 61 -69l-18 -109q-12 -70 -80 -69h-205q-72 0 -59 69z" />
<glyph unicode="&#xfd;" horiz-adv-x="1212" d="M4 -152l31 164q8 59 67 60q14 0 56.5 -5.5t77.5 -5.5q109 0 88 89l-197 874q-8 37 7.5 59.5t51.5 22.5h289q72 0 78 -64l41 -395l16 -272h8l93 272l147 395q25 63 90 64h293q37 0 50 -23.5t-3 -58.5l-442 -901q-55 -115 -92 -173.5t-95.5 -109.5t-134 -68.5t-194.5 -17.5 q-188 0 -271 23q-35 8 -48 23.5t-7 47.5zM594 1236q-10 15 0 38l98 178q25 47 72 47h293q20 0 30.5 -13t6.5 -30.5t-21 -30.5l-199 -172q-39 -33 -83 -32h-158q-29 0 -39 15z" />
<glyph unicode="&#xfe;" horiz-adv-x="1314" d="M-12 -156l270 1536q12 70 78 70h287q74 0 61 -70l-66 -372q51 57 132 89.5t161 32.5q178 0 273.5 -100t95.5 -297q0 -90 -16 -178q-100 -580 -516 -580q-84 0 -172.5 34t-116.5 89l-45 -254q-12 -70 -80 -69h-287q-72 0 -59 69zM522 440q0 -141 117 -141q76 0 122 58.5 t70 195.5q12 68 13 115q0 139 -115 139q-76 0 -122.5 -59.5t-71.5 -194.5q-12 -66 -13 -113z" />
<glyph unicode="&#xff;" horiz-adv-x="1212" d="M4 -152l31 164q8 59 67 60q14 0 56.5 -5.5t77.5 -5.5q109 0 88 89l-197 874q-8 37 7.5 59.5t51.5 22.5h289q72 0 78 -64l41 -395l16 -272h8l93 272l147 395q25 63 90 64h293q37 0 50 -23.5t-3 -58.5l-442 -901q-55 -115 -92 -173.5t-95.5 -109.5t-134 -68.5t-194.5 -17.5 q-188 0 -271 23q-35 8 -48 23.5t-7 47.5zM350 1290l19 109q12 70 77 69h205q74 1 62 -69l-19 -109q-12 -70 -80 -69h-204q-72 0 -60 69zM809 1290l18 109q12 70 78 69h205q73 1 61 -69l-18 -109q-12 -70 -80 -69h-205q-72 0 -59 69z" />
<glyph unicode="&#x152;" horiz-adv-x="1916" d="M131 528q0 96 21 205q68 379 263 548t554 169h960q78 0 66 -74l-39 -221q-12 -74 -84 -74h-445l-30 -170h407q76 0 64 -73l-37 -207q-12 -72 -82 -72h-414l-35 -190h451q78 0 66 -74l-39 -221q-8 -41 -26.5 -57.5t-57.5 -16.5h-938q-625 0 -625 528zM588 592 q0 -115 56 -161t179 -46h43l119 680h-43q-150 0 -227.5 -72.5t-112.5 -267.5q-14 -90 -14 -133z" />
<glyph unicode="&#x153;" horiz-adv-x="1904" d="M63 420q0 66 13 139q49 283 216 427t415 144q250 0 352 -135q143 135 381 135q203 0 318.5 -113.5t115.5 -307.5q0 -70 -10 -123l-19 -99q-12 -70 -82 -69h-583v-15q1 -141 202 -141q123 0 267 60q70 27 80 -43l20 -127q8 -55 -59 -89q-180 -88 -383 -88 q-119 0 -216.5 39t-148.5 103q-162 -141 -393 -142q-225 0 -355.5 115t-130.5 330zM496 428q0 -133 104 -133q74 0 120 61.5t71 196.5q12 68 12 115q0 143 -113 143q-74 0 -116 -60.5t-66 -197.5q-12 -74 -12 -125zM1198 639h305l2 14q6 35 6 62q1 129 -116 129 q-74 0 -121 -49.5t-76 -155.5z" />
<glyph unicode="&#x178;" horiz-adv-x="1425" d="M195 1358q-12 35 6 63.5t55 28.5h309q72 0 92 -68l86 -325l35 -178h8l97 178l204 325q41 68 105 68h313q37 0 49.5 -28.5t-12.5 -63.5l-594 -823l-82 -461q-14 -74 -84 -74h-299q-78 0 -63 74l82 461zM510 1622l18 109q14 70 78 69h209q76 1 62 -69l-19 -109 q-12 -70 -80 -70h-209q-72 0 -59 70zM973 1622l18 109q14 70 78 69h209q75 1 61 -69l-18 -109q-12 -70 -80 -70h-209q-72 0 -59 70z" />
<glyph unicode="&#x2c6;" horiz-adv-x="778" d="M168 1242.5q-6 21.5 14 41.5l219 217q23 25 42.5 34t56.5 9h147q66 0 94 -43l142 -217q14 -20 2.5 -41.5t-41.5 -21.5h-111q-38 -1 -69 30l-113 111l-154 -111q-39 -31 -73 -30h-119q-31 0 -37 21.5z" />
<glyph unicode="&#x2dc;" horiz-adv-x="778" d="M131 1300q18 100 76.5 154.5t148.5 54.5q82 0 154 -28l102 -41q55 -20 88 -21q45 0 54 31l4 12q16 41 67 41h84q63 0 49 -92q-33 -197 -217 -197q-90 0 -157 29l-105 41q-47 20 -86 21q-45 0 -55 -31l-4 -12q-16 -41 -66 -41h-84q-35 0 -48 17t-5 62z" />
<glyph unicode="&#x2000;" horiz-adv-x="953" />
<glyph unicode="&#x2001;" horiz-adv-x="1907" />
<glyph unicode="&#x2002;" horiz-adv-x="953" />
<glyph unicode="&#x2003;" horiz-adv-x="1907" />
<glyph unicode="&#x2004;" horiz-adv-x="635" />
<glyph unicode="&#x2005;" horiz-adv-x="476" />
<glyph unicode="&#x2006;" horiz-adv-x="317" />
<glyph unicode="&#x2007;" horiz-adv-x="317" />
<glyph unicode="&#x2008;" horiz-adv-x="238" />
<glyph unicode="&#x2009;" horiz-adv-x="381" />
<glyph unicode="&#x200a;" horiz-adv-x="105" />
<glyph unicode="&#x2010;" horiz-adv-x="835" d="M82 496l35 192q12 70 78 70h540q74 0 62 -68l-35 -194q-12 -70 -80 -70h-541q-72 0 -59 70z" />
<glyph unicode="&#x2011;" horiz-adv-x="835" d="M82 496l35 192q12 70 78 70h540q74 0 62 -68l-35 -194q-12 -70 -80 -70h-541q-72 0 -59 70z" />
<glyph unicode="&#x2012;" horiz-adv-x="835" d="M82 496l35 192q12 70 78 70h540q74 0 62 -68l-35 -194q-12 -70 -80 -70h-541q-72 0 -59 70z" />
<glyph unicode="&#x2013;" horiz-adv-x="1142" d="M82 496l35 192q12 70 78 70h847q74 0 62 -70l-35 -192q-12 -70 -80 -70h-848q-72 0 -59 70z" />
<glyph unicode="&#x2014;" horiz-adv-x="1609" d="M82 496l35 192q12 70 78 70h1314q74 0 62 -70l-35 -192q-12 -70 -80 -70h-1315q-72 0 -59 70z" />
<glyph unicode="&#x2018;" horiz-adv-x="573" d="M170 893l37 209q8 49 35 88l172 233q29 35 61 35h82q25 0 33 -17.5t-4 -37.5l-127 -217h82q74 0 61 -70l-39 -223q-12 -68 -86 -68h-241q-78 0 -66 68z" />
<glyph unicode="&#x2019;" horiz-adv-x="573" d="M207 1159l41 223q10 68 82 68h241q39 0 56.5 -17.5t13.5 -50.5l-37 -208q-10 -54 -37 -89l-172 -233q-29 -35 -63 -35h-82q-25 0 -32 17.5t7 37.5l125 218h-84q-72 0 -59 69z" />
<glyph unicode="&#x201a;" horiz-adv-x="573" d="M16 70l41 223q8 68 82 67h242q39 0 56.5 -17t13.5 -50l-37 -209q-10 -53 -37 -88l-172 -234q-29 -35 -64 -34h-82q-25 0 -32 17t8 38l125 217h-84q-72 0 -60 70z" />
<glyph unicode="&#x201c;" horiz-adv-x="1077" d="M170 893l37 209q8 49 35 88l172 233q29 35 61 35h82q25 0 33 -17.5t-4 -37.5l-127 -217h82q74 0 61 -70l-39 -223q-12 -68 -86 -68h-241q-78 0 -66 68zM674 893l37 209q7 53 34 88l173 233q29 35 61 35h82q25 0 33 -17.5t-4 -37.5l-127 -217h81q74 0 62 -70l-39 -223 q-12 -68 -86 -68h-242q-78 0 -65 68z" />
<glyph unicode="&#x201d;" horiz-adv-x="1077" d="M207 1159l41 223q10 68 82 68h241q39 0 56.5 -17.5t13.5 -50.5l-37 -208q-10 -54 -37 -89l-172 -233q-29 -35 -63 -35h-82q-25 0 -32 17.5t7 37.5l125 218h-84q-72 0 -59 69zM711 1159l41 223q10 68 82 68h241q39 0 56.5 -17.5t13.5 -50.5l-37 -208q-10 -54 -37 -89 l-172 -233q-29 -35 -63 -35h-82q-25 0 -32 17.5t7 37.5l125 218h-84q-72 0 -59 69z" />
<glyph unicode="&#x201e;" horiz-adv-x="1077" d="M16 70l41 223q8 68 82 67h242q39 0 56.5 -17t13.5 -50l-37 -209q-10 -53 -37 -88l-172 -234q-29 -35 -64 -34h-82q-25 0 -32 17t8 38l125 217h-84q-72 0 -60 70zM520 70l41 223q8 68 82 67h242q39 0 56 -17t13 -50l-36 -209q-10 -53 -37 -88l-172 -234q-29 -35 -64 -34 h-82q-25 0 -32 17t8 38l125 217h-84q-72 0 -60 70z" />
<glyph unicode="&#x2022;" horiz-adv-x="925" d="M143 514q0 152 115 269.5t274 117.5q123 0 205 -80t82 -198q0 -150 -116.5 -267.5t-274.5 -117.5q-123 0 -204 79.5t-81 196.5z" />
<glyph unicode="&#x2026;" horiz-adv-x="1708" d="M10 70l45 252q12 68 84 67h254q80 0 68 -67l-45 -252q-12 -70 -78 -70h-266q-74 0 -62 70zM580 70l45 252q12 68 84 67h254q80 0 67 -67l-45 -252q-12 -70 -78 -70h-266q-73 0 -61 70zM1149 70l45 252q12 68 84 67h254q80 0 67 -67l-45 -252q-12 -70 -77 -70h-267 q-73 0 -61 70z" />
<glyph unicode="&#x202f;" horiz-adv-x="381" />
<glyph unicode="&#x2039;" horiz-adv-x="679" d="M78 612q4 18 16 35l217 291q35 47 88 47h240q35 0 44 -20.5t-13 -49.5l-228 -301l121 -301q12 -29 -2 -49t-47 -20h-240q-57 0 -75 47l-115 291q-6 14 -6 30z" />
<glyph unicode="&#x203a;" horiz-adv-x="679" d="M46 264.5q-9 20.5 13 48.5l228 301l-121 301q-10 31 2 50.5t45 19.5h240q61 0 79 -47l115 -291q6 -17 2 -35q0 -14 -10 -26l-219 -295q-35 -47 -92 -47h-240q-33 0 -42 20.5z" />
<glyph unicode="&#x205f;" horiz-adv-x="476" />
<glyph unicode="&#x20ac;" horiz-adv-x="1355" d="M43 551l12 76q11 49 56 49h88q0 16 4 49l12 49h-82q-49 0 -43 49l14 76q10 49 54 49h106q193 526 731 527q270 0 414 -109q31 -23 36 -42t-15 -56l-117 -183q-39 -63 -111 -32q-82 37 -192 37q-186 0 -277 -142h428q27 0 35 -15t-8 -42l-47 -76q-27 -41 -74 -41h-397 q-8 -33 -11 -49q-6 -29 -6 -49h336q25 0 33 -16.5t-6 -41.5l-49 -75q-25 -41 -72 -41h-238q37 -141 228 -142q102 0 207 39q45 16 67.5 9t30.5 -41l51 -183q10 -33 -2 -54t-51 -44q-186 -111 -414 -111q-264 0 -425 133.5t-163 393.5h-100q-53 0 -43 49z" />
<glyph unicode="&#x2122;" horiz-adv-x="1687" d="M203 1296l18 99q8 55 58 55h512q57 0 49 -55l-19 -99q-10 -55 -63 -55h-129l-74 -420q-8 -53 -61 -53h-144q-57 0 -49 53l74 420h-129q-53 0 -43 55zM831 821l103 574q8 55 57 55h146q41 0 59 -33l104 -219l183 219q25 33 59 33h154q57 0 49 -55l-103 -574 q-8 -53 -61 -53h-137q-57 0 -49 53l51 291l-146 -174q-22 -29 -46.5 -29t-39.5 29l-84 174l-51 -291q-8 -53 -61 -53h-137q-57 0 -50 53z" />
<glyph unicode="&#x25fc;" horiz-adv-x="1105" d="M0 0v1106h1106v-1106h-1106z" />
</font>
</defs>
</svg>
