<?xml version="1.0" standalone="no"?>
<!DOCTYPE svg PUBLIC "-//W3C//DTD SVG 1.1//EN" "http://www.w3.org/Graphics/SVG/1.1/DTD/svg11.dtd" >
<svg xmlns="http://www.w3.org/2000/svg" xmlns:xlink="http://www.w3.org/1999/xlink" version="1.1">
<metadata></metadata>
<defs>
<font id="amsipronarw-ultrauploadedfile" horiz-adv-x="1142" >
<font-face units-per-em="2048" ascent="1753" descent="-295" />
<missing-glyph horiz-adv-x="458" />
<glyph unicode="&#xfb01;" horiz-adv-x="1241" d="M59 59l121 686h-49q-68 0 -55 62l33 190q12 61 69 62h55l17 84q31 178 111.5 249.5t254.5 71.5q113 0 170 -14q61 -18 52 -66l-25 -139q-10 -61 -68 -61q-8 0 -25.5 1t-23.5 1q-33 0 -50 -17.5t-25 -60.5l-9 -49h578q69 -1 57 -64l-164 -932q-12 -63 -71 -63h-258 q-70 0 -58 63l121 682h-260l-121 -686q-12 -59 -71 -59h-248q-70 0 -58 59zM903 1247l25 139q12 63 71 64h261q69 -1 57 -64l-23 -139q-12 -63 -73 -63h-263q-68 0 -55 63z" />
<glyph unicode="&#xfb02;" horiz-adv-x="1243" d="M59 59l121 686h-49q-68 0 -55 62l33 190q12 61 69 62h55l7 28q39 219 160.5 300t424.5 81q256 0 432 -43q62 -18 52 -77l-226 -1285q-12 -63 -71 -63h-258q-70 0 -58 63l197 1108q-53 6 -123 7q-76 0 -109.5 -18.5t-42.5 -67.5l-6 -33h68q70 0 57 -64l-30 -186 q-12 -63 -74 -64h-76l-121 -686q-12 -59 -71 -59h-248q-70 0 -58 59z" />
<glyph unicode="&#xfb03;" horiz-adv-x="1880" d="M59 59l121 686h-51q-66 0 -53 62l33 190q12 61 69 62h55l17 84q31 176 112.5 248.5t255.5 72.5q104 0 162 -14q61 -18 51 -66l-24 -139q-10 -61 -70 -61q-6 0 -21.5 1t-21.5 1q-59 0 -73 -78l-9 -49h260l15 84q31 176 114.5 248.5t258.5 72.5q109 0 165 -14 q59 -18 50 -66l-25 -139q-10 -61 -68 -61q-8 0 -25.5 1t-23.5 1q-33 0 -49 -17.5t-24 -60.5l-11 -49h578q69 -1 57 -64l-164 -932q-12 -63 -71 -63h-258q-70 0 -58 63l121 682h-258l-121 -686q-12 -59 -74 -59h-245q-72 0 -60 59l121 686h-260l-121 -686q-12 -59 -71 -59 h-248q-70 0 -58 59zM1540 1247l25 139q12 63 71 64h262q70 -1 58 -64l-25 -139q-12 -63 -71 -63h-263q-70 0 -57 63z" />
<glyph unicode="&#xfb04;" horiz-adv-x="1880" d="M59 59l121 686h-49q-68 0 -55 62l33 190q12 61 69 62h55l17 84q31 176 112.5 248.5t255.5 72.5q104 0 162 -14q61 -18 51 -66l-24 -139q-10 -61 -70 -61q-6 0 -21.5 1t-21.5 1q-59 0 -73 -78l-9 -49h260l5 28q39 219 159.5 300t423.5 81q258 0 434 -43q63 -18 54 -77 l-228 -1285q-12 -63 -71 -63h-258q-70 0 -58 63l197 1108q-51 6 -123 7q-74 0 -108.5 -18.5t-43.5 -67.5l-6 -33h70q70 0 57 -64l-33 -186q-12 -63 -71 -64h-76l-121 -686q-12 -59 -74 -59h-245q-72 0 -60 59l121 686h-260l-121 -686q-12 -59 -71 -59h-248q-70 0 -58 59z " />
<glyph horiz-adv-x="0" />
<glyph unicode="&#xd;" horiz-adv-x="681" />
<glyph unicode=" "  horiz-adv-x="458" />
<glyph unicode="&#x09;" horiz-adv-x="458" />
<glyph unicode="&#xa0;" horiz-adv-x="458" />
<glyph unicode="!" horiz-adv-x="608" d="M37 68l43 241q12 68 80 68h250q74 0 61 -68l-43 -241q-12 -68 -76 -68h-256q-71 0 -59 68zM158 543l84 837q6 70 73 70h316q72 0 57 -70l-211 -837q-19 -64 -80 -64h-180q-66 0 -59 64z" />
<glyph unicode="&#x22;" horiz-adv-x="829" d="M225 1272q-4 55 6 119q12 59 50 88.5t120 29.5q84 0 114 -29.5t20 -88.5q-6 -35 -35 -119l-146 -393h-123zM614 1272q-4 55 7 119q12 59 50 88.5t119.5 29.5t112.5 -29.5t21 -88.5q-10 -47 -35 -119l-146 -393h-122z" />
<glyph unicode="#" horiz-adv-x="1196" d="M27 446l12 68q8 63 74 64h133l129 294h-86q-66 0 -53 64l12 68q8 63 74 63h141l153 346q31 59 89 43l75 -18q61 -18 35 -80l-131 -291h221l154 346q27 61 86 43l76 -18q61 -19 34 -80l-129 -291h80q66 0 54 -63l-13 -68q-8 -63 -73 -64h-136l-131 -294h88q63 0 56 -64 l-13 -68q-12 -63 -75 -63h-142l-153 -346q-29 -61 -86 -43l-78 18q-61 18 -33 80l129 291h-219l-156 -346q-27 -61 -84 -43l-78 18q-63 18 -32 80l129 291h-80q-66 0 -53 63zM467 578h221l129 294h-219z" />
<glyph unicode="$" horiz-adv-x="1114" d="M7 77.5q-9 16.5 3 55.5l70 195q25 76 98 45q102 -43 236 -43q221 0 221 100q0 31 -38 60.5t-138 84.5q-66 31 -111 62t-92 79t-71.5 115.5t-24.5 153.5q0 414 481 479l21 119q12 61 67 62h94q62 -1 54 -62l-21 -115q164 -14 252 -55q33 -12 41 -29.5t-4 -56.5l-66 -192 q-27 -66 -98 -45q-92 31 -225 30q-170 0 -170 -86q0 -72 174 -162q74 -41 119 -72.5t91 -78.5t67.5 -106.5t21.5 -137.5q0 -195 -124 -320.5t-335 -164.5l-22 -125q-12 -61 -68 -62h-94q-63 0 -54 62l21 115q-215 10 -332 65q-35 14 -44 30.5z" />
<glyph unicode="%" horiz-adv-x="1798" d="M133 909q0 57 12 125q74 430 406 430q145 0 222 -83t77 -228q0 -72 -10 -127q-78 -430 -406 -430q-145 0 -223 83t-78 230zM345 16.5q-7 16.5 13 44.5l910 1334q37 55 90 55h145q31 0 38 -16t-13 -45l-907 -1334q-39 -55 -93 -55h-145q-31 0 -38 16.5zM406 907 q0 -84 53 -84q39 0 62.5 46t43.5 161q14 92 15 123q0 84 -54 84q-39 0 -62.5 -46t-43.5 -161q-14 -92 -14 -123zM1038 297q1 72 11 127q78 430 405 430q145 0 223 -83t78 -228q0 -59 -12 -127q-74 -430 -406 -430q-145 0 -222 83t-77 228zM1309 293q0 -80 51 -80 q39 0 63.5 46t44.5 161q14 78 15 127q0 80 -51 80q-39 0 -64 -46t-45 -161q-14 -78 -14 -127z" />
<glyph unicode="&#x26;" horiz-adv-x="1355" d="M43 360q0 172 99.5 302.5t273.5 195.5l-19 39q-53 106 -53 211q0 186 135 275.5t344 89.5q156 0 277 -37q63 -25 47 -86l-43 -152q-18 -68 -92 -53q-92 18 -148 18q-45 0 -74.5 -4t-57 -27.5t-27.5 -64.5q0 -35 38 -96l220 -404q41 88 41 189q0 86 71 86h199q49 0 49 -84 q0 -248 -203 -486l115 -206q12 -23 0 -44.5t-39 -21.5h-250q-61 0 -84 39l-20 29q-150 -86 -324 -86q-213 0 -344 99t-131 279zM449 430q-1 -117 167 -117q49 0 86 15l-153 284q-100 -70 -100 -182z" />
<glyph unicode="'" horiz-adv-x="442" d="M225 1272q-4 55 6 119q12 59 50 88.5t120 29.5q84 0 114 -29.5t20 -88.5q-6 -35 -35 -119l-146 -393h-123z" />
<glyph unicode="(" horiz-adv-x="706" d="M88 385q0 285 121 564.5t334 486.5q39 35 78 34h182q23 0 32 -11t6 -27.5t-16 -32.5q-170 -231 -266 -509t-96 -566q0 -281 86 -494q10 -27 -2 -49.5t-45 -22.5h-183q-43 0 -65 35q-166 240 -166 592z" />
<glyph unicode=")" horiz-adv-x="706" d="M-82 -218.5q-4 23.5 16 48.5q168 233 263.5 512t95.5 563q0 276 -84 494q-10 27 2 49t45 22h182q43 0 66 -34q164 -242 164 -588q0 -287 -120 -567.5t-333 -487.5q-39 -35 -78 -35h-182q-33 0 -37 23.5z" />
<glyph unicode="*" horiz-adv-x="851" d="M147 942q0 49 68 86q29 16 100.5 29.5t96.5 23.5q-20 10 -87 24.5t-92 31.5q-43 27 -43 59q0 35 39 82q41 53 75 63.5t71 -16.5q25 -16 63.5 -69.5t53.5 -67.5q0 23 -10.5 90.5t-4.5 99.5q10 51 37 73t88.5 22t82 -21.5t9.5 -73.5q-6 -33 -38.5 -100.5t-41.5 -89.5 q23 16 78.5 68.5t85.5 68.5q33 18 60 18q43 0 69 -65q14 -31 15 -57q0 -49 -68 -84q-31 -16 -102.5 -31.5t-94.5 -24.5q20 -10 87 -24.5t92 -30.5q41 -25 41 -59q0 -31 -37 -82q-41 -51 -76 -61.5t-70 14.5q-25 16 -63.5 70.5t-52.5 68.5q0 -25 10 -92.5t4 -100.5 q-8 -49 -36 -70.5t-89 -21.5t-81.5 21.5t-10.5 70.5q6 33 38.5 100.5t41.5 92.5q-18 -14 -75.5 -67.5t-88.5 -69.5q-37 -18 -62 -19q-43 0 -69 64q-12 33 -13 57z" />
<glyph unicode="+" d="M113 629l32 184q12 63 72 64h250l47 266q12 66 72 65h223q70 0 57 -65l-47 -266h242q66 0 57 -64l-33 -184q-12 -66 -73 -66h-248l-49 -276q-12 -66 -72 -66h-225q-68 0 -56 66l50 276h-242q-66 0 -57 66z" />
<glyph unicode="," horiz-adv-x="512" d="M-8 -241.5q-6 16.5 8 40.5l123 201h-66q-72 0 -59 68l41 233q12 68 78 68h233q76 0 64 -68l-37 -207q-8 -45 -31 -80l-172 -235q-25 -37 -61 -37h-90q-25 0 -31 16.5z" />
<glyph unicode="-" horiz-adv-x="702" d="M68 510l32 184q12 66 72 66h451q70 0 57 -64l-33 -186q-13 -64 -72 -64h-450q-70 0 -57 64z" />
<glyph unicode="." horiz-adv-x="512" d="M-2 68l41 233q12 68 78 68h233q76 0 64 -68l-41 -233q-12 -68 -76 -68h-240q-71 0 -59 68z" />
<glyph unicode="/" horiz-adv-x="868" d="M-56 21.5q-11 21.5 7 56.5l688 1313q31 59 90 59h234q39 0 50 -21.5t-7 -56.5l-687 -1313q-31 -59 -90 -59h-235q-39 0 -50 21.5z" />
<glyph unicode="0" horiz-adv-x="1232" d="M90 467q0 102 27 258q70 401 232.5 574.5t422.5 173.5q461 0 461 -490q0 -119 -27 -260q-70 -399 -232.5 -572.5t-422.5 -173.5q-461 0 -461 490zM500 481q0 -149 94 -149q70 0 117 84t86 309q27 158 26 242q0 152 -94 151q-70 0 -116 -84t-85 -309q-29 -168 -28 -244z " />
<glyph unicode="1" horiz-adv-x="968" d="M158 1069q-27 41 16 72l385 282q39 27 94 27h273q70 0 61 -70l-231 -1310q-14 -70 -78 -70h-268q-74 0 -62 70l170 958l-184 -119q-47 -31 -74 6z" />
<glyph unicode="2" horiz-adv-x="1146" d="M-4 66l29 167q8 49 67 82q109 59 216.5 138t212 176.5t170 208t65.5 209.5q0 90 -97 90q-72 0 -101.5 -54.5t-29.5 -128.5q0 -92 -67 -92h-244q-59 0 -59 78q0 252 154.5 392.5t404.5 140.5q227 0 342 -100.5t115 -254.5q0 -412 -582 -780h385q72 0 59 -68l-35 -204 q-12 -66 -75 -66h-871q-72 0 -59 66z" />
<glyph unicode="3" horiz-adv-x="1097" d="M-18 131l67 199q27 63 86 41q139 -51 271 -52q100 0 162.5 41t62.5 129q0 94 -135 95h-138q-66 0 -53 65l33 187q12 65 78 65h123q74 0 121 35t47 102q0 98 -162 99q-129 0 -264 -47q-72 -18 -74 40v191q-2 55 59 80q174 70 396 69q195 0 324.5 -74.5t129.5 -234.5 q0 -127 -65.5 -227t-178.5 -150q72 -27 116 -98.5t44 -173.5q0 -266 -165 -399t-431 -133q-131 0 -248.5 21.5t-175.5 49.5q-51 23 -30 80z" />
<glyph unicode="4" horiz-adv-x="1214" d="M27 344l34 197q6 43 41 86l662 778q35 45 84 45h274q72 0 64 -70l-139 -780h94q72 0 59 -65l-35 -191q-8 -66 -75 -65h-99l-37 -209q-14 -70 -77 -70h-263q-76 0 -61 70l37 209h-506q-70 0 -57 65zM371 600h274l72 404z" />
<glyph unicode="5" horiz-adv-x="1120" d="M-17 79.5q-6 16.5 7 51.5l67 199q25 66 86 41q139 -51 281 -52q242 0 242 203q0 117 -158 117q-68 0 -139.5 -16.5t-92.5 -16.5q-18 0 -34 10l-86 31q-20 10 -24.5 23.5t3.5 42.5q33 117 84 342t68 323q14 72 78 72h714q72 0 60 -66l-37 -204q-8 -68 -76 -68h-457 q-25 -115 -51 -201q82 23 176 23q193 0 286 -90t93 -248q0 -309 -176 -462.5t-473 -153.5q-260 0 -404 71q-31 12 -37 28.5z" />
<glyph unicode="6" horiz-adv-x="1189" d="M84 451q0 98 16 217q59 389 234.5 597t507.5 208q164 0 270 -39q29 -12 37 -26.5t0 -49.5l-51 -191q-20 -59 -88 -47q-137 20 -181 21q-135 0 -200.5 -54.5t-89.5 -177.5q109 66 243 66q180 0 273.5 -102.5t93.5 -266.5q0 -266 -165 -447.5t-423 -181.5 q-242 0 -359.5 126t-117.5 348zM465 442q0 -131 133 -131q86 0 133 77t47 167q0 57 -33.5 91t-95.5 34q-92 0 -138 -72.5t-46 -165.5z" />
<glyph unicode="7" horiz-adv-x="1069" d="M121 68q61 264 232 562t356 482h-476q-72 0 -59 70l35 198q12 70 78 70h833q74 0 62 -70l-31 -174q-4 -18 -12.5 -35.5t-15.5 -26.5t-20 -24.5t-16 -17.5q-170 -201 -326.5 -485.5t-217.5 -548.5q-10 -37 -26.5 -52.5t-51.5 -15.5h-281q-77 0 -63 68z" />
<glyph unicode="8" horiz-adv-x="1200" d="M39 324q0 301 311 426q-76 35 -116.5 109.5t-40.5 162.5q0 121 48 212t130 141t180 74t211 24q213 0 339 -86.5t126 -241.5q0 -139 -74 -240.5t-201 -154.5q84 -35 134.5 -110t50.5 -181q0 -104 -34 -187.5t-91.5 -137.5t-136 -90t-164 -51.5t-181.5 -15.5 q-238 0 -364.5 95.5t-126.5 251.5zM453 397q0 -47 31.5 -75.5t88.5 -28.5q78 0 121 48t43 120q1 109 -110 160q-174 -80 -174 -224zM582 1020q0 -102 90 -146q156 76 155 213q0 93 -104 93q-72 0 -106.5 -45t-34.5 -115z" />
<glyph unicode="9" horiz-adv-x="1189" d="M131 92l53 191q16 59 86 47q143 -20 183 -21q133 0 199.5 54.5t88.5 177.5q-109 -66 -235 -66q-184 0 -278.5 102.5t-94.5 264.5q0 268 161 449.5t429 181.5q242 0 357.5 -124t115.5 -348q0 -147 -27 -280q-66 -362 -234.5 -553t-483.5 -191q-178 0 -281 39 q-57 20 -39 76zM502 903q0 -59 34.5 -96t94.5 -37q92 0 138 69.5t46 161.5q0 59 -32.5 98.5t-100.5 39.5q-84 0 -132 -74t-48 -162z" />
<glyph unicode=":" horiz-adv-x="585" d="M35 68l41 233q12 68 78 68h233q76 0 64 -68l-43 -233q-12 -68 -74 -68h-240q-71 0 -59 68zM168 823l41 236q12 66 80 65h233q74 0 62 -65l-41 -236q-12 -68 -76 -67h-240q-71 -1 -59 67z" />
<glyph unicode=";" horiz-adv-x="585" d="M28.5 -241.5q-5.5 16.5 8.5 40.5l123 201h-66q-72 0 -59 68l41 233q12 68 78 68h233q76 0 64 -68l-37 -207q-8 -45 -31 -80l-172 -235q-25 -37 -61 -37h-91q-25 0 -30.5 16.5zM168 823l41 236q12 66 80 65h233q74 0 62 -65l-41 -236q-12 -68 -76 -67h-240q-71 -1 -59 67z " />
<glyph unicode="&#x3c;" d="M152 717q4 33 34 55l727 561q55 43 91 -4l110 -151q33 -49 -20 -93l-486 -372l350 -373q41 -41 -10 -90l-160 -146q-53 -49 -94 -6l-526 564q-20 20 -16 55z" />
<glyph unicode="=" d="M111 385l30 174q12 63 72 64h762q70 0 57 -64l-31 -174q-12 -66 -73 -66h-760q-66 0 -57 66zM199 883l30 174q12 63 72 63h762q66 0 57 -63l-33 -174q-8 -66 -71 -66h-762q-68 0 -55 66z" />
<glyph unicode="&#x3e;" d="M117 254q-33 49 20 90l484 373l-351 373q-39 43 11 90l159 149q55 47 92 4l529 -561q22 -20 18 -53t-37 -57l-727 -564q-53 -45 -92 6z" />
<glyph unicode="?" horiz-adv-x="972" d="M207 68l43 241q12 68 80 68h250q74 0 61 -68l-43 -241q-12 -68 -74 -68h-256q-73 0 -61 68zM213 1130v199q-2 33 12.5 50.5t46.5 29.5q154 61 336 61q207 0 312.5 -76.5t105.5 -222.5q0 -90 -34 -173t-82 -141t-98 -108.5t-88 -98.5t-44 -87l-4 -20q-10 -63 -78 -64h-223 q-70 0 -60 66l4 18q14 63 62.5 129t96.5 113t86 111.5t38 130.5q0 82 -108 81q-96 0 -209 -38q-70 -16 -72 40z" />
<glyph unicode="@" horiz-adv-x="1787" d="M82 295q0 268 121 488.5t347 350.5t513 130q328 0 500 -133.5t172 -376.5q0 -154 -57.5 -307.5t-183.5 -268.5t-288 -115h-133q-55 0 -67 41l-27 86q-94 -127 -246 -127q-119 0 -196.5 69t-77.5 190q0 258 159.5 446t425.5 188q195 0 312 -65q23 -12 30 -25.5t-2 -38.5 l-184 -591h41q100 0 173 96t101.5 209.5t28.5 216.5q0 176 -119.5 258t-373.5 82q-336 0 -557.5 -217t-221.5 -582q0 -203 138.5 -291t429.5 -88q188 0 393 43q20 4 29.5 -3t7.5 -28l-4 -73q-2 -33 -39 -41q-197 -57 -393 -58q-360 0 -556 133.5t-196 401.5zM774 397 q0 -84 66 -84q94 1 149 181l66 211q-41 10 -72 10q-92 0 -150.5 -105.5t-58.5 -212.5z" />
<glyph unicode="A" horiz-adv-x="1255" d="M-44 21.5q-13 21.5 1 58.5l551 1300q16 37 36.5 53.5t61.5 16.5h379q78 0 84 -70l92 -1300v-12q0 -68 -67 -68h-275q-72 0 -71 66l-7 167h-299l-63 -167q-29 -66 -88 -66h-287q-35 0 -48 21.5zM551 580h203l-13 469h-8z" />
<glyph unicode="B" horiz-adv-x="1230" d="M18 70l232 1310q14 70 78 70h452q473 0 473 -307q0 -258 -233 -365q70 -25 114 -99.5t44 -174.5q0 -246 -159 -375t-423 -129h-516q-64 0 -64 52q0 8 2 18zM469 328h139q76 0 119 44t43 124q0 94 -119 94h-137zM567 893h119q150 0 150 147q0 82 -107 82h-121z" />
<glyph unicode="C" horiz-adv-x="1107" d="M84 461q0 117 27 268q74 414 245.5 579t481.5 165q182 0 309 -64q45 -18 45 -54q0 -15 -8 -34l-74 -191q-22 -50 -67 -50q-14 0 -31 5q-70 25 -154 25q-152 0 -221.5 -78t-108.5 -303q-22 -120 -22 -186v-6q0 -111 52 -154t173 -43q82 0 166 27q18 5 32 5q46 0 50 -50 l8 -191q2 -35 -13.5 -53.5t-51.5 -34.5q-143 -66 -308 -66q-260 0 -395 113t-135 371z" />
<glyph unicode="D" horiz-adv-x="1243" d="M18 70l232 1310q12 70 80 70h379q274 0 407 -113.5t133 -373.5q0 -96 -22 -238q-63 -397 -236.5 -561t-501.5 -164h-411q-62 0 -62 51q0 9 2 19zM481 362h54q119 0 179 74t97 289q20 115 20 188q0 98 -41 136t-133 38h-47z" />
<glyph unicode="E" horiz-adv-x="1050" d="M18 70l232 1310q12 70 78 70h749q64 0 64 -52q0 -8 -2 -18l-39 -217q-8 -69 -76 -69h-2h-416l-35 -187h385q63 0 63 -53q0 -7 -1 -16l-37 -203q-12 -70 -78 -70h-391l-37 -209h420q63 0 63 -50q0 -9 -2 -19l-38 -217q-12 -70 -78 -70h-760q-64 0 -64 52q0 8 2 18z" />
<glyph unicode="F" horiz-adv-x="1013" d="M18 72l232 1306q12 72 80 72h733q63 0 63 -51q0 -9 -2 -19l-39 -217q-8 -69 -75 -69h-2h-398l-41 -228h371q63 0 63 -50q0 -9 -2 -19l-36 -213q-12 -70 -80 -70h-379l-78 -442q-12 -72 -80 -72h-266q-66 0 -66 54q0 8 2 18z" />
<glyph unicode="G" horiz-adv-x="1249" d="M84 471q0 119 27 260q39 213 103.5 357.5t163.5 229.5t222 120t293 35q225 0 348 -72q31 -16 39 -33.5t-4 -54.5l-70 -191q-19 -49 -66 -49q-16 0 -36 6q-96 31 -205 31q-178 0 -254 -77t-117 -304q-20 -117 -20 -197q0 -113 49 -156.5t156 -43.5q51 0 75 8l46 256h-89 q-63 0 -63 51q0 9 2 19l31 174q12 69 78 69h383q61 0 61 -50q0 -8 -2 -19l-121 -686q-10 -59 -74 -93q-160 -84 -422 -84q-260 0 -397 114t-137 380z" />
<glyph unicode="H" horiz-adv-x="1249" d="M18 70l232 1310q12 70 78 70h272q64 0 64 -52q0 -8 -2 -18l-82 -460h249l80 460q12 70 78 70h270q65 0 65 -57q0 -6 -1 -13l-231 -1310q-14 -70 -78 -70h-273q-63 0 -63 52q0 8 2 18l86 483h-248l-86 -483q-12 -70 -78 -70h-272q-64 0 -64 52q0 8 2 18z" />
<glyph unicode="I" horiz-adv-x="606" d="M27 70l231 1310q12 70 78 70h272q64 0 63 -52q0 -8 -1 -18l-232 -1310q-12 -70 -78 -70h-272q-63 0 -63 52q0 8 2 18z" />
<glyph unicode="J" horiz-adv-x="876" d="M-31 129l72 199q19 52 63 52q10 0 21 -3q61 -20 119 -21q116 1 143 148l154 876q12 70 77 70h271q64 0 64 -55q0 -7 -1 -15l-166 -931q-43 -254 -162.5 -358.5t-344.5 -104.5q-168 0 -271 53q-44 19 -44 60q0 14 5 30z" />
<glyph unicode="K" horiz-adv-x="1210" d="M18 70l232 1310q12 70 78 70h272q64 0 64 -52q0 -8 -2 -18l-72 -403l303 409q45 63 102 64h297q40 0 48 -26q2 -7 2 -14q0 -21 -19 -46l-434 -576l225 -702q10 -35 -4 -60.5t-51 -25.5h-277q-66 0 -86 63l-168 560l-98 -553q-12 -70 -78 -70h-272q-64 0 -64 52q0 8 2 18z " />
<glyph unicode="L" horiz-adv-x="985" d="M18 70l232 1310q12 70 78 70h272q64 0 64 -52q0 -8 -2 -18l-181 -1009h353q63 0 63 -51q0 -9 -2 -19l-41 -231q-12 -70 -78 -70h-696q-64 0 -64 52q0 8 2 18z" />
<glyph unicode="M" horiz-adv-x="1497" d="M18 70l232 1310q12 70 78 70h239q68 0 82 -47l168 -506l348 506q29 47 88 47h252q65 0 65 -57q0 -6 -1 -13l-232 -1310q-14 -70 -77 -70h-261q-63 0 -63 49q0 10 2 21l117 663l-267 -381q-26 -45 -67 -45q-43 0 -55 45l-131 381l-117 -663q-12 -70 -78 -70h-260 q-64 0 -64 52q0 8 2 18z" />
<glyph unicode="N" horiz-adv-x="1275" d="M18 70l232 1310q12 70 78 70h245q70 0 84 -51l189 -617l104 598q12 70 78 70h258q64 0 64 -52q0 -8 -2 -18l-232 -1310q-12 -70 -78 -70h-247q-68 0 -84 51l-187 617l-104 -598q-12 -70 -78 -70h-258q-64 0 -64 52q0 8 2 18z" />
<glyph unicode="O" horiz-adv-x="1277" d="M82 457q0 111 29 270q74 414 236.5 580t447.5 166q238 0 364.5 -112t126.5 -368q0 -111 -29 -270q-72 -414 -236.5 -580t-447.5 -166q-238 0 -364.5 112t-126.5 368zM528.5 369.5q28.5 -33.5 87.5 -33.5q86 0 135.5 80t90.5 309q28 166 28 235v5q0 82 -28.5 115.5 t-87.5 33.5q-88 0 -136.5 -80t-89.5 -309q-28 -166 -28 -235q0 -87 28.5 -120.5z" />
<glyph unicode="P" horiz-adv-x="1208" d="M18 70l232 1310q12 70 78 70h415q254 0 377 -87t123 -292q0 -76 -14 -156q-47 -295 -194.5 -413.5t-440.5 -118.5h-111l-55 -313q-13 -70 -76 -70h-270q-66 0 -66 52q0 8 2 18zM545 735h90q88 0 125 38t55 142q10 57 10 86q0 51 -29.5 73t-97.5 22h-88z" />
<glyph unicode="Q" horiz-adv-x="1273" d="M86 477q0 119 27 260q72 406 234.5 571t445.5 165q238 0 363.5 -112t125.5 -366q0 -117 -27 -262q-79 -459 -360 -635q16 -2 53 -2q20 0 47 5t37 5q44 0 44 -40q0 -6 -1 -13l-33 -180q-8 -41 -26.5 -57.5t-59.5 -16.5q-274 0 -471 203q-186 8 -292.5 125t-106.5 350z M530.5 390q28.5 -34 87.5 -34q86 0 133.5 78t86.5 301q28 140 28 224v6q0 80 -28.5 114.5t-87.5 34.5q-86 0 -134.5 -79t-85.5 -300q-28 -160 -28 -227q0 -84 28.5 -118z" />
<glyph unicode="R" horiz-adv-x="1220" d="M18 70l232 1310q12 70 78 70h428q256 0 383 -85t127 -284q0 -63 -17 -155q-55 -319 -307 -432l143 -408q12 -37 -1 -61.5t-52 -24.5h-256q-74 0 -90 57l-115 371h-79l-64 -358q-12 -70 -76 -70h-270q-66 0 -66 52q0 8 2 18zM551 762h102q88 0 127 38t56 128q6 43 6 71 q0 53 -30 75t-101 22h-101z" />
<glyph unicode="S" horiz-adv-x="1071" d="M1 74.5q-9 17.5 1 56.5l70 195q21 52 63 52q16 0 35 -7q102 -41 231 -41q195 0 195 104q0 31 -35 61.5t-125 82.5q-274 141 -274 389q0 254 146.5 378.5t420.5 124.5q225 0 344 -55q33 -12 41 -30.5t-2 -55.5l-68 -192q-21 -52 -67 -52q-14 0 -31 5q-89 30 -200 30h-7 q-151 0 -151 -89q0 -77 149 -161q141 -82 213 -165.5t72 -212.5q0 -240 -161 -376t-417 -136q-270 0 -401 65q-33 12 -42 29.5z" />
<glyph unicode="T" horiz-adv-x="1030" d="M158 1151l41 229q12 70 77 70h814q64 0 64 -55q0 -7 -1 -15l-41 -229q-12 -70 -80 -70h-203l-180 -1011q-12 -70 -76 -70h-272q-63 0 -63 49q0 10 2 21l178 1011h-199q-63 0 -63 52q0 8 2 18z" />
<glyph unicode="U" horiz-adv-x="1234" d="M74 348q0 57 12 129l160 903q8 70 76 70h272q64 0 64 -55q0 -7 -1 -15l-151 -856q-10 -51 -10 -80q0 -98 100 -98q68 0 102.5 41t51.5 137l151 856q8 70 76 70h272q64 0 64 -52q0 -8 -2 -18l-160 -903q-45 -264 -186.5 -380.5t-409.5 -116.5q-481 0 -481 368z" />
<glyph unicode="V" horiz-adv-x="1243" d="M184 1370v8q0 72 66 72h289q70 0 73 -66l-2 -673l-8 -291h8l95 291l239 673q18 66 86 66h299q35 0 48.5 -21.5t-1.5 -58.5l-545 -1296q-30 -74 -96 -74h-383q-74 0 -80 74z" />
<glyph unicode="W" horiz-adv-x="1875" d="M188 1370v8q0 72 66 72h283q72 0 75 -66l-8 -561l-8 -305h6l98 305l189 563q23 64 84 64h250q76 0 75 -64l-10 -563l-10 -305h6l100 305l191 561q23 66 84 66h297q35 0 48 -21.5t-1 -58.5l-506 -1296q-31 -74 -98 -74h-322q-78 0 -80 74l-10 397l6 297h-6l-98 -297 l-152 -397q-31 -74 -96 -74h-324q-76 0 -77 74z" />
<glyph unicode="X" horiz-adv-x="1232" d="M-43 26.5q-10 26.5 12 59.5l459 651l-223 629q-12 29 2 56.5t51 27.5h291q70 0 88 -61l90 -306l197 306q39 61 98 61h289q37 0 46 -28.5t-14 -55.5l-444 -629l227 -651q12 -33 -3 -59.5t-52 -26.5h-287q-66 0 -86 63l-98 320l-211 -320q-43 -63 -100 -63h-285 q-37 0 -47 26.5z" />
<glyph unicode="Y" horiz-adv-x="1228" d="M186 1364q-8 33 8.5 59.5t55.5 26.5h280q74 0 84 -64l52 -317l14 -184h8l78 184l164 317q33 63 96 64h289q39 0 50 -28.5t-9 -57.5l-525 -823l-81 -471q-14 -70 -78 -70h-273q-63 0 -63 51q0 9 2 19l84 471z" />
<glyph unicode="Z" horiz-adv-x="1118" d="M0 70l39 215q10 57 55 108l574 688h-394q-61 0 -61 50q0 9 2 20l41 229q8 70 76 70h794q64 0 64 -52q0 -8 -2 -18l-37 -215q-10 -57 -55 -108l-574 -688h430q64 0 63 -52q0 -8 -1 -18l-39 -229q-14 -70 -78 -70h-836q-63 0 -63 52q0 8 2 18z" />
<glyph unicode="[" horiz-adv-x="706" d="M16 -162l273 1548q12 63 71 64h402q70 0 57 -64l-28 -163q-8 -63 -72 -64h-111l-194 -1093h104q69 -1 57 -64l-28 -164q-12 -63 -74 -63h-399q-66 0 -58 63z" />
<glyph unicode="\" horiz-adv-x="868" d="M193 1372q-14 78 63 78h209q66 0 76 -59l225 -1313q14 -78 -66 -78h-219q-35 0 -46 14.5t-17 44.5z" />
<glyph unicode="]" horiz-adv-x="706" d="M-63 -162l28 164q12 63 72 64h113l192 1093h-102q-70 0 -58 64l27 163q12 63 72 64h401q70 0 57 -64l-272 -1548q-12 -63 -72 -63h-401q-65 0 -57 63z" />
<glyph unicode="^" d="M131 733.5q-10 22.5 14 59.5l394 606q35 51 90 51h221q66 0 82 -51l180 -606q10 -37 -5 -59.5t-50 -22.5h-207q-63 0 -80 55l-86 311l-199 -311q-33 -55 -90 -55h-217q-37 0 -47 22.5z" />
<glyph unicode="_" horiz-adv-x="1011" d="M-92 -199l12 74q8 63 70 64h833q70 0 58 -64l-13 -74q-12 -65 -71 -65h-836q-66 0 -53 65z" />
<glyph unicode="`" horiz-adv-x="673" d="M250 1450q10 25 39 25h272q54 0 64 -45l32 -162q10 -51 -45 -51h-141q-55 0 -82 34l-133 156q-16 18 -6 43z" />
<glyph unicode="a" horiz-adv-x="1056" d="M8 248q0 106 34 186t89 128t140 78t173 42t201 14l8 49q3 13 3 24q0 31 -22 47q-28 22 -104 22q-106 0 -251 -45q-35 -10 -54.5 1t-17.5 44l4 170q2 57 61 75q168 59 353 60q211 0 313 -67.5t102 -211.5q0 -37 -10 -94l-123 -707q-12 -63 -71 -63h-203q-61 0 -68 51 l-4 45q-99 -108 -267 -108h-3q-129 0 -206 65.5t-77 194.5zM385 317q0 -71 72 -71h2q108 0 133 147l18 101q-96 -4 -160.5 -47.5t-64.5 -129.5z" />
<glyph unicode="b" horiz-adv-x="1161" d="M12 63l232 1323q12 63 71 64h258q60 0 60 -47q0 -8 -2 -17l-60 -339q92 98 252 98q317 0 318 -369q0 -98 -21 -215q-55 -311 -166.5 -446t-302.5 -135q-80 0 -157.5 34.5t-102.5 81.5l-20 -45q-18 -51 -76 -51h-225q-60 0 -60 46q0 8 2 17zM467 418q0 -125 92 -125 q66 0 103.5 59.5t64.5 210.5q18 115 18 152q0 116 -88 116h-2q-66 0 -105.5 -59t-66.5 -209q-16 -82 -16 -145z" />
<glyph unicode="c" horiz-adv-x="917" d="M53 389q1 78 19 180q53 301 200.5 438.5t393.5 137.5q74 0 152.5 -15.5t113.5 -35.5q33 -18 33 -49q0 -14 -7 -31l-65 -180q-17 -41 -58 -41q-13 0 -30 4q-76 20 -121 20q-94 0 -144.5 -55t-74.5 -197q-14 -86 -14 -116q0 -78 35.5 -110t109.5 -32q57 0 133 23q18 5 32 5 q40 0 44 -42l2 -178q2 -53 -55 -82q-106 -53 -258 -53q-211 0 -326 101t-115 308z" />
<glyph unicode="d" horiz-adv-x="1161" d="M51 340q0 88 23 223q53 305 165.5 443.5t301.5 138.5q80 0 153.5 -27.5t98.5 -70.5l59 339q12 63 72 64h258q59 0 59 -46q0 -8 -2 -18l-233 -1323q-12 -63 -72 -63h-225q-64 0 -66 51l-4 45q-43 -49 -118 -82.5t-150 -33.5q-319 0 -320 360zM451 409.5q0 -63.5 21.5 -90 t66.5 -26.5q66 0 105.5 59t66.5 211q16 94 16 144q0 68 -23.5 96t-70.5 28q-63 0 -101 -58t-65 -210q-16 -90 -16 -153.5z" />
<glyph unicode="e" horiz-adv-x="1075" d="M53 391q0 76 19 178q53 297 194.5 436.5t384.5 139.5q201 0 304.5 -97.5t103.5 -281.5q0 -76 -15 -156l-22 -118q-10 -70 -82 -70h-510q-2 -12 -2 -33q2 -66 48 -93.5t142 -27.5q109 0 232 41q35 10 54.5 -1t17.5 -44l-4 -145q-2 -55 -66 -82q-131 -57 -305 -57 q-494 0 -494 411zM459 649h241l5 23q10 61 10 92q0 102 -90 102q-66 0 -103 -47t-63 -170z" />
<glyph unicode="f" horiz-adv-x="720" d="M59 59l121 686h-49q-57 0 -57 44q0 8 2 18l33 190q12 61 69 62h55l15 76q33 186 121 257.5t268 71.5q115 0 170 -16q46 -14 46 -52q0 -6 -1 -12l-29 -153q-12 -66 -69 -66q-8 0 -25.5 1t-21.5 1q-45 0 -63.5 -16t-27.5 -61l-4 -31h113q59 0 59 -46q0 -8 -2 -18l-32 -186 q-12 -63 -72 -64h-121l-121 -686q-12 -59 -71 -59h-248q-60 0 -60 43q0 7 2 16z" />
<glyph unicode="g" horiz-adv-x="1110" d="M22 -167.5q-8 15.5 1 52.5l49 154q13 51 56 51q14 0 32 -6q127 -39 233 -39q104 0 156.5 38t68.5 126l9 43q-86 -98 -244 -98q-309 0 -309 313q0 78 18 182q47 264 153.5 379t280.5 115q86 0 150.5 -34t91.5 -81l20 45q20 51 78 51h211q59 0 59 -50q0 -6 -1 -13 l-154 -864q-41 -229 -176 -336t-393 -107q-250 0 -353 49q-29 14 -37 29.5zM467 537q0 -102 78 -103q55 0 89 51t52 162q10 51 10 103q0 106 -80 106q-55 0 -86.5 -50t-50.5 -159q-12 -70 -12 -110z" />
<glyph unicode="h" horiz-adv-x="1118" d="M12 63l232 1323q12 63 71 64h258q60 0 60 -47q0 -8 -2 -17l-60 -346q109 104 260 105q268 0 269 -277q-1 -61 -13 -131l-118 -674q-12 -63 -72 -63h-258q-59 0 -59 45q0 8 2 18l106 609q8 49 8 65q0 68 -63 68q-55 0 -86 -40t-47 -122l-103 -580q-12 -63 -69 -63h-258 q-60 0 -60 46q0 8 2 17z" />
<glyph unicode="i" horiz-adv-x="561" d="M16 63l177 998q8 63 71 63h256q60 0 60 -46q0 -8 -2 -17l-177 -998q-12 -63 -71 -63h-256q-60 0 -60 46q0 8 2 17zM225 1272l19 114q12 63 71 64h267q59 -1 59 -47q0 -8 -2 -17l-21 -114q-12 -63 -71 -64h-266q-58 0 -58 46q0 8 2 18z" />
<glyph unicode="j" horiz-adv-x="610" d="M-129 -158l33 185q12 59 67 59q4 0 17.5 -1t21.5 -1q33 0 49.5 18.5t24.5 67.5l158 891q8 63 71 63h256q60 0 60 -46q0 -8 -2 -17l-168 -955q-33 -195 -118 -270.5t-267 -75.5q-104 0 -160 17q-44 14 -44 52q0 6 1 13zM274 1272l19 114q12 63 72 64h266q59 -1 59 -47 q0 -8 -2 -17l-20 -114q-12 -63 -72 -64h-266q-58 0 -58 46q0 8 2 18z" />
<glyph unicode="k" horiz-adv-x="1081" d="M12 63l232 1323q12 63 71 64h258q60 0 60 -47q0 -8 -2 -17l-105 -591l217 276q37 53 97 53h278q37 0 44 -26.5t-19 -55.5l-350 -430l194 -532q14 -31 1 -55.5t-48 -24.5l-258 2q-68 0 -88 53l-129 389l-68 -381q-12 -63 -69 -63h-258q-60 0 -60 46q0 8 2 17z" />
<glyph unicode="l" horiz-adv-x="561" d="M16 63l232 1323q12 63 71 64h259q59 -1 59 -47q0 -8 -2 -17l-234 -1323q-12 -63 -69 -63h-258q-60 0 -60 46q0 8 2 17z" />
<glyph unicode="m" horiz-adv-x="1650" d="M8 63l176 998q8 63 72 63h227q61 0 66 -51l6 -51q119 123 272 123q188 0 234 -137q141 137 313 137q262 0 262 -264q0 -57 -12 -125l-123 -693q-12 -63 -71 -63h-252q-62 0 -62 46q0 8 2 17l109 613q6 33 6 61q0 70 -59 70q-100 0 -127 -160l-103 -584q-12 -63 -72 -63 h-249q-60 0 -60 46q0 8 2 17l109 613q6 37 6 63q0 68 -57 68q-98 0 -131 -160l-103 -584q-12 -63 -70 -63h-253q-60 0 -60 46q0 8 2 17z" />
<glyph unicode="n" horiz-adv-x="1114" d="M8 63l176 998q8 63 72 63h227q61 0 66 -51l6 -51q111 123 274 123q266 0 267 -273q-1 -61 -13 -131l-118 -678q-12 -63 -72 -63h-258q-59 0 -59 45q0 8 2 18l106 609q8 49 8 65q0 68 -63 68q-55 0 -86 -40t-47 -122l-103 -580q-12 -63 -69 -63h-258q-60 0 -60 46 q0 8 2 17z" />
<glyph unicode="o" horiz-adv-x="1116" d="M53 387q0 76 19 178q53 303 195.5 441.5t387.5 138.5q438 0 439 -408q0 -74 -17 -178q-55 -305 -197 -442t-388 -137q-438 0 -439 407zM444 394q0 -56 20 -80q20 -26 62 -25q61 0 96 59.5t62 214.5q20 104 21 166q0 106 -82 107q-63 0 -96 -58.5t-62 -214.5 q-21 -112 -21 -169z" />
<glyph unicode="p" horiz-adv-x="1157" d="M-33 -162l217 1223q8 63 72 63h225q62 0 66 -51l4 -45q43 49 114.5 83t147.5 34q324 0 324 -371q0 -96 -21 -213q-55 -307 -165.5 -444t-299.5 -137q-78 0 -153.5 28.5t-102.5 69.5l-41 -240q-12 -63 -71 -63h-258q-59 0 -59 50q0 6 1 13zM463 418q0 -125 92 -125 q66 0 103.5 59.5t64.5 210.5q16 102 16 150q0 66 -21.5 92t-66.5 26q-66 0 -105.5 -59t-66.5 -209q-16 -82 -16 -145z" />
<glyph unicode="q" horiz-adv-x="1157" d="M53 348q0 96 21 217q55 311 167.5 445.5t301.5 134.5q78 0 150.5 -33t109.5 -84l20 45q23 51 76 51h225q60 0 60 -46q0 -8 -2 -17l-215 -1223q-12 -63 -74 -63h-256q-58 0 -58 49q0 6 1 14l43 240q-94 -98 -252 -98q-317 0 -318 368zM451 410q0 -63 21.5 -90t66.5 -27 q63 0 104 60t68 210q16 92 16 144q0 124 -93 124h-1q-63 0 -101 -59t-65 -209q-16 -104 -16 -153z" />
<glyph unicode="r" horiz-adv-x="792" d="M8 63l176 998q9 63 72 63h231q35 0 49.5 -14t12.5 -45v-90q43 66 113.5 114t150.5 48q37 0 48 -14.5t3 -49.5l-49 -289q-10 -55 -65 -55q-12 0 -36 3t-40 3q-164 0 -193 -180l-88 -492q-12 -63 -69 -63h-258q-60 0 -60 46q0 8 2 17z" />
<glyph unicode="s" horiz-adv-x="894" d="M-19 51.5q-8 16.5 3 48.5l49 168q15 48 56 48q13 0 28 -5q79 -28 185 -28h7q145 0 146 55q0 27 -30 47.5t-103 54.5q-109 45 -171.5 109.5t-62.5 181.5q0 414 479 414q203 0 301 -39q38 -13 38 -48q0 -12 -5 -28l-47 -166q-14 -48 -57 -48q-11 0 -25 3q-88 25 -172 25 q-127 0 -127 -60q0 -29 36 -53t116 -61q213 -94 213 -289q0 -401 -498 -401q-195 0 -322 45q-29 10 -37 26.5z" />
<glyph unicode="t" horiz-adv-x="731" d="M70 807l32 190q12 61 70 62h57l41 233q12 61 74 62h244q59 0 59 -44q0 -8 -2 -18l-41 -233h119q59 0 59 -46q0 -8 -2 -18l-32 -186q-13 -64 -72 -64h-125l-62 -344q-3 -21 -3 -36q0 -25 8 -37q12 -20 59 -19q4 0 22.5 1t26.5 1q49 0 49 -42q0 -9 -2 -19l-33 -182 q-10 -51 -67 -66q-61 -16 -148 -16q-160 0 -235.5 55t-75.5 186q0 53 12 121l72 397h-49q-57 0 -57 44q0 8 2 18z" />
<glyph unicode="u" horiz-adv-x="1107" d="M45 242q0 40 10 108l127 711q8 63 72 63h258q58 0 58 -49q0 -7 -1 -14l-110 -615q-6 -37 -6 -61q0 -70 63 -70q55 0 84 38t43 116l105 592q12 63 71 63h258q59 0 59 -50q0 -6 -1 -13l-177 -998q-12 -63 -71 -63h-228q-61 0 -67 51l-6 51q-91 -122 -253 -122h-3 q-285 0 -285 262z" />
<glyph unicode="v" horiz-adv-x="1052" d="M123 1051q-1 6 -1 12q0 61 56 61h2h264q68 0 68 -63l-2 -422l-4 -223h8l76 223l147 422q23 63 84 63h277q33 0 43 -19.5t-4 -53.5l-451 -990q-27 -61 -88 -61h-299q-70 0 -78 61z" />
<glyph unicode="w" horiz-adv-x="1595" d="M127 1051v9q0 64 57 64h2h265q68 0 67 -63l-6 -412l-10 -215h4l72 215l155 418q21 57 74 57h192q61 0 62 -57l8 -418l-4 -215h4l66 215l137 412q25 63 84 63h276q33 0 43.5 -19.5t-4.5 -53.5l-403 -985q-25 -66 -88 -66h-258q-74 0 -80 68l-15 292l-2 254h-6l-90 -254 l-119 -292q-29 -68 -94 -68h-258q-70 0 -76 66z" />
<glyph unicode="x" horiz-adv-x="1058" d="M-52 22.5q-7 22.5 15 53.5l375 495l-195 478q-10 31 1.5 53t41.5 22h258q74 0 86 -51l64 -219l141 219q31 51 96 51h265q33 0 39 -22.5t-17 -52.5l-360 -478l198 -495q10 -31 -1 -53.5t-42 -22.5h-264q-74 0 -88 51l-63 225l-146 -225q-31 -51 -96 -51h-268 q-33 0 -40 22.5z" />
<glyph unicode="y" horiz-adv-x="1050" d="M-29 -156l33 174q8 59 68 60q14 0 46 -3t54 -3q82 0 82 67q0 10 -2 21l-125 891q-1 10 -1 18q0 55 54 55h2h264q70 0 70 -63l10 -424l2 -236h9l67 236l131 424q20 63 82 63h273q33 0 45 -19t-2 -54l-404 -957q-57 -133 -106.5 -198.5t-134.5 -100.5t-228 -35 q-174 0 -244 19q-46 14 -46 53q0 6 1 12z" />
<glyph unicode="z" horiz-adv-x="964" d="M-12 63l26 148q6 41 41 84l453 502h-307q-60 0 -60 47q0 8 2 18l37 199q8 63 72 63h690q58 0 58 -50q0 -6 -1 -13l-26 -148q-10 -47 -47 -88l-447 -497h336q57 0 57 -45q0 -9 -2 -19l-34 -201q-12 -63 -72 -63h-719q-59 0 -59 45q0 8 2 18z" />
<glyph unicode="{" horiz-adv-x="706" d="M31 516l32 193q12 63 76 63h21q41 0 70.5 57.5t54.5 202.5q45 258 126 338t275 80h100q66 0 54 -64l-29 -161q-8 -63 -76 -64h-20q-35 0 -51.5 -39t-36.5 -153q-53 -307 -250 -357q139 -39 139 -221q0 -45 -14 -135q-18 -119 -19 -141q0 -51 37 -52h23q66 0 53 -63 l-29 -162q-12 -63 -75 -63h-101q-152 0 -214 44t-62 171q0 74 22 203q18 106 19 163q0 96 -54 97h-20q-63 0 -51 63z" />
<glyph unicode="|" horiz-adv-x="653" d="M154 -162v1589q0 63 63 64h219q66 -1 66 -64v-1589q0 -63 -66 -63h-219q-63 0 -63 63z" />
<glyph unicode="}" horiz-adv-x="706" d="M-82 -162l27 162q12 63 75 63h23q35 0 51.5 39t34.5 152q53 307 250 358q-137 39 -137 219q0 47 14 138q16 102 16 137q0 55 -36 55h-21q-66 0 -53 64l26 161q12 63 76 64h101q152 0 214 -44t62 -169q0 -74 -23 -205q-18 -106 -18 -164q0 -96 53 -96h21q61 0 53 -63 l-35 -193q-12 -63 -76 -63h-20q-41 0 -69.5 -56.5t-55.5 -203.5q-31 -178 -77 -266.5t-118.5 -120t-205.5 -31.5h-101q-63 0 -51 63z" />
<glyph unicode="~" d="M104 666q33 137 107.5 221t191.5 84q111 0 201 -51l96 -56q51 -29 88 -28q57 0 91 63l18 33q29 53 82 22l123 -67q45 -27 31 -86q-33 -133 -109 -217t-190 -84q-113 0 -201 53l-96 53q-51 29 -88 29q-55 0 -93 -64l-16 -32q-29 -53 -82 -23l-123 70q-43 23 -31 80z" />
<glyph unicode="&#xa1;" horiz-adv-x="600" d="M-39 -213l199 795q15 63 78 63h180q68 0 61 -63l-82 -795q-6 -70 -73 -70h-308q-74 0 -55 70zM166 815l43 242q12 68 76 67h254q71 1 59 -67l-43 -242q-12 -68 -78 -67h-250q-74 0 -61 67z" />
<glyph unicode="&#xa2;" horiz-adv-x="956" d="M59 395q1 88 17 172q96 532 518 572l20 121q12 59 70 59h94q59 0 51 -59l-20 -121q106 -16 154 -45q49 -27 26 -80l-67 -180q-23 -55 -88 -37q-78 20 -132 20q-98 0 -153 -55t-80 -197q-12 -68 -12 -110q0 -80 39 -114t120 -34q66 0 142 23q70 20 76 -37l4 -178 q2 -53 -56 -82q-55 -31 -176 -45l-22 -121q-10 -61 -70 -62h-92q-63 0 -51 62l20 121q-154 18 -243 121.5t-89 285.5z" />
<glyph unicode="&#xa3;" horiz-adv-x="1204" d="M18 207q-23 47 25 74q123 78 184 161.5t49 198.5h-139q-53 0 -45 51l12 74q8 51 56 51h71q-20 78 -20 139q0 248 160.5 382.5t406.5 134.5q209 0 322.5 -83t113.5 -243q0 -188 -84 -189h-233q-49 0 -49 33q0 18 7 47t7 43q0 63 -104 64q-160 0 -160 -205q0 -45 12 -123 h250q53 0 45 -51l-14 -74q-8 -51 -55 -51h-207q0 -111 -39 -184.5t-127 -137.5q51 14 102 15q33 0 84 -11.5t80 -11.5q72 0 96 88q12 57 78 58h182q76 0 64 -82q-37 -199 -109.5 -295t-218.5 -96q-86 0 -207.5 33.5t-187.5 33.5q-125 0 -223 -47q-61 -27 -80 4z" />
<glyph unicode="&#xa4;" horiz-adv-x="1157" d="M152 205q-35 34 0 69l77 76q-49 96 -49 231.5t49 231.5l-77 78q-33 35 0 67l49 50q35 33 69 0l62 -64q96 72 248 72q150 0 247 -72l62 64q33 33 67 0l50 -50q35 -33 0 -67l-78 -78q49 -96 49 -231.5t-49 -231.5l78 -76q35 -35 0 -69l-50 -47q-35 -35 -67 0l-62 61 q-96 -72 -247 -72q-156 0 -248 72l-62 -61q-33 -33 -69 0zM459 581.5q0 -184.5 120.5 -184.5t120.5 184.5t-120.5 184.5t-120.5 -184.5z" />
<glyph unicode="&#xa5;" horiz-adv-x="1204" d="M96 373l13 73q8 51 57 52h235l5 24l-27 109h-182q-53 0 -45 49l12 76q8 49 57 49h113l-152 559q-8 33 8.5 59.5t55.5 26.5h282q74 0 84 -64l60 -489h8l233 489q33 63 99 64h282q39 0 50.5 -28.5t-11.5 -57.5l-346 -559h109q51 0 43 -49l-13 -76q-8 -49 -55 -49h-188 l-66 -109l-4 -24h227q51 0 43 -52l-12 -73q-8 -51 -55 -51h-234l-45 -252q-14 -70 -78 -70h-272q-76 0 -61 70l45 252h-230q-53 0 -45 51z" />
<glyph unicode="&#xa6;" horiz-adv-x="653" d="M154 -162v565q0 63 63 64h219q66 -1 66 -64v-565q0 -63 -66 -63h-219q-63 0 -63 63zM154 862v565q0 63 63 64h219q66 -1 66 -64v-565q0 -63 -66 -63h-219q-63 0 -63 63z" />
<glyph unicode="&#xa7;" horiz-adv-x="1196" d="M16 -111l52 174q23 68 94 48q86 -31 256 -31q217 0 217 82q0 18 -10.5 33.5t-33 28t-42 21.5t-54 22.5t-55.5 21.5q-182 76 -262 139t-80 178q0 92 46 170t128 125q-51 72 -51 158q0 217 148.5 315.5t388.5 98.5q227 0 350 -46q33 -10 42 -28.5t-1 -55.5l-51 -174 q-20 -66 -94 -47q-98 29 -220 29q-162 0 -170 -80q0 -20 10.5 -37.5t33 -31t42 -21.5t55.5 -21.5t54 -21.5q172 -72 253 -141.5t81 -184.5q0 -164 -172 -286q55 -61 55 -158q0 -113 -52 -196t-141.5 -128t-189.5 -65.5t-215 -20.5q-244 0 -369 47q-61 20 -43 84zM467 655 q0 -45 59.5 -79.5t208.5 -92.5q39 35 39 88q0 45 -61.5 82t-206.5 90q-39 -29 -39 -88z" />
<glyph unicode="&#xa8;" horiz-adv-x="673" d="M104 1278l21 119q12 61 70 61h202q68 0 56 -61l-21 -119q-12 -61 -70 -61h-202q-68 0 -56 61zM528 1278l21 119q8 61 67 61h203q66 0 58 -61l-21 -119q-12 -61 -72 -61h-202q-66 0 -54 61z" />
<glyph unicode="&#xa9;" horiz-adv-x="1648" d="M92 725q0 322 191.5 535t542 213t542 -213t191.5 -535t-191.5 -535t-542 -213t-542 213t-191.5 535zM295 725q0 -256 130 -409.5t400.5 -153.5t400.5 153.5t130 409.5t-130 409.5t-400.5 153.5t-400.5 -153.5t-130 -409.5zM473 739q2 231 97.5 330.5t289.5 99.5 q109 0 191 -34q43 -18 32 -62l-26 -121q-10 -41 -60 -28q-57 14 -96 14q-74 0 -107.5 -43t-33.5 -156q0 -119 33.5 -161.5t111.5 -42.5q49 0 98.5 16t59.5 -29l27 -121q10 -43 -31 -59q-68 -39 -195 -39q-197 0 -293 100.5t-98 335.5z" />
<glyph unicode="&#xaa;" horiz-adv-x="839" d="M168 1206q0 84 27.5 146.5t70.5 99.5t111.5 59.5t136.5 30.5t158 10l6 39q6 37 -14.5 55.5t-75.5 18.5q-82 0 -203 -37q-61 -16 -61 39l2 127q0 45 51 61q127 47 276 48q164 0 245 -55.5t81 -176.5q0 -37 -6 -76l-94 -532q-8 -53 -64 -53h-158q-51 0 -55 41l-4 26 q-88 -80 -211 -80q-92 0 -155.5 56.5t-63.5 152.5zM469 1264q0 -61 59 -62q83 0 103 115l12 76q-174 -4 -174 -129z" />
<glyph unicode="&#xab;" horiz-adv-x="1071" d="M72 612q4 16 12 29l192 293q31 47 80 47h217q31 0 39.5 -17.5t-10.5 -45.5l-199 -306l93 -305q8 -29 -4.5 -46t-42.5 -17h-216q-57 0 -69 47l-88 293q-6 16 -4 28zM539 610q4 14 14 31l192 293q29 47 80 47h215q31 0 40.5 -17.5t-9.5 -45.5l-201 -306l95 -305 q16 -63 -47 -63h-218q-55 0 -67 47l-90 293q-4 10 -4 26z" />
<glyph unicode="&#xac;" horiz-adv-x="1181" d="M119 629l35 188q8 63 71 64h844q65 -1 57 -64l-100 -557q-8 -66 -72 -65h-247q-68 0 -56 63l54 307h-529q-66 0 -57 64z" />
<glyph unicode="&#xad;" horiz-adv-x="702" d="M68 510l32 184q12 66 72 66h451q70 0 57 -64l-33 -186q-13 -64 -72 -64h-450q-70 0 -57 64z" />
<glyph unicode="&#xae;" horiz-adv-x="884" d="M82 1112q0 154 95 257.5t265 103.5t265.5 -103.5t95.5 -257.5t-95.5 -257t-265.5 -103t-265 103t-95 257zM174 1112q0 -125 67.5 -199.5t200.5 -74.5t201 74.5t68 199.5t-68 199.5t-201 74.5t-200.5 -74.5t-67.5 -199.5zM297 940v354q0 25 27 25h129q84 0 126 -34 t42 -114q0 -90 -66 -120l59 -107q6 -10 2 -19.5t-14 -9.5h-84q-23 0 -31 19l-47 96h-14v-90q0 -25 -27 -25h-75q-27 0 -27 25zM426 1130h25q23 0 32 9.5t9 31.5q0 25 -9.5 34t-31.5 9h-25v-84z" />
<glyph unicode="&#xaf;" horiz-adv-x="673" d="M125 1288l16 98q12 59 66 60h596q61 0 53 -60l-18 -98q-9 -59 -68 -59h-594q-63 0 -51 59z" />
<glyph unicode="&#xb0;" horiz-adv-x="761" d="M172 1098q0 152 105.5 259t267.5 107q125 0 204.5 -74.5t79.5 -189.5q0 -152 -106 -259t-266 -107q-125 0 -205 74.5t-80 189.5zM358 1118q0 -51 34 -82.5t87 -31.5q68 0 115 50t47 124q0 53 -33 85.5t-86 32.5q-70 0 -117 -52t-47 -126z" />
<glyph unicode="&#xb1;" d="M14 63l21 125q12 63 71 64h844q70 0 58 -64l-23 -125q-13 -63 -72 -63h-841q-70 0 -58 63zM135 750l33 184q12 66 72 65h247l43 242q12 63 72 64h225q70 0 58 -64l-43 -242h239q70 0 58 -65l-33 -184q-9 -64 -72 -64h-248l-45 -252q-12 -66 -73 -65h-224q-68 0 -55 65 l43 252h-242q-68 0 -55 64z" />
<glyph unicode="&#xb2;" horiz-adv-x="786" d="M178 1059l19 106q4 29 45 54q143 82 261 189.5t128 213.5q6 61 -49 61q-76 0 -76 -102q0 -53 -47 -53h-156q-45 0 -45 49q0 160 100.5 244t262.5 84q143 0 218.5 -62.5t75.5 -167.5q0 -238 -344 -446h226q53 0 47 -49l-23 -121q-10 -49 -55 -49h-545q-53 0 -43 49z" />
<glyph unicode="&#xb3;" horiz-adv-x="786" d="M178 1094l41 125q18 45 66 26q86 -29 168 -28q121 0 120 94q1 49 -73 49h-84q-53 0 -45 49l18 98q6 49 53 49h86q41 0 67 20.5t26 57.5q0 53 -99 54q-86 0 -157 -29q-53 -14 -56 27v122q0 39 39 54q106 43 250 43q133 0 219 -49.5t86 -147.5q0 -78 -43 -141.5t-112 -87.5 q100 -43 100 -166q0 -160 -104.5 -239t-264.5 -79q-188 0 -278 45q-37 16 -23 54z" />
<glyph unicode="&#xb4;" horiz-adv-x="673" d="M295 1231q-8 14 2 37l88 162q18 45 68 45h276q31 0 36 -25t-17 -43l-177 -156q-37 -35 -86 -34h-155q-27 0 -35 14z" />
<glyph unicode="&#xb5;" horiz-adv-x="1107" d="M-33 -162l217 1223q8 63 72 63h258q68 0 55 -63l-102 -586q-6 -37 -6 -65q0 -94 82 -95q47 0 65.5 29t30.5 98l111 619q8 63 71 63h258q66 0 58 -63l-129 -731q-35 -190 -115 -270t-238 -80q-94 0 -164.5 35.5t-97.5 86.5l-41 -264q-10 -63 -76 -63h-251q-66 0 -58 63z " />
<glyph unicode="&#xb6;" horiz-adv-x="1107" d="M152 891q2 244 151.5 401.5t405.5 157.5h454q63 0 51 -57l-12 -72q-10 -57 -63 -57h-64q-57 0 -84.5 -26t-38.5 -89l-198 -1129q-25 -137 -78 -197.5t-178 -60.5q-119 0 -164 23q-35 14 -27 51l12 76q6 39 50 39q12 0 38.5 -3t43.5 -3q39 0 58 21.5t30 82.5l84 467h-43 q-193 0 -310.5 98.5t-117.5 276.5z" />
<glyph unicode="&#xb7;" horiz-adv-x="512" d="M66 459l40 233q12 68 78 68h234q76 0 63 -68l-41 -233q-12 -68 -75 -68h-240q-71 0 -59 68z" />
<glyph unicode="&#xb8;" horiz-adv-x="673" d="M66 -291l14 84q6 31 39 31h71q33 0 55.5 18.5t22.5 46.5q0 81 -135 140h115q86 -20 148.5 -77.5t62.5 -129.5q0 -86 -65.5 -128t-168.5 -42q-96 0 -135 14q-31 10 -24 43z" />
<glyph unicode="&#xb9;" horiz-adv-x="786" d="M299 1640q-23 35 14 62l240 170q29 18 68 18h167q59 0 50 -53l-138 -774q-10 -53 -59 -53h-168q-57 0 -47 53l96 547l-104 -64q-43 -25 -66 6z" />
<glyph unicode="&#xba;" horiz-adv-x="880" d="M205 1313q0 68 14 139q43 240 153.5 346.5t303.5 106.5q342 0 342 -316q0 -66 -12 -141q-43 -240 -153.5 -346.5t-303.5 -106.5q-344 0 -344 318zM508 1325q0 -88 67 -88q51 0 78 46t47 167q14 78 15 127q0 86 -66 86q-49 0 -75.5 -46t-49.5 -167q-16 -86 -16 -125z" />
<glyph unicode="&#xbb;" horiz-adv-x="1071" d="M39 261.5q-8 17.5 10 45.5l201 305l-94 306q-16 63 45 63h217q55 0 71 -47l89 -293q6 -17 2 -29q0 -14 -13 -28l-190 -293q-31 -47 -82 -47h-217q-31 0 -39 17.5zM506 261.5q-8 17.5 10 45.5l201 305l-94 306q-16 63 47 63h217q55 0 71 -47l86 -293q7 -19 5 -29 q-4 -18 -13 -28l-190 -293q-35 -47 -84 -47h-217q-31 0 -39 17.5z" />
<glyph unicode="&#xbc;" horiz-adv-x="1839" d="M221 1200q-23 35 15 62l239 170q27 18 68 18h168q59 0 49 -53l-137 -774q-10 -53 -60 -54h-168q-57 0 -47 54l96 546l-104 -63q-43 -25 -66 6zM412 61l907 1334q37 55 88 55h145q31 0 39 -16t-12 -45l-905 -1334q-39 -55 -92 -55h-146q-66 0 -24 61zM1040 211l23 125 q2 29 27 57l403 457q27 31 59 31h172q59 0 50 -54l-80 -450h43q57 0 45 -53l-19 -107q-8 -51 -57 -51h-49l-21 -113q-10 -53 -59 -53h-164q-59 0 -49 53l20 113h-301q-49 0 -43 45zM1266 377h155l39 219z" />
<glyph unicode="&#xbd;" horiz-adv-x="1839" d="M221 1200q-23 35 15 62l239 170q27 18 68 18h168q59 0 49 -53l-137 -774q-10 -53 -60 -54h-168q-57 0 -47 54l96 546l-104 -63q-43 -25 -66 6zM358 61l908 1334q37 55 88 55h145q31 0 39 -16t-12 -45l-905 -1334q-39 -55 -93 -55h-145q-66 0 -25 61zM1063 49 q-10 -49 43 -49h545q45 0 55 49l23 121q6 49 -48 49h-225q344 209 344 447q0 104 -75.5 166.5t-219.5 62.5q-162 0 -262 -84t-100 -244q0 -49 45 -49h155q48 0 48 53q0 102 75 103q55 0 50 -62q-10 -106 -128 -213.5t-262 -189.5q-41 -25 -45 -53z" />
<glyph unicode="&#xbe;" horiz-adv-x="1839" d="M100 653l41 125q18 45 66 27q86 -29 168 -29q121 0 121 94q0 50 -74 50h-84q-53 0 -45 49l18 98q6 49 54 49h86q41 0 66.5 20.5t25.5 57.5q0 53 -99 53q-86 0 -157 -28q-53 -14 -56 26v123q0 39 39 53q106 43 250 43q133 0 219 -49t86 -147q0 -78 -43 -141.5t-112 -88.5 q100 -43 100 -166q0 -160 -104.5 -238.5t-264.5 -78.5q-188 0 -278 45q-37 16 -23 53zM434 61l907 1334q37 55 89 55h145q31 0 39 -16t-12 -45l-906 -1334q-41 -55 -92 -55h-145q-66 0 -25 61zM1040 211l23 125q2 29 27 57l403 457q27 31 59 31h172q59 0 50 -54l-80 -450h43 q57 0 45 -53l-19 -107q-8 -51 -57 -51h-49l-21 -113q-10 -53 -59 -53h-164q-59 0 -49 53l20 113h-301q-49 0 -43 45zM1266 377h155l39 219z" />
<glyph unicode="&#xbf;" horiz-adv-x="925" d="M-25 -25q0 -131 107.5 -204.5t298.5 -73.5q193 0 350 63q33 12 47.5 29.5t12.5 50.5v197q-2 61 -72 41q-125 -37 -209 -37q-111 0 -111 76q0 55 40 115.5t89.5 107.5t94.5 108.5t53 112.5l4 19q10 66 -62 65h-221q-68 1 -78 -65l-2 -19q-6 -45 -45 -93t-87 -94 t-96 -100.5t-81 -132.5t-33 -166zM354 815l43 242q12 68 76 67h254q71 1 59 -67l-43 -244q-12 -66 -77 -65h-250q-74 0 -62 67z" />
<glyph unicode="&#xc0;" horiz-adv-x="1255" d="M-44 21.5q-13 21.5 1 58.5l551 1300q16 37 36.5 53.5t61.5 16.5h379q78 0 84 -70l92 -1300q6 -80 -67 -80h-275q-72 0 -71 66l-7 167h-299l-63 -167q-29 -66 -88 -66h-287q-35 0 -48 21.5zM541 1771q10 25 39 25h278q58 0 64 -45l30 -164q6 -51 -45 -51h-155 q-55 0 -82 35l-123 155q-16 20 -6 45zM551 580h203l-13 469h-8z" />
<glyph unicode="&#xc1;" horiz-adv-x="1255" d="M-44 21.5q-13 21.5 1 58.5l551 1300q16 37 36.5 53.5t61.5 16.5h379q78 0 84 -70l92 -1300q6 -80 -67 -80h-275q-72 0 -71 66l-7 167h-299l-63 -167q-29 -66 -88 -66h-287q-35 0 -48 21.5zM551 580h203l-13 469h-8zM698 1587l86 164q27 45 72 45h279q20 0 28 -12t4 -28.5 t-18 -29.5l-174 -155q-41 -35 -90 -35h-156q-58 0 -31 51z" />
<glyph unicode="&#xc2;" horiz-adv-x="1255" d="M-44 21.5q-13 21.5 1 58.5l551 1300q16 37 36.5 53.5t61.5 16.5h379q78 0 84 -70l92 -1300q6 -80 -67 -80h-275q-72 0 -71 66l-7 167h-299l-63 -167q-29 -66 -88 -66h-287q-35 0 -48 21.5zM481 1556.5q-6 20.5 17 40.5l204 183q41 35 86 35h144q55 0 82 -35l143 -183 q14 -20 3 -40.5t-40 -20.5h-123q-46 0 -71 35l-84 90l-115 -90q-39 -35 -80 -35h-131q-29 0 -35 20.5zM551 580h203l-13 469h-8z" />
<glyph unicode="&#xc3;" horiz-adv-x="1255" d="M-44 21.5q-13 21.5 1 58.5l551 1300q16 37 36.5 53.5t61.5 16.5h379q78 0 84 -70l92 -1300q6 -80 -67 -80h-275q-72 0 -71 66l-7 167h-299l-63 -167q-29 -66 -88 -66h-287q-35 0 -48 21.5zM467 1616q31 186 199 186q84 0 153 -26l72 -31q106 -43 127 4l4 12q16 37 61 37 h82q57 0 43 -88q-33 -180 -194 -180q-88 0 -156 29l-72 30q-109 41 -127 -6l-4 -10q-16 -37 -61 -37h-82q-33 0 -43 16.5t-2 63.5zM551 580h203l-13 469h-8z" />
<glyph unicode="&#xc4;" horiz-adv-x="1255" d="M-44 21.5q-13 21.5 1 58.5l551 1300q16 37 36.5 53.5t61.5 16.5h379q78 0 84 -70l92 -1300q6 -80 -67 -80h-275q-72 0 -71 66l-7 167h-299l-63 -167q-29 -66 -88 -66h-287q-35 0 -48 21.5zM444 1597l21 119q12 61 70 62h204q68 -1 56 -62l-21 -119q-8 -61 -69 -61h-205 q-66 0 -56 61zM551 580h203l-13 469h-8zM879 1597l20 119q12 61 70 62h205q67 -1 55 -62l-21 -119q-12 -61 -71 -61h-205q-66 0 -53 61z" />
<glyph unicode="&#xc5;" horiz-adv-x="1255" d="M-44 21.5q-13 21.5 1 58.5l551 1300q25 57 72 68q-9 22 -9 55q0 111 76 183.5t193 72.5q94 0 156.5 -53t62.5 -135q0 -68 -33 -127q37 -12 43 -64l92 -1300q6 -80 -67 -80h-275q-72 0 -71 66l-7 167h-299l-63 -167q-29 -66 -88 -66h-287q-35 0 -48 21.5zM551 580h203 l-13 469h-8zM725 1524q0 -33 22.5 -52.5t57.5 -19.5q41 0 70.5 26.5t29.5 71.5q0 31 -22.5 51.5t-57.5 20.5q-41 0 -70.5 -27.5t-29.5 -70.5z" />
<glyph unicode="&#xc6;" horiz-adv-x="1642" d="M-55.5 21.5q-12.5 21.5 4.5 58.5l579 1300q31 70 101 70h1040q72 0 60 -70l-37 -217q-8 -70 -78 -69h-381l-35 -187h350q72 0 62 -69l-37 -203q-12 -70 -78 -70h-356l-37 -209h385q74 0 61 -69l-39 -217q-12 -70 -77 -70h-721q-74 0 -62 70l29 166h-242l-69 -170 q-31 -66 -91 -66h-284q-35 0 -47.5 21.5zM557 580h182l92 514h-57z" />
<glyph unicode="&#xc7;" horiz-adv-x="1107" d="M84 461q0 117 27 268q74 414 245.5 579t481.5 165q182 0 309 -64q63 -25 37 -88l-74 -191q-29 -66 -98 -45q-70 25 -154 25q-152 0 -221.5 -78t-108.5 -303q-23 -125 -22 -192q0 -111 52 -154t173 -43q82 0 166 27q76 20 82 -45l8 -191q2 -35 -13.5 -53.5t-51.5 -34.5 q-133 -61 -281 -66q88 -57 88 -147q0 -96 -68.5 -145.5t-175.5 -49.5q-94 0 -141 17q-33 10 -27 43l17 86q6 31 39 31h78q84 0 84 71q0 55 -70 105q-381 55 -381 473z" />
<glyph unicode="&#xc8;" horiz-adv-x="1050" d="M18 70l232 1310q12 70 78 70h749q74 0 62 -70l-39 -217q-8 -70 -78 -69h-416l-35 -187h385q72 0 62 -69l-37 -203q-12 -70 -78 -70h-391l-37 -209h420q74 0 61 -69l-38 -217q-12 -70 -78 -70h-760q-74 0 -62 70zM479 1771q10 25 39 25h279q57 0 63 -45l31 -164 q6 -51 -45 -51h-156q-55 0 -82 35l-123 155q-16 20 -6 45z" />
<glyph unicode="&#xc9;" horiz-adv-x="1050" d="M18 70l232 1310q12 70 78 70h749q74 0 62 -70l-39 -217q-8 -70 -78 -69h-416l-35 -187h385q72 0 62 -69l-37 -203q-12 -70 -78 -70h-391l-37 -209h420q74 0 61 -69l-38 -217q-12 -70 -78 -70h-760q-74 0 -62 70zM584 1587l86 164q27 45 71 45h279q20 0 28.5 -12 t4.5 -28.5t-19 -29.5l-174 -155q-41 -35 -90 -35h-156q-57 0 -30 51z" />
<glyph unicode="&#xca;" horiz-adv-x="1050" d="M18 70l232 1310q12 70 78 70h749q74 0 62 -70l-39 -217q-8 -70 -78 -69h-416l-35 -187h385q72 0 62 -69l-37 -203q-12 -70 -78 -70h-391l-37 -209h420q74 0 61 -69l-38 -217q-12 -70 -78 -70h-760q-74 0 -62 70zM395 1556.5q-6 20.5 17 40.5l204 183q41 35 86 35h144 q55 0 82 -35l143 -183q14 -20 3 -40.5t-40 -20.5h-123q-46 0 -71 35l-84 90l-115 -90q-39 -35 -80 -35h-131q-29 0 -35 20.5z" />
<glyph unicode="&#xcb;" horiz-adv-x="1050" d="M18 70l232 1310q12 70 78 70h749q74 0 62 -70l-39 -217q-8 -70 -78 -69h-416l-35 -187h385q72 0 62 -69l-37 -203q-12 -70 -78 -70h-391l-37 -209h420q74 0 61 -69l-38 -217q-12 -70 -78 -70h-760q-74 0 -62 70zM356 1597l21 119q12 61 69 62h205q68 -1 56 -62l-21 -119 q-10 -61 -70 -61h-204q-63 0 -56 61zM791 1597l20 119q12 61 70 62h204q68 -1 56 -62l-21 -119q-12 -61 -71 -61h-205q-66 0 -53 61z" />
<glyph unicode="&#xcc;" horiz-adv-x="606" d="M27 70l231 1310q12 70 78 70h272q74 0 62 -70l-232 -1310q-12 -70 -78 -70h-272q-73 0 -61 70zM227.5 1771q10.5 25 38.5 25h279q57 0 63 -45l31 -164q6 -51 -45 -51h-156q-55 0 -82 35l-123 155q-16 20 -5.5 45z" />
<glyph unicode="&#xcd;" horiz-adv-x="606" d="M27 70l231 1310q12 70 78 70h272q74 0 62 -70l-232 -1310q-12 -70 -78 -70h-272q-73 0 -61 70zM373 1587l86 164q27 45 71 45h279q20 0 28.5 -12t4.5 -28.5t-19 -29.5l-174 -155q-41 -35 -90 -35h-156q-57 0 -30 51z" />
<glyph unicode="&#xce;" horiz-adv-x="606" d="M27 70l231 1310q12 70 78 70h272q74 0 62 -70l-232 -1310q-12 -70 -78 -70h-272q-73 0 -61 70zM158 1556.5q-6 20.5 16 40.5l205 183q41 35 86 35h143q55 0 82 -35l144 -183q14 -20 2.5 -40.5t-39.5 -20.5h-123q-47 0 -72 35l-84 90l-115 -90q-39 -35 -79 -35h-131 q-29 0 -35 20.5z" />
<glyph unicode="&#xcf;" horiz-adv-x="606" d="M27 70l231 1310q12 70 78 70h272q74 0 62 -70l-232 -1310q-12 -70 -78 -70h-272q-73 0 -61 70zM121 1597l20 119q12 61 70 62h205q67 -1 55 -62l-20 -119q-8 -61 -70 -61h-205q-66 0 -55 61zM555 1597l20 119q12 61 70 62h205q67 -1 55 -62l-20 -119q-12 -61 -72 -61 h-205q-66 0 -53 61z" />
<glyph unicode="&#xd0;" horiz-adv-x="1247" d="M23 70l98 555h-37q-51 0 -43 51l16 100q8 51 60 51h41l96 553q12 70 80 70h379q274 0 407 -113.5t133 -373.5q0 -96 -22 -238q-63 -397 -236 -561t-501 -164h-412q-72 0 -59 70zM485 362h54q119 0 179 74t97 289q20 115 21 188q0 98 -41 136t-133 38h-48l-47 -260h115 q53 0 45 -51l-18 -100q-8 -51 -60 -51h-117z" />
<glyph unicode="&#xd1;" horiz-adv-x="1275" d="M18 70l232 1310q12 70 78 70h245q70 0 84 -51l189 -617l104 598q12 70 78 70h258q74 0 62 -70l-232 -1310q-12 -70 -78 -70h-247q-68 0 -84 51l-187 617l-104 -598q-12 -70 -78 -70h-258q-74 0 -62 70zM477 1616q31 186 199 186q84 0 153 -26l72 -31q106 -43 127 4l4 12 q16 37 62 37h82q57 0 43 -88q-33 -180 -195 -180q-88 0 -156 29l-71 30q-109 41 -127 -6l-4 -10q-16 -37 -62 -37h-82q-33 0 -43 16.5t-2 63.5z" />
<glyph unicode="&#xd2;" horiz-adv-x="1277" d="M82 457q0 111 29 270q74 414 236.5 580t447.5 166q238 0 364.5 -112t126.5 -368q0 -111 -29 -270q-72 -414 -236.5 -580t-447.5 -166q-238 0 -364.5 112t-126.5 368zM500 485q0 -82 28.5 -115.5t87.5 -33.5q86 0 135.5 80t90.5 309q29 172 28 240q0 82 -28.5 115.5 t-87.5 33.5q-88 0 -136.5 -80t-89.5 -309q-29 -172 -28 -240zM557 1771q10 25 39 25h278q58 0 64 -45l31 -164q6 -51 -45 -51h-156q-55 0 -82 35l-123 155q-16 20 -6 45z" />
<glyph unicode="&#xd3;" horiz-adv-x="1277" d="M82 457q0 111 29 270q74 414 236.5 580t447.5 166q238 0 364.5 -112t126.5 -368q0 -111 -29 -270q-72 -414 -236.5 -580t-447.5 -166q-238 0 -364.5 112t-126.5 368zM500 485q0 -82 28.5 -115.5t87.5 -33.5q86 0 135.5 80t90.5 309q29 172 28 240q0 82 -28.5 115.5 t-87.5 33.5q-88 0 -136.5 -80t-89.5 -309q-29 -172 -28 -240zM705 1587l86 164q27 45 71 45h279q20 0 28.5 -12t4 -28.5t-18.5 -29.5l-174 -155q-41 -35 -90 -35h-156q-57 0 -30 51z" />
<glyph unicode="&#xd4;" horiz-adv-x="1277" d="M82 457q0 111 29 270q74 414 236.5 580t447.5 166q238 0 364.5 -112t126.5 -368q0 -111 -29 -270q-72 -414 -236.5 -580t-447.5 -166q-238 0 -364.5 112t-126.5 368zM493 1556.5q-6 20.5 17 40.5l205 183q41 35 86 35h143q55 0 82 -35l143 -183q14 -20 3 -40.5t-39 -20.5 h-123q-47 0 -72 35l-84 90l-115 -90q-39 -35 -80 -35h-131q-29 0 -35 20.5zM500 485q0 -82 28.5 -115.5t87.5 -33.5q86 0 135.5 80t90.5 309q29 172 28 240q0 82 -28.5 115.5t-87.5 33.5q-88 0 -136.5 -80t-89.5 -309q-29 -172 -28 -240z" />
<glyph unicode="&#xd5;" horiz-adv-x="1277" d="M82 457q0 111 29 270q74 414 236.5 580t447.5 166q238 0 364.5 -112t126.5 -368q0 -111 -29 -270q-72 -414 -236.5 -580t-447.5 -166q-238 0 -364.5 112t-126.5 368zM479 1616q31 186 199 186q84 0 153 -26l72 -31q106 -43 127 4l4 12q16 37 62 37h82q57 0 43 -88 q-33 -180 -195 -180q-88 0 -156 29l-71 30q-109 41 -127 -6l-4 -10q-16 -37 -62 -37h-82q-33 0 -43 16.5t-2 63.5zM500 485q0 -82 28.5 -115.5t87.5 -33.5q86 0 135.5 80t90.5 309q29 172 28 240q0 82 -28.5 115.5t-87.5 33.5q-88 0 -136.5 -80t-89.5 -309 q-29 -172 -28 -240z" />
<glyph unicode="&#xd6;" horiz-adv-x="1277" d="M82 457q0 111 29 270q74 414 236.5 580t447.5 166q238 0 364.5 -112t126.5 -368q0 -111 -29 -270q-72 -414 -236.5 -580t-447.5 -166q-238 0 -364.5 112t-126.5 368zM457 1597l20 119q12 61 70 62h205q67 -1 55 -62l-21 -119q-8 -61 -69 -61h-205q-66 0 -55 61zM500 485 q0 -82 28.5 -115.5t87.5 -33.5q86 0 135.5 80t90.5 309q29 172 28 240q0 82 -28.5 115.5t-87.5 33.5q-88 0 -136.5 -80t-89.5 -309q-29 -172 -28 -240zM891 1597l20 119q12 61 70 62h205q67 -1 55 -62l-20 -119q-12 -61 -72 -61h-205q-66 0 -53 61z" />
<glyph unicode="&#xd7;" d="M96 399q-37 45 17 90l264 226l-187 225q-35 45 19 90l170 148q55 43 90 0l186 -226l265 226q53 45 92 0l121 -148q37 -45 -17 -90l-264 -225l186 -226q35 -45 -18 -90l-170 -147q-55 -43 -90 0l-187 225l-264 -225q-55 -43 -92 0z" />
<glyph unicode="&#xd8;" horiz-adv-x="1290" d="M49 41q-45 35 0 84l76 88q-41 100 -41 244q0 111 29 270q74 414 236.5 580t447.5 166q221 0 340 -93l47 56q43 49 88 14l57 -41q45 -33 0 -84l-82 -94q41 -98 41 -238q0 -111 -28 -270q-72 -414 -237 -580t-448 -166q-215 0 -335 89l-45 -52q-45 -49 -89 -14zM514 397 q22 -61 104 -61q86 0 135.5 80t90.5 309l10 63zM518 655l342 394q-23 66 -104 65q-88 0 -136.5 -80t-89.5 -309z" />
<glyph unicode="&#xd9;" horiz-adv-x="1234" d="M74 348q0 57 12 129l160 903q8 70 76 70h272q72 0 63 -70l-151 -856q-10 -51 -10 -80q0 -98 100 -98q68 0 102.5 41t51.5 137l151 856q8 70 76 70h272q74 0 62 -70l-160 -903q-45 -264 -186.5 -380.5t-409.5 -116.5q-481 0 -481 368zM545 1771q10 25 39 25h278 q58 0 64 -45l30 -164q6 -51 -45 -51h-155q-55 0 -82 35l-123 155q-16 20 -6 45z" />
<glyph unicode="&#xda;" horiz-adv-x="1234" d="M74 348q0 57 12 129l160 903q8 70 76 70h272q72 0 63 -70l-151 -856q-10 -51 -10 -80q0 -98 100 -98q68 0 102.5 41t51.5 137l151 856q8 70 76 70h272q74 0 62 -70l-160 -903q-45 -264 -186.5 -380.5t-409.5 -116.5q-481 0 -481 368zM674 1587l86 164q27 45 71 45h279 q20 0 28.5 -12t4.5 -28.5t-19 -29.5l-174 -155q-41 -35 -90 -35h-155q-58 0 -31 51z" />
<glyph unicode="&#xdb;" horiz-adv-x="1234" d="M74 348q0 57 12 129l160 903q8 70 76 70h272q72 0 63 -70l-151 -856q-10 -51 -10 -80q0 -98 100 -98q68 0 102.5 41t51.5 137l151 856q8 70 76 70h272q74 0 62 -70l-160 -903q-45 -264 -186.5 -380.5t-409.5 -116.5q-481 0 -481 368zM471 1556.5q-6 20.5 16 40.5l205 183 q41 35 86 35h144q55 0 82 -35l143 -183q14 -20 3 -40.5t-40 -20.5h-123q-47 0 -72 35l-84 90l-114 -90q-39 -35 -80 -35h-131q-29 0 -35 20.5z" />
<glyph unicode="&#xdc;" horiz-adv-x="1234" d="M74 348q0 57 12 129l160 903q8 70 76 70h272q72 0 63 -70l-151 -856q-10 -51 -10 -80q0 -98 100 -98q68 0 102.5 41t51.5 137l151 856q8 70 76 70h272q74 0 62 -70l-160 -903q-45 -264 -186.5 -380.5t-409.5 -116.5q-481 0 -481 368zM434 1597l21 119q12 61 69 62h205 q67 -1 55 -62l-20 -119q-8 -61 -70 -61h-205q-63 0 -55 61zM868 1597l21 119q12 61 69 62h205q68 -1 56 -62l-21 -119q-12 -61 -72 -61h-204q-66 0 -54 61z" />
<glyph unicode="&#xdd;" horiz-adv-x="1228" d="M186 1364q-8 33 8.5 59.5t55.5 26.5h280q74 0 84 -64l52 -317l14 -184h8l78 184l164 317q33 63 96 64h289q39 0 50 -28.5t-9 -57.5l-525 -823l-81 -471q-14 -70 -78 -70h-273q-74 0 -61 70l84 471zM674 1587l86 164q27 45 71 45h279q20 0 28.5 -12t4.5 -28.5t-19 -29.5 l-174 -155q-41 -35 -90 -35h-155q-58 0 -31 51z" />
<glyph unicode="&#xde;" horiz-adv-x="1208" d="M18 70l232 1310q12 70 78 70h270q74 0 61 -70l-16 -98h84q246 0 365.5 -83t119.5 -284q0 -76 -14 -159q-51 -293 -194.5 -406.5t-434.5 -113.5h-112l-29 -166q-12 -70 -78 -70h-270q-74 0 -62 70zM518 584h90q86 0 124 36.5t56 137.5q8 43 9 78q0 53 -29 74.5t-96 21.5 h-90z" />
<glyph unicode="&#xdf;" horiz-adv-x="1196" d="M12 59l174 990q37 219 174.5 319t376.5 100q207 0 331 -80.5t124 -218.5q0 -88 -51 -172t-101.5 -141t-50.5 -86q0 -25 21.5 -57.5t48 -64.5t49 -91t22.5 -131q0 -442 -438 -442q-98 0 -157.5 18t-53.5 61l35 191q10 61 74 61q166 -4 166 138q0 55 -74 147t-74 154 q0 70 95.5 164t95.5 167q-1 82 -101 82q-70 0 -101.5 -36.5t-45.5 -110.5l-168 -961q-12 -59 -76 -59h-239q-68 0 -56 59z" />
<glyph unicode="&#xe0;" horiz-adv-x="1056" d="M8 248q0 106 34 186t89 128t140 78t173 42t201 14l8 49q10 49 -18.5 71t-104.5 22q-106 0 -251 -45q-35 -10 -54.5 1t-17.5 44l4 170q2 57 61 75q168 59 353 60q211 0 313 -67.5t102 -211.5q0 -37 -10 -94l-123 -707q-12 -63 -71 -63h-203q-61 0 -68 51l-4 45 q-100 -109 -270 -108q-129 0 -206 65.5t-77 194.5zM385 317q0 -72 74 -71q108 0 133 147l18 101q-96 -4 -160.5 -47.5t-64.5 -129.5zM420 1450q10 25 39 25h272q54 0 64 -45l32 -162q10 -51 -45 -51h-141q-55 0 -82 34l-133 156q-16 18 -6 43z" />
<glyph unicode="&#xe1;" horiz-adv-x="1056" d="M8 248q0 106 34 186t89 128t140 78t173 42t201 14l8 49q10 49 -18.5 71t-104.5 22q-106 0 -251 -45q-35 -10 -54.5 1t-17.5 44l4 170q2 57 61 75q168 59 353 60q211 0 313 -67.5t102 -211.5q0 -37 -10 -94l-123 -707q-12 -63 -71 -63h-203q-61 0 -68 51l-4 45 q-100 -109 -270 -108q-129 0 -206 65.5t-77 194.5zM385 317q0 -72 74 -71q108 0 133 147l18 101q-96 -4 -160.5 -47.5t-64.5 -129.5zM514 1231q-8 14 2 37l88 162q18 45 68 45h276q31 0 36 -25t-17 -43l-176 -156q-37 -35 -86 -34h-156q-27 0 -35 14z" />
<glyph unicode="&#xe2;" horiz-adv-x="1056" d="M8 248q0 106 34 186t89 128t140 78t173 42t201 14l8 49q10 49 -18.5 71t-104.5 22q-106 0 -251 -45q-35 -10 -54.5 1t-17.5 44l4 170q2 57 61 75q168 59 353 60q211 0 313 -67.5t102 -211.5q0 -37 -10 -94l-123 -707q-12 -63 -71 -63h-203q-61 0 -68 51l-4 45 q-100 -109 -270 -108q-129 0 -206 65.5t-77 194.5zM329 1237q-7 20 15 41l203 182q37 37 84 37h143q57 0 84 -37l137 -182q16 -20 5 -40.5t-39 -20.5h-123q-47 -1 -74 36l-80 88l-111 -88q-37 -37 -77 -36h-131q-29 0 -36 20zM385 317q0 -72 74 -71q108 0 133 147l18 101 q-96 -4 -160.5 -47.5t-64.5 -129.5z" />
<glyph unicode="&#xe3;" horiz-adv-x="1056" d="M8 248q0 106 34 186t89 128t140 78t173 42t201 14l8 49q10 49 -18.5 71t-104.5 22q-106 0 -251 -45q-35 -10 -54.5 1t-17.5 44l4 170q2 57 61 75q168 59 353 60q211 0 313 -67.5t102 -211.5q0 -37 -10 -94l-123 -707q-12 -63 -71 -63h-203q-61 0 -68 51l-4 45 q-100 -109 -270 -108q-129 0 -206 65.5t-77 194.5zM315 1296q33 184 197 185q82 0 152 -27l71 -31q106 -41 125 7l4 10q16 37 60 37h82q59 0 45 -86q-31 -180 -193 -181q-90 0 -153 29l-74 29q-100 41 -123 -4l-4 -13q-16 -35 -60 -34h-82q-33 0 -44 17t-3 62zM385 317 q0 -72 74 -71q108 0 133 147l18 101q-96 -4 -160.5 -47.5t-64.5 -129.5z" />
<glyph unicode="&#xe4;" horiz-adv-x="1056" d="M8 248q0 106 34 186t89 128t140 78t173 42t201 14l8 49q10 49 -18.5 71t-104.5 22q-106 0 -251 -45q-35 -10 -54.5 1t-17.5 44l4 170q2 57 61 75q168 59 353 60q211 0 313 -67.5t102 -211.5q0 -37 -10 -94l-123 -707q-12 -63 -71 -63h-203q-61 0 -68 51l-4 45 q-100 -109 -270 -108q-129 0 -206 65.5t-77 194.5zM295 1278l20 119q12 61 70 61h203q67 0 55 -61l-20 -119q-12 -61 -70 -61h-203q-68 0 -55 61zM385 317q0 -72 74 -71q108 0 133 147l18 101q-96 -4 -160.5 -47.5t-64.5 -129.5zM719 1278l20 119q10 61 68 61h203 q67 0 57 -61l-20 -119q-12 -61 -72 -61h-203q-66 0 -53 61z" />
<glyph unicode="&#xe5;" horiz-adv-x="1056" d="M8 248q0 106 34 186t89 128t140 78t173 42t201 14l8 49q10 49 -18.5 71t-104.5 22q-106 0 -251 -45q-35 -10 -54.5 1t-17.5 44l4 170q2 57 61 75q168 59 353 60q211 0 313 -67.5t102 -211.5q0 -37 -10 -94l-123 -707q-12 -63 -71 -63h-203q-61 0 -68 51l-4 45 q-100 -109 -270 -108q-129 0 -206 65.5t-77 194.5zM385 317q0 -72 74 -71q108 0 133 147l18 101q-96 -4 -160.5 -47.5t-64.5 -129.5zM463 1391q0 113 75.5 183.5t194.5 70.5q96 0 159.5 -54.5t63.5 -138.5q0 -113 -75.5 -182.5t-196.5 -69.5q-96 0 -158.5 53.5t-62.5 137.5z M616 1409q0 -31 24.5 -52.5t57.5 -21.5q41 0 73 28t32 71q0 33 -22.5 53t-59.5 20q-43 0 -74 -26.5t-31 -71.5z" />
<glyph unicode="&#xe6;" horiz-adv-x="1613" d="M10 258q0 106 36 183t89 119t144.5 67.5t169 33t196.5 11.5l12 73q8 49 -21.5 71t-103.5 22q-109 0 -253 -45q-35 -10 -54.5 1t-17.5 44l4 170q2 57 61 75q168 59 349 60q215 0 284 -101q121 102 303 103q190 0 292 -90t102 -267q0 -84 -17 -163l-20 -119 q-8 -37 -27.5 -52.5t-56.5 -15.5h-496q0 -8 -1 -20t-1 -17q4 -133 180 -133q102 0 226 41q35 10 54 -2t17 -45l-4 -143q0 -53 -63 -82q-143 -57 -299 -57q-276 0 -365 151q-152 -143 -377 -143q-164 0 -253 69.5t-89 200.5zM385 317q0 -72 76 -71q108 -1 137 157l10 64 q-49 -2 -78.5 -6t-68.5 -18.5t-57.5 -45t-18.5 -80.5zM1012 666h229l4 22q12 70 12 88q0 90 -88 90q-63 0 -96 -41t-61 -159z" />
<glyph unicode="&#xe7;" horiz-adv-x="917" d="M59 389q1 78 19 180q53 301 200.5 438.5t393.5 137.5q74 0 152.5 -15.5t113.5 -35.5q49 -27 27 -80l-66 -180q-23 -55 -88 -37q-76 20 -121 20q-94 0 -144 -55t-75 -197q-14 -86 -14 -116q0 -78 35.5 -110t109.5 -32q57 0 133 23q70 20 76 -37l2 -178q2 -53 -55 -82 q-96 -49 -250 -53q98 -68 98 -158q0 -86 -65.5 -128t-167.5 -42q-96 0 -135 14q-31 10 -25 43l14 84q6 31 39 31h72q33 0 55.5 18.5t22.5 46.5q0 57 -76 109q-281 66 -281 391z" />
<glyph unicode="&#xe8;" horiz-adv-x="1075" d="M53 391q0 76 19 178q53 297 194.5 436.5t384.5 139.5q201 0 304.5 -97.5t103.5 -281.5q0 -76 -15 -156l-22 -118q-10 -70 -82 -70h-510q-2 -12 -2 -33q2 -66 48 -93.5t142 -27.5q109 0 232 41q35 10 54.5 -1t17.5 -44l-4 -145q-2 -55 -66 -82q-131 -57 -305 -57 q-494 0 -494 411zM418 1450q10 25 39 25h272q54 0 64 -45l32 -162q10 -51 -45 -51h-141q-55 0 -82 34l-133 156q-16 18 -6 43zM459 649h241l5 23q10 61 10 92q0 102 -90 102q-66 0 -103 -47t-63 -170z" />
<glyph unicode="&#xe9;" horiz-adv-x="1075" d="M53 391q0 76 19 178q53 297 194.5 436.5t384.5 139.5q201 0 304.5 -97.5t103.5 -281.5q0 -76 -15 -156l-22 -118q-10 -70 -82 -70h-510q-2 -12 -2 -33q2 -66 48 -93.5t142 -27.5q109 0 232 41q35 10 54.5 -1t17.5 -44l-4 -145q-2 -55 -66 -82q-131 -57 -305 -57 q-494 0 -494 411zM459 649h241l5 23q10 61 10 92q0 102 -90 102q-66 0 -103 -47t-63 -170zM526 1231q-8 14 2 37l88 162q18 45 68 45h277q31 0 35.5 -25t-17.5 -43l-176 -156q-37 -35 -86 -34h-156q-27 0 -35 14z" />
<glyph unicode="&#xea;" horiz-adv-x="1075" d="M53 391q0 76 19 178q53 297 194.5 436.5t384.5 139.5q201 0 304.5 -97.5t103.5 -281.5q0 -76 -15 -156l-22 -118q-10 -70 -82 -70h-510q-2 -12 -2 -33q2 -66 48 -93.5t142 -27.5q109 0 232 41q35 10 54.5 -1t17.5 -44l-4 -145q-2 -55 -66 -82q-131 -57 -305 -57 q-494 0 -494 411zM343 1237q-7 20 15 41l203 182q37 37 84 37h143q55 0 84 -37l138 -182q16 -20 5 -40.5t-40 -20.5h-123q-45 -1 -74 36l-80 88l-110 -88q-37 -37 -78 -36h-131q-29 0 -36 20zM459 649h241l5 23q10 61 10 92q0 102 -90 102q-66 0 -103 -47t-63 -170z" />
<glyph unicode="&#xeb;" horiz-adv-x="1075" d="M53 391q0 76 19 178q53 297 194.5 436.5t384.5 139.5q201 0 304.5 -97.5t103.5 -281.5q0 -76 -15 -156l-22 -118q-10 -70 -82 -70h-510q-2 -12 -2 -33q2 -66 48 -93.5t142 -27.5q109 0 232 41q35 10 54.5 -1t17.5 -44l-4 -145q-2 -55 -66 -82q-131 -57 -305 -57 q-494 0 -494 411zM309 1278l21 119q12 61 69 61h203q67 0 55 -61l-20 -119q-12 -61 -70 -61h-202q-68 0 -56 61zM459 649h241l5 23q10 61 10 92q0 102 -90 102q-66 0 -103 -47t-63 -170zM733 1278l21 119q8 61 67 61h203q65 0 57 -61l-20 -119q-12 -61 -72 -61h-203 q-66 0 -53 61z" />
<glyph unicode="&#xec;" horiz-adv-x="565" d="M18 63l177 998q8 63 71 63h256q70 0 58 -63l-177 -998q-12 -63 -71 -63h-256q-70 0 -58 63zM144 1450q10 25 38 25h273q53 0 63 -45l33 -162q10 -51 -45 -51h-141q-55 0 -82 34l-133 156q-16 18 -6 43z" />
<glyph unicode="&#xed;" horiz-adv-x="565" d="M18 63l177 998q8 63 71 63h256q70 0 58 -63l-177 -998q-12 -63 -71 -63h-256q-70 0 -58 63zM293 1231q-8 14 2 37l88 162q18 45 68 45h276q31 0 36 -25t-18 -43l-176 -156q-37 -35 -86 -34h-155q-27 0 -35 14z" />
<glyph unicode="&#xee;" horiz-adv-x="565" d="M18 63l177 998q8 63 71 63h256q70 0 58 -63l-177 -998q-12 -63 -71 -63h-256q-70 0 -58 63zM85 1237q-7 20 15 41l203 182q37 37 84 37h143q55 0 84 -37l138 -182q16 -20 4.5 -40.5t-39.5 -20.5h-123q-45 -1 -74 36l-80 88l-110 -88q-37 -37 -78 -36h-131q-29 0 -36 20z " />
<glyph unicode="&#xef;" horiz-adv-x="565" d="M18 63l177 998q8 63 71 63h256q70 0 58 -63l-177 -998q-12 -63 -71 -63h-256q-70 0 -58 63zM51 1278l21 119q12 61 69 61h203q67 0 55 -61l-20 -119q-12 -61 -70 -61h-203q-68 0 -55 61zM475 1278l21 119q8 61 67 61h203q65 0 57 -61l-20 -119q-12 -61 -72 -61h-203 q-66 0 -53 61z" />
<glyph unicode="&#xf0;" horiz-adv-x="1118" d="M51 379q0 76 19 174q51 293 190 431t346 138q106 0 154 -30q-6 39 -33 92h-231q-53 0 -45 49l12 72q8 49 55 49h107l-50 51q-14 14 -8 32.5t31 18.5h240q47 0 67 -31q20 -27 47 -71h174q53 0 45 -49l-12 -72q-8 -49 -55 -49h-74q68 -168 68 -367q0 -115 -23 -254 q-55 -307 -197.5 -445t-390.5 -138q-209 0 -322.5 99t-113.5 300zM453 410q0 -18 1 -39t1 -25q0 -41 12 -49t57 -8q25 0 41.5 1t29.5 9t19.5 14t13.5 26.5t10 35t12 51.5t16 66q35 123 34 225q0 111 -82 110q-74 0 -109.5 -87t-51.5 -240q-4 -39 -4 -90z" />
<glyph unicode="&#xf1;" horiz-adv-x="1114" d="M8 63l176 998q8 63 72 63h227q61 0 66 -51l6 -51q111 123 274 123q266 0 267 -273q-1 -61 -13 -131l-118 -678q-12 -63 -72 -63h-258q-70 0 -57 63l106 609q8 49 8 65q0 68 -63 68q-55 0 -86 -40t-47 -122l-103 -580q-12 -63 -69 -63h-258q-70 0 -58 63zM344 1296 q33 184 197 185q82 0 151 -27l72 -31q106 -41 125 7l4 10q16 37 59 37h82q59 0 45 -86q-31 -180 -192 -181q-90 0 -154 29l-74 29q-100 41 -122 -4l-5 -13q-16 -35 -59 -34h-82q-33 0 -44 17t-3 62z" />
<glyph unicode="&#xf2;" horiz-adv-x="1116" d="M53 387q1 -407 439 -407q246 0 388 137t197 442q16 104 17 178q0 408 -439 408q-246 0 -388 -138.5t-195 -441.5q-18 -102 -19 -178zM428 1450q10 25 39 25h272q54 0 64 -45l33 -162q10 -51 -45 -51h-142q-55 0 -82 34l-133 156q-16 18 -6 43zM444 397.5q0 57.5 21 165.5 q29 156 61.5 214.5t96.5 58.5q82 0 82 -107q0 -61 -21 -166q-27 -156 -62 -215t-96 -59q-43 0 -62.5 25.5t-19.5 83z" />
<glyph unicode="&#xf3;" horiz-adv-x="1116" d="M53 387q1 -407 439 -407q246 0 388 137t197 442q16 104 17 178q0 408 -439 408q-246 0 -388 -138.5t-195 -441.5q-18 -102 -19 -178zM444 397.5q0 57.5 21 165.5q29 156 61.5 214.5t96.5 58.5q82 0 82 -107q0 -61 -21 -166q-27 -156 -62 -215t-96 -59q-43 0 -62.5 25.5 t-19.5 83zM557 1231q-8 14 2 37l88 162q18 45 68 45h276q31 0 36 -25t-17 -43l-176 -156q-37 -35 -86 -34h-156q-27 0 -35 14z" />
<glyph unicode="&#xf4;" horiz-adv-x="1116" d="M53 387q1 -407 439 -407q246 0 388 137t197 442q16 104 17 178q0 408 -439 408q-246 0 -388 -138.5t-195 -441.5q-18 -102 -19 -178zM359 1237q-7 20 16 41l203 182q37 37 84 37h143q55 0 84 -37l137 -182q16 -20 5 -40.5t-40 -20.5h-123q-46 -1 -73 36l-80 88l-111 -88 q-37 -37 -78 -36h-131q-29 0 -36 20zM444 397.5q0 57.5 21 165.5q29 156 61.5 214.5t96.5 58.5q82 0 82 -107q0 -61 -21 -166q-27 -156 -62 -215t-96 -59q-43 0 -62.5 25.5t-19.5 83z" />
<glyph unicode="&#xf5;" horiz-adv-x="1116" d="M53 387q0 76 19 178q53 303 195.5 441.5t387.5 138.5q438 0 439 -408q0 -74 -17 -178q-55 -305 -197 -442t-388 -137q-438 0 -439 407zM346 1296q35 184 197 185q82 0 151 -27l72 -31q106 -41 125 7l4 10q16 37 59 37h82q59 0 45 -86q-31 -180 -192 -181q-90 0 -154 29 l-73 29q-100 41 -123 -4l-4 -13q-16 -35 -60 -34h-82q-33 0 -44 17t-3 62zM444.5 397q-0.5 -57 19 -82.5t62.5 -25.5q61 0 96 59.5t62 214.5q20 104 21 166q0 106 -82 107q-63 0 -96 -58.5t-62 -214.5q-20 -109 -20.5 -166z" />
<glyph unicode="&#xf6;" horiz-adv-x="1116" d="M53 387q1 -407 439 -407q246 0 388 137t197 442q16 104 17 178q0 408 -439 408q-246 0 -388 -138.5t-195 -441.5q-18 -102 -19 -178zM326 1278l20 119q12 61 70 61h202q68 0 56 -61l-21 -119q-12 -61 -69 -61h-203q-68 0 -55 61zM444 397.5q0 57.5 21 165.5 q29 156 61.5 214.5t96.5 58.5q82 0 82 -107q0 -61 -21 -166q-27 -156 -62 -215t-96 -59q-43 0 -62.5 25.5t-19.5 83zM750 1278l20 119q10 61 68 61h202q66 0 58 -61l-21 -119q-12 -61 -71 -61h-203q-66 0 -53 61z" />
<glyph unicode="&#xf7;" d="M137 643l29 156q8 63 70 63h800q70 0 58 -63l-27 -156q-13 -65 -74 -65h-798q-70 0 -58 65zM342 203l37 211q12 66 78 65h223q74 0 63 -65l-36 -211q-12 -68 -78 -68h-228q-71 0 -59 68zM487 1028l37 209q12 68 78 68h223q76 0 64 -68l-37 -209q-12 -68 -78 -67h-227 q-72 -1 -60 67z" />
<glyph unicode="&#xf8;" horiz-adv-x="1124" d="M27 37q-39 35 4 76l65 67q-39 90 -39 207q0 76 19 178q53 303 195.5 441.5t387.5 138.5q188 0 299 -80l52 53q25 25 40 28t37 -18l41 -41q20 -20 19.5 -35.5t-23.5 -39.5l-67 -70q41 -86 41 -205q0 -74 -17 -178q-55 -305 -197 -442t-388 -137q-193 0 -299 79l-50 -51 q-45 -45 -79 -12zM455 338q16 -49 75 -49q61 0 96.5 59.5t61.5 214.5q0 2 1 8.5t1 8.5zM465 547l235 239q-14 49 -73 50q-63 0 -96 -58.5t-62 -214.5z" />
<glyph unicode="&#xf9;" horiz-adv-x="1107" d="M45 242q0 40 10 108l127 711q8 63 72 63h258q66 0 57 -63l-110 -615q-6 -37 -6 -61q0 -70 63 -70q55 0 84 38t43 116l105 592q12 63 71 63h258q66 0 58 -63l-177 -998q-12 -63 -71 -63h-228q-61 0 -67 51l-6 51q-92 -123 -256 -122q-285 0 -285 262zM426 1450 q10 25 39 25h272q54 0 64 -45l33 -162q10 -51 -46 -51h-141q-55 0 -82 34l-133 156q-16 18 -6 43z" />
<glyph unicode="&#xfa;" horiz-adv-x="1107" d="M45 242q0 40 10 108l127 711q8 63 72 63h258q66 0 57 -63l-110 -615q-6 -37 -6 -61q0 -70 63 -70q55 0 84 38t43 116l105 592q12 63 71 63h258q66 0 58 -63l-177 -998q-12 -63 -71 -63h-228q-61 0 -67 51l-6 51q-92 -123 -256 -122q-285 0 -285 262zM553 1231q-8 14 2 37 l88 162q18 45 68 45h276q31 0 36 -25t-17 -43l-177 -156q-37 -35 -86 -34h-155q-27 0 -35 14z" />
<glyph unicode="&#xfb;" horiz-adv-x="1107" d="M45 242q0 40 10 108l127 711q8 63 72 63h258q66 0 57 -63l-110 -615q-6 -37 -6 -61q0 -70 63 -70q55 0 84 38t43 116l105 592q12 63 71 63h258q66 0 58 -63l-177 -998q-12 -63 -71 -63h-228q-61 0 -67 51l-6 51q-92 -123 -256 -122q-285 0 -285 262zM355 1237 q-7 20 16 41l202 182q37 37 84 37h144q55 0 84 -37l137 -182q16 -20 5 -40.5t-40 -20.5h-123q-44 -1 -73 36l-80 88l-111 -88q-37 -37 -78 -36h-131q-29 0 -36 20z" />
<glyph unicode="&#xfc;" horiz-adv-x="1107" d="M45 242q0 40 10 108l127 711q8 63 72 63h258q66 0 57 -63l-110 -615q-6 -37 -6 -61q0 -70 63 -70q55 0 84 38t43 116l105 592q12 63 71 63h258q66 0 58 -63l-177 -998q-12 -63 -71 -63h-228q-61 0 -67 51l-6 51q-92 -123 -256 -122q-285 0 -285 262zM322 1278l20 119 q12 61 70 61h202q68 0 56 -61l-21 -119q-12 -61 -69 -61h-203q-68 0 -55 61zM745 1278l21 119q8 61 68 61h202q66 0 58 -61l-21 -119q-12 -61 -72 -61h-202q-66 0 -54 61z" />
<glyph unicode="&#xfd;" horiz-adv-x="1050" d="M-29 -156l33 174q8 59 68 60q14 0 46 -3t54 -3q94 0 80 88l-125 891q-10 74 55 73h264q70 0 70 -63l10 -424l2 -236h9l67 236l131 424q20 63 82 63h273q33 0 45 -19t-2 -54l-404 -957q-57 -133 -106.5 -198.5t-134.5 -100.5t-228 -35q-174 0 -244 19q-53 16 -45 65z M526 1231q-8 14 2 37l88 162q18 45 68 45h277q31 0 35.5 -25t-17.5 -43l-176 -156q-37 -35 -86 -34h-156q-27 0 -35 14z" />
<glyph unicode="&#xfe;" horiz-adv-x="1159" d="M-31 -162l273 1548q12 64 71 64h258q70 0 58 -64l-60 -346q41 47 108.5 76t139.5 29q322 0 322 -365q0 -100 -21 -217q-55 -307 -166.5 -445t-300.5 -138q-78 0 -152.5 28.5t-101.5 69.5l-41 -240q-12 -63 -71 -63h-258q-66 0 -58 63zM465 418q0 -125 92 -125 q66 0 103.5 59.5t64.5 210.5q16 84 16 149.5t-21.5 92t-66.5 26.5q-66 0 -105.5 -59t-66.5 -209q-16 -82 -16 -145z" />
<glyph unicode="&#xff;" horiz-adv-x="1050" d="M-29 -156l33 174q8 59 68 60q14 0 46 -3t54 -3q94 0 80 88l-125 891q-10 74 55 73h264q70 0 70 -63l10 -424l2 -236h9l67 236l131 424q20 63 82 63h273q33 0 45 -19t-2 -54l-404 -957q-57 -133 -106.5 -198.5t-134.5 -100.5t-228 -35q-174 0 -244 19q-53 16 -45 65z M293 1278l20 119q12 61 70 61h203q67 0 55 -61l-20 -119q-12 -61 -70 -61h-203q-68 0 -55 61zM717 1278l20 119q8 61 68 61h203q65 0 57 -61l-21 -119q-12 -61 -71 -61h-203q-66 0 -53 61z" />
<glyph unicode="&#x152;" horiz-adv-x="1669" d="M98 479q0 111 27 250q70 397 237.5 559t487.5 162h846q74 0 61 -70l-39 -217q-8 -70 -78 -69h-383l-32 -187h350q74 0 61 -69l-37 -203q-11 -70 -77 -70h-357l-39 -209h387q74 0 62 -69l-39 -217q-12 -70 -78 -70h-825q-268 0 -401.5 112.5t-133.5 366.5zM518 530 q0 -94 40 -131t128 -37h39l127 725h-35q-119 0 -179 -73.5t-97 -288.5q-23 -131 -23 -195z" />
<glyph unicode="&#x153;" horiz-adv-x="1669" d="M53 381q0 82 19 184q53 303 193.5 441.5t377.5 138.5q207 0 297 -105q125 104 326 105q190 0 288.5 -95.5t98.5 -277.5q0 -78 -15 -162l-22 -118q-10 -70 -80 -70h-500q0 -6 -1 -17.5t-1 -15.5q2 -66 46.5 -93.5t138.5 -27.5q100 0 227 41q35 10 53.5 -1t16.5 -44 l-5 -145q0 -53 -63 -82q-143 -57 -301 -57q-227 0 -334 110q-133 -111 -336 -110q-424 0 -424 401zM444 393q0 -55 18.5 -79.5t61.5 -24.5q61 0 97 59.5t63 214.5q20 102 21 164q0 109 -84 109q-61 0 -94 -58.5t-62 -214.5q-20 -109 -21 -170zM1065 649h231l4 23 q10 61 11 92q0 102 -86 102q-61 0 -97 -48t-63 -169z" />
<glyph unicode="&#x178;" horiz-adv-x="1228" d="M186 1364q-8 33 8.5 59.5t55.5 26.5h280q74 0 84 -64l52 -317l14 -184h8l78 184l164 317q33 63 96 64h289q39 0 50 -28.5t-9 -57.5l-525 -823l-81 -471q-14 -70 -78 -70h-273q-74 0 -61 70l84 471zM432 1597l21 119q12 61 69 62h205q67 -1 55 -62l-20 -119 q-8 -61 -70 -61h-205q-66 0 -55 61zM866 1597l21 119q12 61 69 62h205q68 -1 56 -62l-21 -119q-12 -61 -72 -61h-204q-66 0 -54 61z" />
<glyph unicode="&#x2c6;" horiz-adv-x="673" d="M138 1237q-7 20 16 41l202 182q37 37 84 37h144q55 0 84 -37l137 -182q16 -20 5 -40.5t-40 -20.5h-123q-45 -1 -74 36l-79 88l-111 -88q-37 -37 -78 -36h-131q-29 0 -36 20z" />
<glyph unicode="&#x2dc;" horiz-adv-x="673" d="M123 1296q33 184 196 185q82 0 152 -27l72 -31q106 -41 125 7l4 10q16 37 59 37h82q59 0 45 -86q-31 -180 -192 -181q-90 0 -154 29l-74 29q-100 41 -123 -4l-4 -13q-16 -35 -59 -34h-82q-33 0 -44 17t-3 62z" />
<glyph unicode="&#x2000;" horiz-adv-x="952" />
<glyph unicode="&#x2001;" horiz-adv-x="1905" />
<glyph unicode="&#x2002;" horiz-adv-x="952" />
<glyph unicode="&#x2003;" horiz-adv-x="1905" />
<glyph unicode="&#x2004;" horiz-adv-x="635" />
<glyph unicode="&#x2005;" horiz-adv-x="476" />
<glyph unicode="&#x2006;" horiz-adv-x="317" />
<glyph unicode="&#x2007;" horiz-adv-x="317" />
<glyph unicode="&#x2008;" horiz-adv-x="238" />
<glyph unicode="&#x2009;" horiz-adv-x="381" />
<glyph unicode="&#x200a;" horiz-adv-x="105" />
<glyph unicode="&#x2010;" horiz-adv-x="702" d="M68 510l32 184q12 66 72 66h451q70 0 57 -64l-33 -186q-13 -64 -72 -64h-450q-70 0 -57 64z" />
<glyph unicode="&#x2011;" horiz-adv-x="702" d="M68 510l32 184q12 66 72 66h451q70 0 57 -64l-33 -186q-13 -64 -72 -64h-450q-70 0 -57 64z" />
<glyph unicode="&#x2012;" horiz-adv-x="702" d="M68 510l32 184q12 66 72 66h451q70 0 57 -64l-33 -186q-13 -64 -72 -64h-450q-70 0 -57 64z" />
<glyph unicode="&#x2013;" horiz-adv-x="966" d="M68 510l32 184q12 66 72 66h717q66 0 57 -66l-33 -184q-12 -64 -71 -64h-717q-70 0 -57 64z" />
<glyph unicode="&#x2014;" horiz-adv-x="1394" d="M68 510l32 184q12 66 72 66h1145q66 0 57 -66l-33 -184q-12 -64 -73 -64h-1143q-70 0 -57 64z" />
<glyph unicode="&#x2018;" horiz-adv-x="514" d="M156 918l34 200q8 47 31 82l160 221q25 39 61 39h86q25 0 32 -15t-5 -38l-121 -201h68q72 0 59 -67l-37 -221q-12 -66 -80 -66h-227q-74 0 -61 66z" />
<glyph unicode="&#x2019;" horiz-adv-x="514" d="M193 1163l40 221q10 66 76 66h228q76 0 65 -66l-37 -200q-7 -47 -30 -82l-160 -223q-27 -37 -64 -37h-86q-25 0 -31 15t7 38l118 201h-67q-72 0 -59 67z" />
<glyph unicode="&#x201a;" horiz-adv-x="514" d="M0 68l41 221q10 66 76 65h227q76 0 66 -65l-37 -201q-8 -47 -31 -82l-160 -223q-27 -37 -63 -37h-86q-25 0 -31 16.5t6 36.5l119 201h-68q-72 0 -59 68z" />
<glyph unicode="&#x201c;" horiz-adv-x="976" d="M154 911l34 201q8 49 33 82l158 221q29 39 61 39h86q25 0 32 -16.5t-5 -36.5l-119 -201h68q72 0 59 -67l-39 -222q-12 -66 -80 -65h-227q-74 0 -61 65zM616 911l35 201q8 51 31 82l160 221q27 39 61 39h86q25 0 32 -16.5t-5 -36.5l-121 -201h68q72 0 59 -67l-37 -222 q-12 -66 -80 -65h-227q-74 0 -62 65z" />
<glyph unicode="&#x201d;" horiz-adv-x="976" d="M193 1163l40 221q10 66 76 66h228q76 0 65 -66l-37 -200q-7 -47 -30 -82l-160 -223q-27 -37 -64 -37h-86q-25 0 -31 15t7 38l118 201h-67q-72 0 -59 67zM655 1163l39 221q10 66 78 66h227q74 0 64 -66l-35 -200q-10 -53 -33 -82l-159 -223q-25 -37 -62 -37h-86 q-25 0 -31 15t7 38l118 201h-69q-70 0 -58 67z" />
<glyph unicode="&#x201e;" horiz-adv-x="976" d="M0 68l41 221q10 66 76 65h227q76 0 66 -65l-37 -201q-8 -47 -31 -82l-160 -223q-27 -37 -63 -37h-86q-25 0 -31 16.5t6 36.5l119 201h-68q-72 0 -59 68zM463 68l39 221q10 66 78 65h227q74 0 63 -65l-34 -201q-10 -53 -33 -82l-160 -223q-25 -37 -61 -37h-86 q-25 0 -31 16.5t6 36.5l119 201h-70q-70 0 -57 68z" />
<glyph unicode="&#x2022;" horiz-adv-x="837" d="M109 512q0 152 109.5 266.5t268.5 114.5q121 0 201 -77t80 -191q0 -150 -111.5 -263.5t-269.5 -113.5q-121 0 -199.5 74.5t-78.5 189.5z" />
<glyph unicode="&#x2026;" horiz-adv-x="1538" d="M-2 68l41 233q12 68 78 68h233q76 0 64 -68l-41 -233q-12 -68 -76 -68h-240q-71 0 -59 68zM510 68l43 233q12 68 78 68h233q76 0 64 -68l-43 -233q-12 -68 -74 -68h-240q-73 0 -61 68zM1024 68l41 233q12 68 78 68h233q76 0 64 -68l-41 -233q-12 -68 -76 -68h-240 q-71 0 -59 68z" />
<glyph unicode="&#x202f;" horiz-adv-x="381" />
<glyph unicode="&#x2039;" horiz-adv-x="602" d="M72 610q4 20 12 31l192 293q31 47 80 47h217q31 0 39.5 -17.5t-10.5 -45.5l-199 -306l93 -305q8 -29 -4.5 -46t-42.5 -17h-216q-57 0 -69 47l-88 293q-6 16 -4 26z" />
<glyph unicode="&#x203a;" horiz-adv-x="602" d="M39 261.5q-8 17.5 10 45.5l201 305l-94 306q-16 63 45 63h217q55 0 71 -47l89 -293q6 -17 2 -31q-4 -16 -11 -26l-192 -293q-31 -47 -82 -47h-217q-31 0 -39 17.5z" />
<glyph unicode="&#x205f;" horiz-adv-x="476" />
<glyph unicode="&#x20ac;" horiz-adv-x="1191" d="M39 545l12 76q9 49 58 49h86q0 2 6 57l12 57h-78q-53 0 -45 50l12 75q8 49 58 49h96q92 279 252 397t422 118q221 0 336 -68q57 -31 28 -86l-92 -189q-29 -66 -96 -45q-70 25 -158 25q-102 0 -163.5 -33t-100.5 -119h367q59 0 30 -53l-34 -76q-23 -45 -66 -45h-352 q-8 -27 -13 -57q-4 -16 -8 -57h305q25 0 34 -14.5t-3 -39.5l-37 -75q-23 -45 -65 -45h-240q10 -84 59.5 -117t153.5 -33q92 0 166 25q74 23 82 -43l24 -189q8 -57 -59 -88q-139 -68 -317 -67q-266 0 -404.5 120.5t-130.5 391.5h-92q-55 0 -45 49z" />
<glyph unicode="&#x2122;" horiz-adv-x="1421" d="M195 1296l18 109q8 45 49 45h422q49 0 41 -45l-18 -109q-11 -45 -52 -45h-96l-78 -436q-6 -43 -49 -43h-143q-47 0 -39 43l76 436h-93q-49 0 -38 45zM694 815l105 590q8 45 47 45h139q41 0 51 -29l80 -219l156 219q23 29 53 29h141q49 0 41 -45l-104 -590q-6 -43 -49 -43 h-137q-47 0 -41 43l53 293l-119 -162q-18 -28 -43 -28q-23 0 -33 28l-59 162l-53 -293q-6 -43 -50 -43h-137q-47 0 -41 43z" />
<glyph unicode="&#x25fc;" horiz-adv-x="1126" d="M0 0v1126h1126v-1126h-1126z" />
</font>
</defs>
</svg>
